G04*
G04 #@! TF.GenerationSoftware,Altium Limited,Altium Designer,23.8.1 (32)*
G04*
G04 Layer_Color=255*
%FSTAX26Y26*%
%MOIN*%
G70*
G04*
G04 #@! TF.SameCoordinates,353E1745-25BD-4490-98DE-B48524D5EC12*
G04*
G04*
G04 #@! TF.FilePolarity,Positive*
G04*
G01*
G75*
%ADD11C,0.042047*%
%ADD12R,0.049213X0.070866*%
%ADD13R,0.037402X0.039370*%
%ADD14R,0.039370X0.037402*%
%ADD15R,0.036000X0.036000*%
%ADD16R,0.036000X0.050000*%
%ADD17R,0.078740X0.078740*%
%ADD18R,0.036000X0.036000*%
%ADD19R,0.050000X0.036000*%
%ADD20R,0.070866X0.049213*%
%ADD21R,0.045276X0.070866*%
%ADD22R,0.057087X0.039370*%
%ADD23O,0.019685X0.066929*%
%ADD24R,0.019685X0.066929*%
%ADD41O,0.086614X0.070866*%
%ADD42O,0.086614X0.070866*%
%ADD43R,0.078740X0.055118*%
%ADD44O,0.078740X0.055118*%
%ADD45O,0.055118X0.078740*%
%ADD46O,0.078740X0.059055*%
%ADD47O,0.059055X0.078740*%
%ADD48R,0.059055X0.078740*%
%ADD49C,0.078740*%
%ADD50R,0.090551X0.086614*%
D11*
X08661266Y00370928D02*
D03*
X06204031Y0664936D02*
D03*
X02304031D02*
D03*
X08661266Y05043928D02*
D03*
X-00098483Y003937D02*
D03*
X00393512Y-00101861D02*
D03*
X-00099298Y05046928D02*
D03*
X08217266Y-00101867D02*
D03*
D12*
X0014359Y00577345D02*
D03*
X00291228D02*
D03*
X01161609Y00883386D02*
D03*
X01013971D02*
D03*
X01856185Y00577345D02*
D03*
X02003822D02*
D03*
X02874203Y00883386D02*
D03*
X02726565D02*
D03*
X03568778Y00577345D02*
D03*
X03716416D02*
D03*
X04586797Y00883386D02*
D03*
X04439159D02*
D03*
X05281373Y00577345D02*
D03*
X0542901D02*
D03*
X06299391Y00883386D02*
D03*
X06151753D02*
D03*
X06993967Y00577345D02*
D03*
X07141604D02*
D03*
X08011985Y00883386D02*
D03*
X07864347D02*
D03*
X0014359Y02215152D02*
D03*
X00291228D02*
D03*
X01161609Y02521192D02*
D03*
X01013971D02*
D03*
X01856185Y02215152D02*
D03*
X02003822D02*
D03*
X02874203Y02521192D02*
D03*
X02726565D02*
D03*
X03568778Y02215152D02*
D03*
X03716416D02*
D03*
X04586797Y02521192D02*
D03*
X04439159D02*
D03*
X05281373Y02215152D02*
D03*
X0542901D02*
D03*
X06299391Y02521192D02*
D03*
X06151753D02*
D03*
X06993967Y02215152D02*
D03*
X07141604D02*
D03*
X08011985Y02521192D02*
D03*
X07864347D02*
D03*
X0014359Y03852958D02*
D03*
X00291228D02*
D03*
X01161609Y04158999D02*
D03*
X01013971D02*
D03*
X01856185Y03852958D02*
D03*
X02003822D02*
D03*
X02874203Y04158999D02*
D03*
X02726565D02*
D03*
X03568778Y03852958D02*
D03*
X03716416D02*
D03*
X04586797Y04158999D02*
D03*
X04439159D02*
D03*
X05281373Y03852958D02*
D03*
X0542901D02*
D03*
X06299391Y04158999D02*
D03*
X06151753D02*
D03*
X06993967Y03852958D02*
D03*
X07141604D02*
D03*
X08011985Y04158999D02*
D03*
X07864347D02*
D03*
X0014359Y05490765D02*
D03*
X00291228D02*
D03*
X01161609Y05796805D02*
D03*
X01013971D02*
D03*
X01856185Y05490765D02*
D03*
X02003822D02*
D03*
X02874203Y05796805D02*
D03*
X02726565D02*
D03*
X03568778Y05490765D02*
D03*
X03716416D02*
D03*
X04586797Y05796805D02*
D03*
X04439159D02*
D03*
X05281373Y05490765D02*
D03*
X0542901D02*
D03*
X06299391Y05796805D02*
D03*
X06151753D02*
D03*
X06993967Y05490765D02*
D03*
X07141604D02*
D03*
X08011985Y05796805D02*
D03*
X07864347D02*
D03*
D13*
X00765783Y00105531D02*
D03*
X00828776D02*
D03*
X00763862Y00163122D02*
D03*
X00826854D02*
D03*
X00938997Y00306315D02*
D03*
X00876005D02*
D03*
X01661978Y0048795D02*
D03*
X01598986D02*
D03*
X01316583Y00498858D02*
D03*
X01379575D02*
D03*
X01320561Y00762858D02*
D03*
X01383553D02*
D03*
X00944354Y00487191D02*
D03*
X00881362D02*
D03*
X00944354Y00408191D02*
D03*
X00881362D02*
D03*
X00975851Y00758062D02*
D03*
X00912858D02*
D03*
X01598986Y00587564D02*
D03*
X01661978D02*
D03*
X00715912D02*
D03*
X0065292D02*
D03*
X00515931Y00577345D02*
D03*
X00452939D02*
D03*
X0066482Y00269528D02*
D03*
X00601828D02*
D03*
X00601828Y00343937D02*
D03*
X0066482D02*
D03*
X00190475Y00039379D02*
D03*
X00253467D02*
D03*
X00430412Y00269532D02*
D03*
X00493404D02*
D03*
X00663136Y00045448D02*
D03*
X00726128D02*
D03*
X01343306Y0067133D02*
D03*
X01406299D02*
D03*
X00304842Y00498858D02*
D03*
X00367834D02*
D03*
X02478377Y00105531D02*
D03*
X0254137D02*
D03*
X02476456Y00163122D02*
D03*
X02539448D02*
D03*
X02651591Y00306315D02*
D03*
X02588599D02*
D03*
X03374572Y0048795D02*
D03*
X0331158D02*
D03*
X03029177Y00498858D02*
D03*
X03092169D02*
D03*
X03033155Y00762858D02*
D03*
X03096147D02*
D03*
X02656948Y00487191D02*
D03*
X02593956D02*
D03*
X02656948Y00408191D02*
D03*
X02593956D02*
D03*
X02688445Y00758062D02*
D03*
X02625452D02*
D03*
X0331158Y00587564D02*
D03*
X03374572D02*
D03*
X02428506D02*
D03*
X02365514D02*
D03*
X02228525Y00577345D02*
D03*
X02165533D02*
D03*
X02377414Y00269528D02*
D03*
X02314422D02*
D03*
X02314422Y00343937D02*
D03*
X02377414D02*
D03*
X01903069Y00039379D02*
D03*
X01966061D02*
D03*
X02143006Y00269532D02*
D03*
X02205998D02*
D03*
X0237573Y00045448D02*
D03*
X02438722D02*
D03*
X03055901Y0067133D02*
D03*
X03118893D02*
D03*
X02017436Y00498858D02*
D03*
X02080428D02*
D03*
X04190971Y00105531D02*
D03*
X04253964D02*
D03*
X0418905Y00163122D02*
D03*
X04252042D02*
D03*
X04364185Y00306315D02*
D03*
X04301193D02*
D03*
X05087166Y0048795D02*
D03*
X05024174D02*
D03*
X04741771Y00498858D02*
D03*
X04804764D02*
D03*
X04745749Y00762858D02*
D03*
X04808741D02*
D03*
X04369542Y00487191D02*
D03*
X0430655D02*
D03*
X04369542Y00408191D02*
D03*
X0430655D02*
D03*
X04401038Y00758062D02*
D03*
X04338046D02*
D03*
X05024174Y00587564D02*
D03*
X05087166D02*
D03*
X041411D02*
D03*
X04078108D02*
D03*
X03941119Y00577345D02*
D03*
X03878127D02*
D03*
X04090008Y00269528D02*
D03*
X04027016D02*
D03*
X04027016Y00343937D02*
D03*
X04090008D02*
D03*
X03615662Y00039379D02*
D03*
X03678655D02*
D03*
X038556Y00269532D02*
D03*
X03918592D02*
D03*
X04088324Y00045448D02*
D03*
X04151316D02*
D03*
X04768494Y0067133D02*
D03*
X04831487D02*
D03*
X0373003Y00498858D02*
D03*
X03793022D02*
D03*
X05903565Y00105531D02*
D03*
X05966558D02*
D03*
X05901644Y00163122D02*
D03*
X05964636D02*
D03*
X06076779Y00306315D02*
D03*
X06013787D02*
D03*
X0679976Y0048795D02*
D03*
X06736768D02*
D03*
X06454365Y00498858D02*
D03*
X06517358D02*
D03*
X06458343Y00762858D02*
D03*
X06521335D02*
D03*
X06082136Y00487191D02*
D03*
X06019144D02*
D03*
X06082136Y00408191D02*
D03*
X06019144D02*
D03*
X06113632Y00758062D02*
D03*
X0605064D02*
D03*
X06736768Y00587564D02*
D03*
X0679976D02*
D03*
X05853694D02*
D03*
X05790702D02*
D03*
X05653713Y00577345D02*
D03*
X05590721D02*
D03*
X05802602Y00269528D02*
D03*
X0573961D02*
D03*
X0573961Y00343937D02*
D03*
X05802602D02*
D03*
X05328257Y00039379D02*
D03*
X05391249D02*
D03*
X05568194Y00269532D02*
D03*
X05631186D02*
D03*
X05800918Y00045448D02*
D03*
X0586391D02*
D03*
X06481088Y0067133D02*
D03*
X06544081D02*
D03*
X05442624Y00498858D02*
D03*
X05505616D02*
D03*
X07616159Y00105531D02*
D03*
X07679152D02*
D03*
X07614238Y00163122D02*
D03*
X0767723D02*
D03*
X07789373Y00306315D02*
D03*
X07726381D02*
D03*
X08512354Y0048795D02*
D03*
X08449362D02*
D03*
X08166959Y00498858D02*
D03*
X08229951D02*
D03*
X08170937Y00762858D02*
D03*
X08233929D02*
D03*
X0779473Y00487191D02*
D03*
X07731738D02*
D03*
X0779473Y00408191D02*
D03*
X07731738D02*
D03*
X07826226Y00758062D02*
D03*
X07763234D02*
D03*
X08449362Y00587564D02*
D03*
X08512354D02*
D03*
X07566288D02*
D03*
X07503296D02*
D03*
X07366307Y00577345D02*
D03*
X07303315D02*
D03*
X07515196Y00269528D02*
D03*
X07452204D02*
D03*
X07452204Y00343937D02*
D03*
X07515196D02*
D03*
X0704085Y00039379D02*
D03*
X07103843D02*
D03*
X07280788Y00269532D02*
D03*
X0734378D02*
D03*
X07513512Y00045448D02*
D03*
X07576504D02*
D03*
X08193683Y0067133D02*
D03*
X08256675D02*
D03*
X07155218Y00498858D02*
D03*
X0721821D02*
D03*
X00765783Y01743337D02*
D03*
X00828776D02*
D03*
X00763862Y01800928D02*
D03*
X00826854D02*
D03*
X00938997Y01944122D02*
D03*
X00876005D02*
D03*
X01661978Y02125757D02*
D03*
X01598986D02*
D03*
X01316583Y02136665D02*
D03*
X01379575D02*
D03*
X01320561Y02400665D02*
D03*
X01383553D02*
D03*
X00944354Y02124997D02*
D03*
X00881362D02*
D03*
X00944354Y02045997D02*
D03*
X00881362D02*
D03*
X00975851Y02395868D02*
D03*
X00912858D02*
D03*
X01598986Y0222537D02*
D03*
X01661978D02*
D03*
X00715912D02*
D03*
X0065292D02*
D03*
X00515931Y02215152D02*
D03*
X00452939D02*
D03*
X0066482Y01907334D02*
D03*
X00601828D02*
D03*
X00601828Y01981744D02*
D03*
X0066482D02*
D03*
X00190475Y01677186D02*
D03*
X00253467D02*
D03*
X00430412Y01907338D02*
D03*
X00493404D02*
D03*
X00663136Y01683254D02*
D03*
X00726128D02*
D03*
X01343306Y02309137D02*
D03*
X01406299D02*
D03*
X00304842Y02136665D02*
D03*
X00367834D02*
D03*
X02478377Y01743337D02*
D03*
X0254137D02*
D03*
X02476456Y01800928D02*
D03*
X02539448D02*
D03*
X02651591Y01944122D02*
D03*
X02588599D02*
D03*
X03374572Y02125757D02*
D03*
X0331158D02*
D03*
X03029177Y02136665D02*
D03*
X03092169D02*
D03*
X03033155Y02400665D02*
D03*
X03096147D02*
D03*
X02656948Y02124997D02*
D03*
X02593956D02*
D03*
X02656948Y02045997D02*
D03*
X02593956D02*
D03*
X02688445Y02395868D02*
D03*
X02625452D02*
D03*
X0331158Y0222537D02*
D03*
X03374572D02*
D03*
X02428506D02*
D03*
X02365514D02*
D03*
X02228525Y02215152D02*
D03*
X02165533D02*
D03*
X02377414Y01907334D02*
D03*
X02314422D02*
D03*
X02314422Y01981744D02*
D03*
X02377414D02*
D03*
X01903069Y01677186D02*
D03*
X01966061D02*
D03*
X02143006Y01907338D02*
D03*
X02205998D02*
D03*
X0237573Y01683254D02*
D03*
X02438722D02*
D03*
X03055901Y02309137D02*
D03*
X03118893D02*
D03*
X02017436Y02136665D02*
D03*
X02080428D02*
D03*
X04190971Y01743337D02*
D03*
X04253964D02*
D03*
X0418905Y01800928D02*
D03*
X04252042D02*
D03*
X04364185Y01944122D02*
D03*
X04301193D02*
D03*
X05087166Y02125757D02*
D03*
X05024174D02*
D03*
X04741771Y02136665D02*
D03*
X04804764D02*
D03*
X04745749Y02400665D02*
D03*
X04808741D02*
D03*
X04369542Y02124997D02*
D03*
X0430655D02*
D03*
X04369542Y02045997D02*
D03*
X0430655D02*
D03*
X04401038Y02395868D02*
D03*
X04338046D02*
D03*
X05024174Y0222537D02*
D03*
X05087166D02*
D03*
X041411D02*
D03*
X04078108D02*
D03*
X03941119Y02215152D02*
D03*
X03878127D02*
D03*
X04090008Y01907334D02*
D03*
X04027016D02*
D03*
X04027016Y01981744D02*
D03*
X04090008D02*
D03*
X03615662Y01677186D02*
D03*
X03678655D02*
D03*
X038556Y01907338D02*
D03*
X03918592D02*
D03*
X04088324Y01683254D02*
D03*
X04151316D02*
D03*
X04768494Y02309137D02*
D03*
X04831487D02*
D03*
X0373003Y02136665D02*
D03*
X03793022D02*
D03*
X05903565Y01743337D02*
D03*
X05966558D02*
D03*
X05901644Y01800928D02*
D03*
X05964636D02*
D03*
X06076779Y01944122D02*
D03*
X06013787D02*
D03*
X0679976Y02125757D02*
D03*
X06736768D02*
D03*
X06454365Y02136665D02*
D03*
X06517358D02*
D03*
X06458343Y02400665D02*
D03*
X06521335D02*
D03*
X06082136Y02124997D02*
D03*
X06019144D02*
D03*
X06082136Y02045997D02*
D03*
X06019144D02*
D03*
X06113632Y02395868D02*
D03*
X0605064D02*
D03*
X06736768Y0222537D02*
D03*
X0679976D02*
D03*
X05853694D02*
D03*
X05790702D02*
D03*
X05653713Y02215152D02*
D03*
X05590721D02*
D03*
X05802602Y01907334D02*
D03*
X0573961D02*
D03*
X0573961Y01981744D02*
D03*
X05802602D02*
D03*
X05328257Y01677186D02*
D03*
X05391249D02*
D03*
X05568194Y01907338D02*
D03*
X05631186D02*
D03*
X05800918Y01683254D02*
D03*
X0586391D02*
D03*
X06481088Y02309137D02*
D03*
X06544081D02*
D03*
X05442624Y02136665D02*
D03*
X05505616D02*
D03*
X07616159Y01743337D02*
D03*
X07679152D02*
D03*
X07614238Y01800928D02*
D03*
X0767723D02*
D03*
X07789373Y01944122D02*
D03*
X07726381D02*
D03*
X08512354Y02125757D02*
D03*
X08449362D02*
D03*
X08166959Y02136665D02*
D03*
X08229951D02*
D03*
X08170937Y02400665D02*
D03*
X08233929D02*
D03*
X0779473Y02124997D02*
D03*
X07731738D02*
D03*
X0779473Y02045997D02*
D03*
X07731738D02*
D03*
X07826226Y02395868D02*
D03*
X07763234D02*
D03*
X08449362Y0222537D02*
D03*
X08512354D02*
D03*
X07566288D02*
D03*
X07503296D02*
D03*
X07366307Y02215152D02*
D03*
X07303315D02*
D03*
X07515196Y01907334D02*
D03*
X07452204D02*
D03*
X07452204Y01981744D02*
D03*
X07515196D02*
D03*
X0704085Y01677186D02*
D03*
X07103843D02*
D03*
X07280788Y01907338D02*
D03*
X0734378D02*
D03*
X07513512Y01683254D02*
D03*
X07576504D02*
D03*
X08193683Y02309137D02*
D03*
X08256675D02*
D03*
X07155218Y02136665D02*
D03*
X0721821D02*
D03*
X00765783Y03381144D02*
D03*
X00828776D02*
D03*
X00763862Y03438735D02*
D03*
X00826854D02*
D03*
X00938997Y03581928D02*
D03*
X00876005D02*
D03*
X01661978Y03763563D02*
D03*
X01598986D02*
D03*
X01316583Y03774471D02*
D03*
X01379575D02*
D03*
X01320561Y04038471D02*
D03*
X01383553D02*
D03*
X00944354Y03762804D02*
D03*
X00881362D02*
D03*
X00944354Y03683804D02*
D03*
X00881362D02*
D03*
X00975851Y04033674D02*
D03*
X00912858D02*
D03*
X01598986Y03863177D02*
D03*
X01661978D02*
D03*
X00715912D02*
D03*
X0065292D02*
D03*
X00515931Y03852958D02*
D03*
X00452939D02*
D03*
X0066482Y0354514D02*
D03*
X00601828D02*
D03*
X00601828Y0361955D02*
D03*
X0066482D02*
D03*
X00190475Y03314992D02*
D03*
X00253467D02*
D03*
X00430412Y03545144D02*
D03*
X00493404D02*
D03*
X00663136Y03321061D02*
D03*
X00726128D02*
D03*
X01343306Y03946943D02*
D03*
X01406299D02*
D03*
X00304842Y03774471D02*
D03*
X00367834D02*
D03*
X02478377Y03381144D02*
D03*
X0254137D02*
D03*
X02476456Y03438735D02*
D03*
X02539448D02*
D03*
X02651591Y03581928D02*
D03*
X02588599D02*
D03*
X03374572Y03763563D02*
D03*
X0331158D02*
D03*
X03029177Y03774471D02*
D03*
X03092169D02*
D03*
X03033155Y04038471D02*
D03*
X03096147D02*
D03*
X02656948Y03762804D02*
D03*
X02593956D02*
D03*
X02656948Y03683804D02*
D03*
X02593956D02*
D03*
X02688445Y04033674D02*
D03*
X02625452D02*
D03*
X0331158Y03863177D02*
D03*
X03374572D02*
D03*
X02428506D02*
D03*
X02365514D02*
D03*
X02228525Y03852958D02*
D03*
X02165533D02*
D03*
X02377414Y0354514D02*
D03*
X02314422D02*
D03*
X02314422Y0361955D02*
D03*
X02377414D02*
D03*
X01903069Y03314992D02*
D03*
X01966061D02*
D03*
X02143006Y03545144D02*
D03*
X02205998D02*
D03*
X0237573Y03321061D02*
D03*
X02438722D02*
D03*
X03055901Y03946943D02*
D03*
X03118893D02*
D03*
X02017436Y03774471D02*
D03*
X02080428D02*
D03*
X04190971Y03381144D02*
D03*
X04253964D02*
D03*
X0418905Y03438735D02*
D03*
X04252042D02*
D03*
X04364185Y03581928D02*
D03*
X04301193D02*
D03*
X05087166Y03763563D02*
D03*
X05024174D02*
D03*
X04741771Y03774471D02*
D03*
X04804764D02*
D03*
X04745749Y04038471D02*
D03*
X04808741D02*
D03*
X04369542Y03762804D02*
D03*
X0430655D02*
D03*
X04369542Y03683804D02*
D03*
X0430655D02*
D03*
X04401038Y04033674D02*
D03*
X04338046D02*
D03*
X05024174Y03863177D02*
D03*
X05087166D02*
D03*
X041411D02*
D03*
X04078108D02*
D03*
X03941119Y03852958D02*
D03*
X03878127D02*
D03*
X04090008Y0354514D02*
D03*
X04027016D02*
D03*
X04027016Y0361955D02*
D03*
X04090008D02*
D03*
X03615662Y03314992D02*
D03*
X03678655D02*
D03*
X038556Y03545144D02*
D03*
X03918592D02*
D03*
X04088324Y03321061D02*
D03*
X04151316D02*
D03*
X04768494Y03946943D02*
D03*
X04831487D02*
D03*
X0373003Y03774471D02*
D03*
X03793022D02*
D03*
X05903565Y03381144D02*
D03*
X05966558D02*
D03*
X05901644Y03438735D02*
D03*
X05964636D02*
D03*
X06076779Y03581928D02*
D03*
X06013787D02*
D03*
X0679976Y03763563D02*
D03*
X06736768D02*
D03*
X06454365Y03774471D02*
D03*
X06517358D02*
D03*
X06458343Y04038471D02*
D03*
X06521335D02*
D03*
X06082136Y03762804D02*
D03*
X06019144D02*
D03*
X06082136Y03683804D02*
D03*
X06019144D02*
D03*
X06113632Y04033674D02*
D03*
X0605064D02*
D03*
X06736768Y03863177D02*
D03*
X0679976D02*
D03*
X05853694D02*
D03*
X05790702D02*
D03*
X05653713Y03852958D02*
D03*
X05590721D02*
D03*
X05802602Y0354514D02*
D03*
X0573961D02*
D03*
X0573961Y0361955D02*
D03*
X05802602D02*
D03*
X05328257Y03314992D02*
D03*
X05391249D02*
D03*
X05568194Y03545144D02*
D03*
X05631186D02*
D03*
X05800918Y03321061D02*
D03*
X0586391D02*
D03*
X06481088Y03946943D02*
D03*
X06544081D02*
D03*
X05442624Y03774471D02*
D03*
X05505616D02*
D03*
X07616159Y03381144D02*
D03*
X07679152D02*
D03*
X07614238Y03438735D02*
D03*
X0767723D02*
D03*
X07789373Y03581928D02*
D03*
X07726381D02*
D03*
X08512354Y03763563D02*
D03*
X08449362D02*
D03*
X08166959Y03774471D02*
D03*
X08229951D02*
D03*
X08170937Y04038471D02*
D03*
X08233929D02*
D03*
X0779473Y03762804D02*
D03*
X07731738D02*
D03*
X0779473Y03683804D02*
D03*
X07731738D02*
D03*
X07826226Y04033674D02*
D03*
X07763234D02*
D03*
X08449362Y03863177D02*
D03*
X08512354D02*
D03*
X07566288D02*
D03*
X07503296D02*
D03*
X07366307Y03852958D02*
D03*
X07303315D02*
D03*
X07515196Y0354514D02*
D03*
X07452204D02*
D03*
X07452204Y0361955D02*
D03*
X07515196D02*
D03*
X0704085Y03314992D02*
D03*
X07103843D02*
D03*
X07280788Y03545144D02*
D03*
X0734378D02*
D03*
X07513512Y03321061D02*
D03*
X07576504D02*
D03*
X08193683Y03946943D02*
D03*
X08256675D02*
D03*
X07155218Y03774471D02*
D03*
X0721821D02*
D03*
X00765783Y0501895D02*
D03*
X00828776D02*
D03*
X00763862Y05076541D02*
D03*
X00826854D02*
D03*
X00938997Y05219734D02*
D03*
X00876005D02*
D03*
X01661978Y0540137D02*
D03*
X01598986D02*
D03*
X01316583Y05412278D02*
D03*
X01379575D02*
D03*
X01320561Y05676278D02*
D03*
X01383553D02*
D03*
X00944354Y0540061D02*
D03*
X00881362D02*
D03*
X00944354Y0532161D02*
D03*
X00881362D02*
D03*
X00975851Y05671481D02*
D03*
X00912858D02*
D03*
X01598986Y05500983D02*
D03*
X01661978D02*
D03*
X00715912D02*
D03*
X0065292D02*
D03*
X00515931Y05490765D02*
D03*
X00452939D02*
D03*
X0066482Y05182947D02*
D03*
X00601828D02*
D03*
X00601828Y05257356D02*
D03*
X0066482D02*
D03*
X00190475Y04952799D02*
D03*
X00253467D02*
D03*
X00430412Y05182951D02*
D03*
X00493404D02*
D03*
X00663136Y04958867D02*
D03*
X00726128D02*
D03*
X01343306Y0558475D02*
D03*
X01406299D02*
D03*
X00304842Y05412278D02*
D03*
X00367834D02*
D03*
X02478377Y0501895D02*
D03*
X0254137D02*
D03*
X02476456Y05076541D02*
D03*
X02539448D02*
D03*
X02651591Y05219734D02*
D03*
X02588599D02*
D03*
X03374572Y0540137D02*
D03*
X0331158D02*
D03*
X03029177Y05412278D02*
D03*
X03092169D02*
D03*
X03033155Y05676278D02*
D03*
X03096147D02*
D03*
X02656948Y0540061D02*
D03*
X02593956D02*
D03*
X02656948Y0532161D02*
D03*
X02593956D02*
D03*
X02688445Y05671481D02*
D03*
X02625452D02*
D03*
X0331158Y05500983D02*
D03*
X03374572D02*
D03*
X02428506D02*
D03*
X02365514D02*
D03*
X02228525Y05490765D02*
D03*
X02165533D02*
D03*
X02377414Y05182947D02*
D03*
X02314422D02*
D03*
X02314422Y05257356D02*
D03*
X02377414D02*
D03*
X01903069Y04952799D02*
D03*
X01966061D02*
D03*
X02143006Y05182951D02*
D03*
X02205998D02*
D03*
X0237573Y04958867D02*
D03*
X02438722D02*
D03*
X03055901Y0558475D02*
D03*
X03118893D02*
D03*
X02017436Y05412278D02*
D03*
X02080428D02*
D03*
X04190971Y0501895D02*
D03*
X04253964D02*
D03*
X0418905Y05076541D02*
D03*
X04252042D02*
D03*
X04364185Y05219734D02*
D03*
X04301193D02*
D03*
X05087166Y0540137D02*
D03*
X05024174D02*
D03*
X04741771Y05412278D02*
D03*
X04804764D02*
D03*
X04745749Y05676278D02*
D03*
X04808741D02*
D03*
X04369542Y0540061D02*
D03*
X0430655D02*
D03*
X04369542Y0532161D02*
D03*
X0430655D02*
D03*
X04401038Y05671481D02*
D03*
X04338046D02*
D03*
X05024174Y05500983D02*
D03*
X05087166D02*
D03*
X041411D02*
D03*
X04078108D02*
D03*
X03941119Y05490765D02*
D03*
X03878127D02*
D03*
X04090008Y05182947D02*
D03*
X04027016D02*
D03*
X04027016Y05257356D02*
D03*
X04090008D02*
D03*
X03615662Y04952799D02*
D03*
X03678655D02*
D03*
X038556Y05182951D02*
D03*
X03918592D02*
D03*
X04088324Y04958867D02*
D03*
X04151316D02*
D03*
X04768494Y0558475D02*
D03*
X04831487D02*
D03*
X0373003Y05412278D02*
D03*
X03793022D02*
D03*
X05903565Y0501895D02*
D03*
X05966558D02*
D03*
X05901644Y05076541D02*
D03*
X05964636D02*
D03*
X06076779Y05219734D02*
D03*
X06013787D02*
D03*
X0679976Y0540137D02*
D03*
X06736768D02*
D03*
X06454365Y05412278D02*
D03*
X06517358D02*
D03*
X06458343Y05676278D02*
D03*
X06521335D02*
D03*
X06082136Y0540061D02*
D03*
X06019144D02*
D03*
X06082136Y0532161D02*
D03*
X06019144D02*
D03*
X06113632Y05671481D02*
D03*
X0605064D02*
D03*
X06736768Y05500983D02*
D03*
X0679976D02*
D03*
X05853694D02*
D03*
X05790702D02*
D03*
X05653713Y05490765D02*
D03*
X05590721D02*
D03*
X05802602Y05182947D02*
D03*
X0573961D02*
D03*
X0573961Y05257356D02*
D03*
X05802602D02*
D03*
X05328257Y04952799D02*
D03*
X05391249D02*
D03*
X05568194Y05182951D02*
D03*
X05631186D02*
D03*
X05800918Y04958867D02*
D03*
X0586391D02*
D03*
X06481088Y0558475D02*
D03*
X06544081D02*
D03*
X05442624Y05412278D02*
D03*
X05505616D02*
D03*
X07616159Y0501895D02*
D03*
X07679152D02*
D03*
X07614238Y05076541D02*
D03*
X0767723D02*
D03*
X07789373Y05219734D02*
D03*
X07726381D02*
D03*
X08512354Y0540137D02*
D03*
X08449362D02*
D03*
X08166959Y05412278D02*
D03*
X08229951D02*
D03*
X08170937Y05676278D02*
D03*
X08233929D02*
D03*
X0779473Y0540061D02*
D03*
X07731738D02*
D03*
X0779473Y0532161D02*
D03*
X07731738D02*
D03*
X07826226Y05671481D02*
D03*
X07763234D02*
D03*
X08449362Y05500983D02*
D03*
X08512354D02*
D03*
X07566288D02*
D03*
X07503296D02*
D03*
X07366307Y05490765D02*
D03*
X07303315D02*
D03*
X07515196Y05182947D02*
D03*
X07452204D02*
D03*
X07452204Y05257356D02*
D03*
X07515196D02*
D03*
X0704085Y04952799D02*
D03*
X07103843D02*
D03*
X07280788Y05182951D02*
D03*
X0734378D02*
D03*
X07513512Y04958867D02*
D03*
X07576504D02*
D03*
X08193683Y0558475D02*
D03*
X08256675D02*
D03*
X07155218Y05412278D02*
D03*
X0721821D02*
D03*
D14*
X0073814Y00369423D02*
D03*
Y00432415D02*
D03*
X00795311Y0043338D02*
D03*
Y00370387D02*
D03*
X01031506Y00711362D02*
D03*
Y00774355D02*
D03*
X01539903Y00260313D02*
D03*
Y00323305D02*
D03*
X00807Y00760496D02*
D03*
Y00697504D02*
D03*
X00663834Y00185868D02*
D03*
Y00122876D02*
D03*
X00575834Y0042254D02*
D03*
Y00485532D02*
D03*
X00663324D02*
D03*
Y0042254D02*
D03*
X00575834Y00122876D02*
D03*
Y00185868D02*
D03*
X01118025Y0099078D02*
D03*
Y01053773D02*
D03*
X00685321Y00685259D02*
D03*
Y00748251D02*
D03*
X01184568Y0099078D02*
D03*
Y01053773D02*
D03*
X01051876D02*
D03*
Y0099078D02*
D03*
X00367834Y00556068D02*
D03*
Y0061906D02*
D03*
X02450734Y00369423D02*
D03*
Y00432415D02*
D03*
X02507905Y0043338D02*
D03*
Y00370387D02*
D03*
X027441Y00711362D02*
D03*
Y00774355D02*
D03*
X03252497Y00260313D02*
D03*
Y00323305D02*
D03*
X02519594Y00760496D02*
D03*
Y00697504D02*
D03*
X02376428Y00185868D02*
D03*
Y00122876D02*
D03*
X02288428Y0042254D02*
D03*
Y00485532D02*
D03*
X02375918D02*
D03*
Y0042254D02*
D03*
X02288428Y00122876D02*
D03*
Y00185868D02*
D03*
X02830619Y0099078D02*
D03*
Y01053773D02*
D03*
X02397915Y00685259D02*
D03*
Y00748251D02*
D03*
X02897162Y0099078D02*
D03*
Y01053773D02*
D03*
X0276447D02*
D03*
Y0099078D02*
D03*
X02080428Y00556068D02*
D03*
Y0061906D02*
D03*
X04163328Y00369423D02*
D03*
Y00432415D02*
D03*
X04220499Y0043338D02*
D03*
Y00370387D02*
D03*
X04456694Y00711362D02*
D03*
Y00774355D02*
D03*
X04965091Y00260313D02*
D03*
Y00323305D02*
D03*
X04232188Y00760496D02*
D03*
Y00697504D02*
D03*
X04089022Y00185868D02*
D03*
Y00122876D02*
D03*
X04001022Y0042254D02*
D03*
Y00485532D02*
D03*
X04088512D02*
D03*
Y0042254D02*
D03*
X04001022Y00122876D02*
D03*
Y00185868D02*
D03*
X04543213Y0099078D02*
D03*
Y01053773D02*
D03*
X04110509Y00685259D02*
D03*
Y00748251D02*
D03*
X04609756Y0099078D02*
D03*
Y01053773D02*
D03*
X04477064D02*
D03*
Y0099078D02*
D03*
X03793022Y00556068D02*
D03*
Y0061906D02*
D03*
X05875922Y00369423D02*
D03*
Y00432415D02*
D03*
X05933093Y0043338D02*
D03*
Y00370387D02*
D03*
X06169288Y00711362D02*
D03*
Y00774355D02*
D03*
X06677685Y00260313D02*
D03*
Y00323305D02*
D03*
X05944782Y00760496D02*
D03*
Y00697504D02*
D03*
X05801616Y00185868D02*
D03*
Y00122876D02*
D03*
X05713616Y0042254D02*
D03*
Y00485532D02*
D03*
X05801106D02*
D03*
Y0042254D02*
D03*
X05713616Y00122876D02*
D03*
Y00185868D02*
D03*
X06255807Y0099078D02*
D03*
Y01053773D02*
D03*
X05823103Y00685259D02*
D03*
Y00748251D02*
D03*
X0632235Y0099078D02*
D03*
Y01053773D02*
D03*
X06189658D02*
D03*
Y0099078D02*
D03*
X05505616Y00556068D02*
D03*
Y0061906D02*
D03*
X07588516Y00369423D02*
D03*
Y00432415D02*
D03*
X07645687Y0043338D02*
D03*
Y00370387D02*
D03*
X07881882Y00711362D02*
D03*
Y00774355D02*
D03*
X08390279Y00260313D02*
D03*
Y00323305D02*
D03*
X07657376Y00760496D02*
D03*
Y00697504D02*
D03*
X0751421Y00185868D02*
D03*
Y00122876D02*
D03*
X0742621Y0042254D02*
D03*
Y00485532D02*
D03*
X075137D02*
D03*
Y0042254D02*
D03*
X0742621Y00122876D02*
D03*
Y00185868D02*
D03*
X07968401Y0099078D02*
D03*
Y01053773D02*
D03*
X07535697Y00685259D02*
D03*
Y00748251D02*
D03*
X08034944Y0099078D02*
D03*
Y01053773D02*
D03*
X07902252D02*
D03*
Y0099078D02*
D03*
X0721821Y00556068D02*
D03*
Y0061906D02*
D03*
X0073814Y02007229D02*
D03*
Y02070221D02*
D03*
X00795311Y02071186D02*
D03*
Y02008194D02*
D03*
X01031506Y02349169D02*
D03*
Y02412161D02*
D03*
X01539903Y01898119D02*
D03*
Y01961111D02*
D03*
X00807Y02398302D02*
D03*
Y0233531D02*
D03*
X00663834Y01823675D02*
D03*
Y01760682D02*
D03*
X00575834Y02060347D02*
D03*
Y02123339D02*
D03*
X00663324D02*
D03*
Y02060347D02*
D03*
X00575834Y01760682D02*
D03*
Y01823675D02*
D03*
X01118025Y02628587D02*
D03*
Y02691579D02*
D03*
X00685321Y02323066D02*
D03*
Y02386058D02*
D03*
X01184568Y02628587D02*
D03*
Y02691579D02*
D03*
X01051876D02*
D03*
Y02628587D02*
D03*
X00367834Y02193874D02*
D03*
Y02256866D02*
D03*
X02450734Y02007229D02*
D03*
Y02070221D02*
D03*
X02507905Y02071186D02*
D03*
Y02008194D02*
D03*
X027441Y02349169D02*
D03*
Y02412161D02*
D03*
X03252497Y01898119D02*
D03*
Y01961111D02*
D03*
X02519594Y02398302D02*
D03*
Y0233531D02*
D03*
X02376428Y01823675D02*
D03*
Y01760682D02*
D03*
X02288428Y02060347D02*
D03*
Y02123339D02*
D03*
X02375918D02*
D03*
Y02060347D02*
D03*
X02288428Y01760682D02*
D03*
Y01823675D02*
D03*
X02830619Y02628587D02*
D03*
Y02691579D02*
D03*
X02397915Y02323066D02*
D03*
Y02386058D02*
D03*
X02897162Y02628587D02*
D03*
Y02691579D02*
D03*
X0276447D02*
D03*
Y02628587D02*
D03*
X02080428Y02193874D02*
D03*
Y02256866D02*
D03*
X04163328Y02007229D02*
D03*
Y02070221D02*
D03*
X04220499Y02071186D02*
D03*
Y02008194D02*
D03*
X04456694Y02349169D02*
D03*
Y02412161D02*
D03*
X04965091Y01898119D02*
D03*
Y01961111D02*
D03*
X04232188Y02398302D02*
D03*
Y0233531D02*
D03*
X04089022Y01823675D02*
D03*
Y01760682D02*
D03*
X04001022Y02060347D02*
D03*
Y02123339D02*
D03*
X04088512D02*
D03*
Y02060347D02*
D03*
X04001022Y01760682D02*
D03*
Y01823675D02*
D03*
X04543213Y02628587D02*
D03*
Y02691579D02*
D03*
X04110509Y02323066D02*
D03*
Y02386058D02*
D03*
X04609756Y02628587D02*
D03*
Y02691579D02*
D03*
X04477064D02*
D03*
Y02628587D02*
D03*
X03793022Y02193874D02*
D03*
Y02256866D02*
D03*
X05875922Y02007229D02*
D03*
Y02070221D02*
D03*
X05933093Y02071186D02*
D03*
Y02008194D02*
D03*
X06169288Y02349169D02*
D03*
Y02412161D02*
D03*
X06677685Y01898119D02*
D03*
Y01961111D02*
D03*
X05944782Y02398302D02*
D03*
Y0233531D02*
D03*
X05801616Y01823675D02*
D03*
Y01760682D02*
D03*
X05713616Y02060347D02*
D03*
Y02123339D02*
D03*
X05801106D02*
D03*
Y02060347D02*
D03*
X05713616Y01760682D02*
D03*
Y01823675D02*
D03*
X06255807Y02628587D02*
D03*
Y02691579D02*
D03*
X05823103Y02323066D02*
D03*
Y02386058D02*
D03*
X0632235Y02628587D02*
D03*
Y02691579D02*
D03*
X06189658D02*
D03*
Y02628587D02*
D03*
X05505616Y02193874D02*
D03*
Y02256866D02*
D03*
X07588516Y02007229D02*
D03*
Y02070221D02*
D03*
X07645687Y02071186D02*
D03*
Y02008194D02*
D03*
X07881882Y02349169D02*
D03*
Y02412161D02*
D03*
X08390279Y01898119D02*
D03*
Y01961111D02*
D03*
X07657376Y02398302D02*
D03*
Y0233531D02*
D03*
X0751421Y01823675D02*
D03*
Y01760682D02*
D03*
X0742621Y02060347D02*
D03*
Y02123339D02*
D03*
X075137D02*
D03*
Y02060347D02*
D03*
X0742621Y01760682D02*
D03*
Y01823675D02*
D03*
X07968401Y02628587D02*
D03*
Y02691579D02*
D03*
X07535697Y02323066D02*
D03*
Y02386058D02*
D03*
X08034944Y02628587D02*
D03*
Y02691579D02*
D03*
X07902252D02*
D03*
Y02628587D02*
D03*
X0721821Y02193874D02*
D03*
Y02256866D02*
D03*
X0073814Y03645035D02*
D03*
Y03708028D02*
D03*
X00795311Y03708992D02*
D03*
Y03646D02*
D03*
X01031506Y03986975D02*
D03*
Y04049967D02*
D03*
X01539903Y03535925D02*
D03*
Y03598918D02*
D03*
X00807Y04036109D02*
D03*
Y03973117D02*
D03*
X00663834Y03461481D02*
D03*
Y03398489D02*
D03*
X00575834Y03698153D02*
D03*
Y03761145D02*
D03*
X00663324D02*
D03*
Y03698153D02*
D03*
X00575834Y03398489D02*
D03*
Y03461481D02*
D03*
X01118025Y04266393D02*
D03*
Y04329385D02*
D03*
X00685321Y03960872D02*
D03*
Y04023864D02*
D03*
X01184568Y04266393D02*
D03*
Y04329385D02*
D03*
X01051876D02*
D03*
Y04266393D02*
D03*
X00367834Y03831681D02*
D03*
Y03894673D02*
D03*
X02450734Y03645035D02*
D03*
Y03708028D02*
D03*
X02507905Y03708992D02*
D03*
Y03646D02*
D03*
X027441Y03986975D02*
D03*
Y04049967D02*
D03*
X03252497Y03535925D02*
D03*
Y03598918D02*
D03*
X02519594Y04036109D02*
D03*
Y03973117D02*
D03*
X02376428Y03461481D02*
D03*
Y03398489D02*
D03*
X02288428Y03698153D02*
D03*
Y03761145D02*
D03*
X02375918D02*
D03*
Y03698153D02*
D03*
X02288428Y03398489D02*
D03*
Y03461481D02*
D03*
X02830619Y04266393D02*
D03*
Y04329385D02*
D03*
X02397915Y03960872D02*
D03*
Y04023864D02*
D03*
X02897162Y04266393D02*
D03*
Y04329385D02*
D03*
X0276447D02*
D03*
Y04266393D02*
D03*
X02080428Y03831681D02*
D03*
Y03894673D02*
D03*
X04163328Y03645035D02*
D03*
Y03708028D02*
D03*
X04220499Y03708992D02*
D03*
Y03646D02*
D03*
X04456694Y03986975D02*
D03*
Y04049967D02*
D03*
X04965091Y03535925D02*
D03*
Y03598918D02*
D03*
X04232188Y04036109D02*
D03*
Y03973117D02*
D03*
X04089022Y03461481D02*
D03*
Y03398489D02*
D03*
X04001022Y03698153D02*
D03*
Y03761145D02*
D03*
X04088512D02*
D03*
Y03698153D02*
D03*
X04001022Y03398489D02*
D03*
Y03461481D02*
D03*
X04543213Y04266393D02*
D03*
Y04329385D02*
D03*
X04110509Y03960872D02*
D03*
Y04023864D02*
D03*
X04609756Y04266393D02*
D03*
Y04329385D02*
D03*
X04477064D02*
D03*
Y04266393D02*
D03*
X03793022Y03831681D02*
D03*
Y03894673D02*
D03*
X05875922Y03645035D02*
D03*
Y03708028D02*
D03*
X05933093Y03708992D02*
D03*
Y03646D02*
D03*
X06169288Y03986975D02*
D03*
Y04049967D02*
D03*
X06677685Y03535925D02*
D03*
Y03598918D02*
D03*
X05944782Y04036109D02*
D03*
Y03973117D02*
D03*
X05801616Y03461481D02*
D03*
Y03398489D02*
D03*
X05713616Y03698153D02*
D03*
Y03761145D02*
D03*
X05801106D02*
D03*
Y03698153D02*
D03*
X05713616Y03398489D02*
D03*
Y03461481D02*
D03*
X06255807Y04266393D02*
D03*
Y04329385D02*
D03*
X05823103Y03960872D02*
D03*
Y04023864D02*
D03*
X0632235Y04266393D02*
D03*
Y04329385D02*
D03*
X06189658D02*
D03*
Y04266393D02*
D03*
X05505616Y03831681D02*
D03*
Y03894673D02*
D03*
X07588516Y03645035D02*
D03*
Y03708028D02*
D03*
X07645687Y03708992D02*
D03*
Y03646D02*
D03*
X07881882Y03986975D02*
D03*
Y04049967D02*
D03*
X08390279Y03535925D02*
D03*
Y03598918D02*
D03*
X07657376Y04036109D02*
D03*
Y03973117D02*
D03*
X0751421Y03461481D02*
D03*
Y03398489D02*
D03*
X0742621Y03698153D02*
D03*
Y03761145D02*
D03*
X075137D02*
D03*
Y03698153D02*
D03*
X0742621Y03398489D02*
D03*
Y03461481D02*
D03*
X07968401Y04266393D02*
D03*
Y04329385D02*
D03*
X07535697Y03960872D02*
D03*
Y04023864D02*
D03*
X08034944Y04266393D02*
D03*
Y04329385D02*
D03*
X07902252D02*
D03*
Y04266393D02*
D03*
X0721821Y03831681D02*
D03*
Y03894673D02*
D03*
X0073814Y05282842D02*
D03*
Y05345834D02*
D03*
X00795311Y05346799D02*
D03*
Y05283807D02*
D03*
X01031506Y05624782D02*
D03*
Y05687774D02*
D03*
X01539903Y05173732D02*
D03*
Y05236724D02*
D03*
X00807Y05673915D02*
D03*
Y05610923D02*
D03*
X00663834Y05099287D02*
D03*
Y05036295D02*
D03*
X00575834Y05335959D02*
D03*
Y05398952D02*
D03*
X00663324D02*
D03*
Y05335959D02*
D03*
X00575834Y05036295D02*
D03*
Y05099287D02*
D03*
X01118025Y059042D02*
D03*
Y05967192D02*
D03*
X00685321Y05598678D02*
D03*
Y05661671D02*
D03*
X01184568Y059042D02*
D03*
Y05967192D02*
D03*
X01051876D02*
D03*
Y059042D02*
D03*
X00367834Y05469487D02*
D03*
Y05532479D02*
D03*
X02450734Y05282842D02*
D03*
Y05345834D02*
D03*
X02507905Y05346799D02*
D03*
Y05283807D02*
D03*
X027441Y05624782D02*
D03*
Y05687774D02*
D03*
X03252497Y05173732D02*
D03*
Y05236724D02*
D03*
X02519594Y05673915D02*
D03*
Y05610923D02*
D03*
X02376428Y05099287D02*
D03*
Y05036295D02*
D03*
X02288428Y05335959D02*
D03*
Y05398952D02*
D03*
X02375918D02*
D03*
Y05335959D02*
D03*
X02288428Y05036295D02*
D03*
Y05099287D02*
D03*
X02830619Y059042D02*
D03*
Y05967192D02*
D03*
X02397915Y05598678D02*
D03*
Y05661671D02*
D03*
X02897162Y059042D02*
D03*
Y05967192D02*
D03*
X0276447D02*
D03*
Y059042D02*
D03*
X02080428Y05469487D02*
D03*
Y05532479D02*
D03*
X04163328Y05282842D02*
D03*
Y05345834D02*
D03*
X04220499Y05346799D02*
D03*
Y05283807D02*
D03*
X04456694Y05624782D02*
D03*
Y05687774D02*
D03*
X04965091Y05173732D02*
D03*
Y05236724D02*
D03*
X04232188Y05673915D02*
D03*
Y05610923D02*
D03*
X04089022Y05099287D02*
D03*
Y05036295D02*
D03*
X04001022Y05335959D02*
D03*
Y05398952D02*
D03*
X04088512D02*
D03*
Y05335959D02*
D03*
X04001022Y05036295D02*
D03*
Y05099287D02*
D03*
X04543213Y059042D02*
D03*
Y05967192D02*
D03*
X04110509Y05598678D02*
D03*
Y05661671D02*
D03*
X04609756Y059042D02*
D03*
Y05967192D02*
D03*
X04477064D02*
D03*
Y059042D02*
D03*
X03793022Y05469487D02*
D03*
Y05532479D02*
D03*
X05875922Y05282842D02*
D03*
Y05345834D02*
D03*
X05933093Y05346799D02*
D03*
Y05283807D02*
D03*
X06169288Y05624782D02*
D03*
Y05687774D02*
D03*
X06677685Y05173732D02*
D03*
Y05236724D02*
D03*
X05944782Y05673915D02*
D03*
Y05610923D02*
D03*
X05801616Y05099287D02*
D03*
Y05036295D02*
D03*
X05713616Y05335959D02*
D03*
Y05398952D02*
D03*
X05801106D02*
D03*
Y05335959D02*
D03*
X05713616Y05036295D02*
D03*
Y05099287D02*
D03*
X06255807Y059042D02*
D03*
Y05967192D02*
D03*
X05823103Y05598678D02*
D03*
Y05661671D02*
D03*
X0632235Y059042D02*
D03*
Y05967192D02*
D03*
X06189658D02*
D03*
Y059042D02*
D03*
X05505616Y05469487D02*
D03*
Y05532479D02*
D03*
X07588516Y05282842D02*
D03*
Y05345834D02*
D03*
X07645687Y05346799D02*
D03*
Y05283807D02*
D03*
X07881882Y05624782D02*
D03*
Y05687774D02*
D03*
X08390279Y05173732D02*
D03*
Y05236724D02*
D03*
X07657376Y05673915D02*
D03*
Y05610923D02*
D03*
X0751421Y05099287D02*
D03*
Y05036295D02*
D03*
X0742621Y05335959D02*
D03*
Y05398952D02*
D03*
X075137D02*
D03*
Y05335959D02*
D03*
X0742621Y05036295D02*
D03*
Y05099287D02*
D03*
X07968401Y059042D02*
D03*
Y05967192D02*
D03*
X07535697Y05598678D02*
D03*
Y05661671D02*
D03*
X08034944Y059042D02*
D03*
Y05967192D02*
D03*
X07902252D02*
D03*
Y059042D02*
D03*
X0721821Y05469487D02*
D03*
Y05532479D02*
D03*
D15*
X00757858Y00224843D02*
D03*
X00832858D02*
D03*
X0115755Y00693276D02*
D03*
X0108255D02*
D03*
X012925Y00588D02*
D03*
X012175D02*
D03*
X01592482Y00323305D02*
D03*
X01667482D02*
D03*
X01464903Y00570519D02*
D03*
X01539903D02*
D03*
X00879824Y00558983D02*
D03*
X00954824D02*
D03*
X02470452Y00224843D02*
D03*
X02545452D02*
D03*
X02870144Y00693276D02*
D03*
X02795144D02*
D03*
X03005094Y00588D02*
D03*
X02930094D02*
D03*
X03305076Y00323305D02*
D03*
X03380076D02*
D03*
X03177497Y00570519D02*
D03*
X03252497D02*
D03*
X02592418Y00558983D02*
D03*
X02667418D02*
D03*
X04183046Y00224843D02*
D03*
X04258046D02*
D03*
X04582738Y00693276D02*
D03*
X04507738D02*
D03*
X04717688Y00588D02*
D03*
X04642688D02*
D03*
X0501767Y00323305D02*
D03*
X0509267D02*
D03*
X04890091Y00570519D02*
D03*
X04965091D02*
D03*
X04305012Y00558983D02*
D03*
X04380012D02*
D03*
X0589564Y00224843D02*
D03*
X0597064D02*
D03*
X06295332Y00693276D02*
D03*
X06220332D02*
D03*
X06430282Y00588D02*
D03*
X06355282D02*
D03*
X06730264Y00323305D02*
D03*
X06805264D02*
D03*
X06602685Y00570519D02*
D03*
X06677685D02*
D03*
X06017606Y00558983D02*
D03*
X06092606D02*
D03*
X07608234Y00224843D02*
D03*
X07683234D02*
D03*
X08007926Y00693276D02*
D03*
X07932926D02*
D03*
X08142876Y00588D02*
D03*
X08067876D02*
D03*
X08442858Y00323305D02*
D03*
X08517858D02*
D03*
X08315279Y00570519D02*
D03*
X08390279D02*
D03*
X077302Y00558983D02*
D03*
X078052D02*
D03*
X00757858Y01862649D02*
D03*
X00832858D02*
D03*
X0115755Y02331083D02*
D03*
X0108255D02*
D03*
X012925Y02225807D02*
D03*
X012175D02*
D03*
X01592482Y01961111D02*
D03*
X01667482D02*
D03*
X01464903Y02208325D02*
D03*
X01539903D02*
D03*
X00879824Y02196789D02*
D03*
X00954824D02*
D03*
X02470452Y01862649D02*
D03*
X02545452D02*
D03*
X02870144Y02331083D02*
D03*
X02795144D02*
D03*
X03005094Y02225807D02*
D03*
X02930094D02*
D03*
X03305076Y01961111D02*
D03*
X03380076D02*
D03*
X03177497Y02208325D02*
D03*
X03252497D02*
D03*
X02592418Y02196789D02*
D03*
X02667418D02*
D03*
X04183046Y01862649D02*
D03*
X04258046D02*
D03*
X04582738Y02331083D02*
D03*
X04507738D02*
D03*
X04717688Y02225807D02*
D03*
X04642688D02*
D03*
X0501767Y01961111D02*
D03*
X0509267D02*
D03*
X04890091Y02208325D02*
D03*
X04965091D02*
D03*
X04305012Y02196789D02*
D03*
X04380012D02*
D03*
X0589564Y01862649D02*
D03*
X0597064D02*
D03*
X06295332Y02331083D02*
D03*
X06220332D02*
D03*
X06430282Y02225807D02*
D03*
X06355282D02*
D03*
X06730264Y01961111D02*
D03*
X06805264D02*
D03*
X06602685Y02208325D02*
D03*
X06677685D02*
D03*
X06017606Y02196789D02*
D03*
X06092606D02*
D03*
X07608234Y01862649D02*
D03*
X07683234D02*
D03*
X08007926Y02331083D02*
D03*
X07932926D02*
D03*
X08142876Y02225807D02*
D03*
X08067876D02*
D03*
X08442858Y01961111D02*
D03*
X08517858D02*
D03*
X08315279Y02208325D02*
D03*
X08390279D02*
D03*
X077302Y02196789D02*
D03*
X078052D02*
D03*
X00757858Y03500455D02*
D03*
X00832858D02*
D03*
X0115755Y03968889D02*
D03*
X0108255D02*
D03*
X012925Y03863613D02*
D03*
X012175D02*
D03*
X01592482Y03598918D02*
D03*
X01667482D02*
D03*
X01464903Y03846132D02*
D03*
X01539903D02*
D03*
X00879824Y03834596D02*
D03*
X00954824D02*
D03*
X02470452Y03500455D02*
D03*
X02545452D02*
D03*
X02870144Y03968889D02*
D03*
X02795144D02*
D03*
X03005094Y03863613D02*
D03*
X02930094D02*
D03*
X03305076Y03598918D02*
D03*
X03380076D02*
D03*
X03177497Y03846132D02*
D03*
X03252497D02*
D03*
X02592418Y03834596D02*
D03*
X02667418D02*
D03*
X04183046Y03500455D02*
D03*
X04258046D02*
D03*
X04582738Y03968889D02*
D03*
X04507738D02*
D03*
X04717688Y03863613D02*
D03*
X04642688D02*
D03*
X0501767Y03598918D02*
D03*
X0509267D02*
D03*
X04890091Y03846132D02*
D03*
X04965091D02*
D03*
X04305012Y03834596D02*
D03*
X04380012D02*
D03*
X0589564Y03500455D02*
D03*
X0597064D02*
D03*
X06295332Y03968889D02*
D03*
X06220332D02*
D03*
X06430282Y03863613D02*
D03*
X06355282D02*
D03*
X06730264Y03598918D02*
D03*
X06805264D02*
D03*
X06602685Y03846132D02*
D03*
X06677685D02*
D03*
X06017606Y03834596D02*
D03*
X06092606D02*
D03*
X07608234Y03500455D02*
D03*
X07683234D02*
D03*
X08007926Y03968889D02*
D03*
X07932926D02*
D03*
X08142876Y03863613D02*
D03*
X08067876D02*
D03*
X08442858Y03598918D02*
D03*
X08517858D02*
D03*
X08315279Y03846132D02*
D03*
X08390279D02*
D03*
X077302Y03834596D02*
D03*
X078052D02*
D03*
X00757858Y05138262D02*
D03*
X00832858D02*
D03*
X0115755Y05606695D02*
D03*
X0108255D02*
D03*
X012925Y05501419D02*
D03*
X012175D02*
D03*
X01592482Y05236724D02*
D03*
X01667482D02*
D03*
X01464903Y05483938D02*
D03*
X01539903D02*
D03*
X00879824Y05472402D02*
D03*
X00954824D02*
D03*
X02470452Y05138262D02*
D03*
X02545452D02*
D03*
X02870144Y05606695D02*
D03*
X02795144D02*
D03*
X03005094Y05501419D02*
D03*
X02930094D02*
D03*
X03305076Y05236724D02*
D03*
X03380076D02*
D03*
X03177497Y05483938D02*
D03*
X03252497D02*
D03*
X02592418Y05472402D02*
D03*
X02667418D02*
D03*
X04183046Y05138262D02*
D03*
X04258046D02*
D03*
X04582738Y05606695D02*
D03*
X04507738D02*
D03*
X04717688Y05501419D02*
D03*
X04642688D02*
D03*
X0501767Y05236724D02*
D03*
X0509267D02*
D03*
X04890091Y05483938D02*
D03*
X04965091D02*
D03*
X04305012Y05472402D02*
D03*
X04380012D02*
D03*
X0589564Y05138262D02*
D03*
X0597064D02*
D03*
X06295332Y05606695D02*
D03*
X06220332D02*
D03*
X06430282Y05501419D02*
D03*
X06355282D02*
D03*
X06730264Y05236724D02*
D03*
X06805264D02*
D03*
X06602685Y05483938D02*
D03*
X06677685D02*
D03*
X06017606Y05472402D02*
D03*
X06092606D02*
D03*
X07608234Y05138262D02*
D03*
X07683234D02*
D03*
X08007926Y05606695D02*
D03*
X07932926D02*
D03*
X08142876Y05501419D02*
D03*
X08067876D02*
D03*
X08442858Y05236724D02*
D03*
X08517858D02*
D03*
X08315279Y05483938D02*
D03*
X08390279D02*
D03*
X077302Y05472402D02*
D03*
X078052D02*
D03*
D16*
X00795858Y00304843D02*
D03*
X0111955Y00613276D02*
D03*
X012555Y00668D02*
D03*
X01630482Y00403305D02*
D03*
X01501903Y00490519D02*
D03*
X00917824Y00638983D02*
D03*
X02508452Y00304843D02*
D03*
X02832144Y00613276D02*
D03*
X02968094Y00668D02*
D03*
X03343076Y00403305D02*
D03*
X03214497Y00490519D02*
D03*
X02630418Y00638983D02*
D03*
X04221046Y00304843D02*
D03*
X04544738Y00613276D02*
D03*
X04680688Y00668D02*
D03*
X0505567Y00403305D02*
D03*
X04927091Y00490519D02*
D03*
X04343012Y00638983D02*
D03*
X0593364Y00304843D02*
D03*
X06257332Y00613276D02*
D03*
X06393282Y00668D02*
D03*
X06768264Y00403305D02*
D03*
X06639685Y00490519D02*
D03*
X06055606Y00638983D02*
D03*
X07646234Y00304843D02*
D03*
X07969926Y00613276D02*
D03*
X08105876Y00668D02*
D03*
X08480858Y00403305D02*
D03*
X08352279Y00490519D02*
D03*
X077682Y00638983D02*
D03*
X00795858Y01942649D02*
D03*
X0111955Y02251083D02*
D03*
X012555Y02305807D02*
D03*
X01630482Y02041111D02*
D03*
X01501903Y02128325D02*
D03*
X00917824Y02276789D02*
D03*
X02508452Y01942649D02*
D03*
X02832144Y02251083D02*
D03*
X02968094Y02305807D02*
D03*
X03343076Y02041111D02*
D03*
X03214497Y02128325D02*
D03*
X02630418Y02276789D02*
D03*
X04221046Y01942649D02*
D03*
X04544738Y02251083D02*
D03*
X04680688Y02305807D02*
D03*
X0505567Y02041111D02*
D03*
X04927091Y02128325D02*
D03*
X04343012Y02276789D02*
D03*
X0593364Y01942649D02*
D03*
X06257332Y02251083D02*
D03*
X06393282Y02305807D02*
D03*
X06768264Y02041111D02*
D03*
X06639685Y02128325D02*
D03*
X06055606Y02276789D02*
D03*
X07646234Y01942649D02*
D03*
X07969926Y02251083D02*
D03*
X08105876Y02305807D02*
D03*
X08480858Y02041111D02*
D03*
X08352279Y02128325D02*
D03*
X077682Y02276789D02*
D03*
X00795858Y03580455D02*
D03*
X0111955Y03888889D02*
D03*
X012555Y03943613D02*
D03*
X01630482Y03678918D02*
D03*
X01501903Y03766132D02*
D03*
X00917824Y03914596D02*
D03*
X02508452Y03580455D02*
D03*
X02832144Y03888889D02*
D03*
X02968094Y03943613D02*
D03*
X03343076Y03678918D02*
D03*
X03214497Y03766132D02*
D03*
X02630418Y03914596D02*
D03*
X04221046Y03580455D02*
D03*
X04544738Y03888889D02*
D03*
X04680688Y03943613D02*
D03*
X0505567Y03678918D02*
D03*
X04927091Y03766132D02*
D03*
X04343012Y03914596D02*
D03*
X0593364Y03580455D02*
D03*
X06257332Y03888889D02*
D03*
X06393282Y03943613D02*
D03*
X06768264Y03678918D02*
D03*
X06639685Y03766132D02*
D03*
X06055606Y03914596D02*
D03*
X07646234Y03580455D02*
D03*
X07969926Y03888889D02*
D03*
X08105876Y03943613D02*
D03*
X08480858Y03678918D02*
D03*
X08352279Y03766132D02*
D03*
X077682Y03914596D02*
D03*
X00795858Y05218262D02*
D03*
X0111955Y05526695D02*
D03*
X012555Y05581419D02*
D03*
X01630482Y05316724D02*
D03*
X01501903Y05403938D02*
D03*
X00917824Y05552402D02*
D03*
X02508452Y05218262D02*
D03*
X02832144Y05526695D02*
D03*
X02968094Y05581419D02*
D03*
X03343076Y05316724D02*
D03*
X03214497Y05403938D02*
D03*
X02630418Y05552402D02*
D03*
X04221046Y05218262D02*
D03*
X04544738Y05526695D02*
D03*
X04680688Y05581419D02*
D03*
X0505567Y05316724D02*
D03*
X04927091Y05403938D02*
D03*
X04343012Y05552402D02*
D03*
X0593364Y05218262D02*
D03*
X06257332Y05526695D02*
D03*
X06393282Y05581419D02*
D03*
X06768264Y05316724D02*
D03*
X06639685Y05403938D02*
D03*
X06055606Y05552402D02*
D03*
X07646234Y05218262D02*
D03*
X07969926Y05526695D02*
D03*
X08105876Y05581419D02*
D03*
X08480858Y05316724D02*
D03*
X08352279Y05403938D02*
D03*
X077682Y05552402D02*
D03*
D17*
X01348086Y00374387D02*
D03*
Y00217718D02*
D03*
X0306068Y00374387D02*
D03*
Y00217718D02*
D03*
X04773274Y00374387D02*
D03*
Y00217718D02*
D03*
X06485868Y00374387D02*
D03*
Y00217718D02*
D03*
X08198462Y00374387D02*
D03*
Y00217718D02*
D03*
X01348086Y02012194D02*
D03*
Y01855524D02*
D03*
X0306068Y02012194D02*
D03*
Y01855524D02*
D03*
X04773274Y02012194D02*
D03*
Y01855524D02*
D03*
X06485868Y02012194D02*
D03*
Y01855524D02*
D03*
X08198462Y02012194D02*
D03*
Y01855524D02*
D03*
X01348086Y0365D02*
D03*
Y03493331D02*
D03*
X0306068Y0365D02*
D03*
Y03493331D02*
D03*
X04773274Y0365D02*
D03*
Y03493331D02*
D03*
X06485868Y0365D02*
D03*
Y03493331D02*
D03*
X08198462Y0365D02*
D03*
Y03493331D02*
D03*
X01348086Y05287807D02*
D03*
Y05131137D02*
D03*
X0306068Y05287807D02*
D03*
Y05131137D02*
D03*
X04773274Y05287807D02*
D03*
Y05131137D02*
D03*
X06485868Y05287807D02*
D03*
Y05131137D02*
D03*
X08198462Y05287807D02*
D03*
Y05131137D02*
D03*
D18*
X00492834Y00428965D02*
D03*
Y00353965D02*
D03*
X00405834Y00126122D02*
D03*
Y00201122D02*
D03*
X02205428Y00428965D02*
D03*
Y00353965D02*
D03*
X02118428Y00126122D02*
D03*
Y00201122D02*
D03*
X03918022Y00428965D02*
D03*
Y00353965D02*
D03*
X03831022Y00126122D02*
D03*
Y00201122D02*
D03*
X05630616Y00428965D02*
D03*
Y00353965D02*
D03*
X05543616Y00126122D02*
D03*
Y00201122D02*
D03*
X0734321Y00428965D02*
D03*
Y00353965D02*
D03*
X0725621Y00126122D02*
D03*
Y00201122D02*
D03*
X00492834Y02066771D02*
D03*
Y01991771D02*
D03*
X00405834Y01763928D02*
D03*
Y01838928D02*
D03*
X02205428Y02066771D02*
D03*
Y01991771D02*
D03*
X02118428Y01763928D02*
D03*
Y01838928D02*
D03*
X03918022Y02066771D02*
D03*
Y01991771D02*
D03*
X03831022Y01763928D02*
D03*
Y01838928D02*
D03*
X05630616Y02066771D02*
D03*
Y01991771D02*
D03*
X05543616Y01763928D02*
D03*
Y01838928D02*
D03*
X0734321Y02066771D02*
D03*
Y01991771D02*
D03*
X0725621Y01763928D02*
D03*
Y01838928D02*
D03*
X00492834Y03704577D02*
D03*
Y03629577D02*
D03*
X00405834Y03401735D02*
D03*
Y03476735D02*
D03*
X02205428Y03704577D02*
D03*
Y03629577D02*
D03*
X02118428Y03401735D02*
D03*
Y03476735D02*
D03*
X03918022Y03704577D02*
D03*
Y03629577D02*
D03*
X03831022Y03401735D02*
D03*
Y03476735D02*
D03*
X05630616Y03704577D02*
D03*
Y03629577D02*
D03*
X05543616Y03401735D02*
D03*
Y03476735D02*
D03*
X0734321Y03704577D02*
D03*
Y03629577D02*
D03*
X0725621Y03401735D02*
D03*
Y03476735D02*
D03*
X00492834Y05342384D02*
D03*
Y05267384D02*
D03*
X00405834Y05039541D02*
D03*
Y05114541D02*
D03*
X02205428Y05342384D02*
D03*
Y05267384D02*
D03*
X02118428Y05039541D02*
D03*
Y05114541D02*
D03*
X03918022Y05342384D02*
D03*
Y05267384D02*
D03*
X03831022Y05039541D02*
D03*
Y05114541D02*
D03*
X05630616Y05342384D02*
D03*
Y05267384D02*
D03*
X05543616Y05039541D02*
D03*
Y05114541D02*
D03*
X0734321Y05342384D02*
D03*
Y05267384D02*
D03*
X0725621Y05039541D02*
D03*
Y05114541D02*
D03*
D19*
X00412834Y00391965D02*
D03*
X00485834Y00163122D02*
D03*
X02125428Y00391965D02*
D03*
X02198428Y00163122D02*
D03*
X03838022Y00391965D02*
D03*
X03911022Y00163122D02*
D03*
X05550616Y00391965D02*
D03*
X05623616Y00163122D02*
D03*
X0726321Y00391965D02*
D03*
X0733621Y00163122D02*
D03*
X00412834Y02029771D02*
D03*
X00485834Y01800928D02*
D03*
X02125428Y02029771D02*
D03*
X02198428Y01800928D02*
D03*
X03838022Y02029771D02*
D03*
X03911022Y01800928D02*
D03*
X05550616Y02029771D02*
D03*
X05623616Y01800928D02*
D03*
X0726321Y02029771D02*
D03*
X0733621Y01800928D02*
D03*
X00412834Y03667577D02*
D03*
X00485834Y03438735D02*
D03*
X02125428Y03667577D02*
D03*
X02198428Y03438735D02*
D03*
X03838022Y03667577D02*
D03*
X03911022Y03438735D02*
D03*
X05550616Y03667577D02*
D03*
X05623616Y03438735D02*
D03*
X0726321Y03667577D02*
D03*
X0733621Y03438735D02*
D03*
X00412834Y05305384D02*
D03*
X00485834Y05076541D02*
D03*
X02125428Y05305384D02*
D03*
X02198428Y05076541D02*
D03*
X03838022Y05305384D02*
D03*
X03911022Y05076541D02*
D03*
X05550616Y05305384D02*
D03*
X05623616Y05076541D02*
D03*
X0726321Y05305384D02*
D03*
X0733621Y05076541D02*
D03*
D20*
X01641886Y00234551D02*
D03*
Y00086913D02*
D03*
X0335448Y00234551D02*
D03*
Y00086913D02*
D03*
X05067074Y00234551D02*
D03*
Y00086913D02*
D03*
X06779668Y00234551D02*
D03*
Y00086913D02*
D03*
X08492262Y00234551D02*
D03*
Y00086913D02*
D03*
X01641886Y01872357D02*
D03*
Y01724719D02*
D03*
X0335448Y01872357D02*
D03*
Y01724719D02*
D03*
X05067074Y01872357D02*
D03*
Y01724719D02*
D03*
X06779668Y01872357D02*
D03*
Y01724719D02*
D03*
X08492262Y01872357D02*
D03*
Y01724719D02*
D03*
X01641886Y03510164D02*
D03*
Y03362526D02*
D03*
X0335448Y03510164D02*
D03*
Y03362526D02*
D03*
X05067074Y03510164D02*
D03*
Y03362526D02*
D03*
X06779668Y03510164D02*
D03*
Y03362526D02*
D03*
X08492262Y03510164D02*
D03*
Y03362526D02*
D03*
X01641886Y0514797D02*
D03*
Y05000332D02*
D03*
X0335448Y0514797D02*
D03*
Y05000332D02*
D03*
X05067074Y0514797D02*
D03*
Y05000332D02*
D03*
X06779668Y0514797D02*
D03*
Y05000332D02*
D03*
X08492262Y0514797D02*
D03*
Y05000332D02*
D03*
D21*
X01317716Y00086886D02*
D03*
X01431889D02*
D03*
X0303031D02*
D03*
X03144483D02*
D03*
X04742904D02*
D03*
X04857077D02*
D03*
X06455498D02*
D03*
X06569671D02*
D03*
X08168092D02*
D03*
X08282265D02*
D03*
X01317716Y01724692D02*
D03*
X01431889D02*
D03*
X0303031D02*
D03*
X03144483D02*
D03*
X04742904D02*
D03*
X04857077D02*
D03*
X06455498D02*
D03*
X06569671D02*
D03*
X08168092D02*
D03*
X08282265D02*
D03*
X01317716Y03362499D02*
D03*
X01431889D02*
D03*
X0303031D02*
D03*
X03144483D02*
D03*
X04742904D02*
D03*
X04857077D02*
D03*
X06455498D02*
D03*
X06569671D02*
D03*
X08168092D02*
D03*
X08282265D02*
D03*
X01317716Y05000305D02*
D03*
X01431889D02*
D03*
X0303031D02*
D03*
X03144483D02*
D03*
X04742904D02*
D03*
X04857077D02*
D03*
X06455498D02*
D03*
X06569671D02*
D03*
X08168092D02*
D03*
X08282265D02*
D03*
D22*
X00746501Y00740142D02*
D03*
Y00814945D02*
D03*
X02459095Y00740142D02*
D03*
Y00814945D02*
D03*
X04171689Y00740142D02*
D03*
Y00814945D02*
D03*
X05884283Y00740142D02*
D03*
Y00814945D02*
D03*
X07596877Y00740142D02*
D03*
Y00814945D02*
D03*
X00746501Y02377948D02*
D03*
Y02452751D02*
D03*
X02459095Y02377948D02*
D03*
Y02452751D02*
D03*
X04171689Y02377948D02*
D03*
Y02452751D02*
D03*
X05884283Y02377948D02*
D03*
Y02452751D02*
D03*
X07596877Y02377948D02*
D03*
Y02452751D02*
D03*
X00746501Y04015755D02*
D03*
Y04090558D02*
D03*
X02459095Y04015755D02*
D03*
Y04090558D02*
D03*
X04171689Y04015755D02*
D03*
Y04090558D02*
D03*
X05884283Y04015755D02*
D03*
Y04090558D02*
D03*
X07596877Y04015755D02*
D03*
Y04090558D02*
D03*
X00746501Y05653561D02*
D03*
Y05728364D02*
D03*
X02459095Y05653561D02*
D03*
Y05728364D02*
D03*
X04171689Y05653561D02*
D03*
Y05728364D02*
D03*
X05884283Y05653561D02*
D03*
Y05728364D02*
D03*
X07596877Y05653561D02*
D03*
Y05728364D02*
D03*
D23*
X00320849Y00692003D02*
D03*
X00352344D02*
D03*
X00383841D02*
D03*
X00415337D02*
D03*
X00446833D02*
D03*
X00478329D02*
D03*
X00509825D02*
D03*
X00541321D02*
D03*
X00572817D02*
D03*
X00604293D02*
D03*
X00320849Y00904003D02*
D03*
X00352344D02*
D03*
X00383841D02*
D03*
X00415337D02*
D03*
X00446833D02*
D03*
X00478329D02*
D03*
X00509825D02*
D03*
X00541321D02*
D03*
X00572817D02*
D03*
X02033443Y00692003D02*
D03*
X02064938D02*
D03*
X02096435D02*
D03*
X02127931D02*
D03*
X02159427D02*
D03*
X02190923D02*
D03*
X02222419D02*
D03*
X02253915D02*
D03*
X02285411D02*
D03*
X02316887D02*
D03*
X02033443Y00904003D02*
D03*
X02064939D02*
D03*
X02096435D02*
D03*
X02127931D02*
D03*
X02159427D02*
D03*
X02190923D02*
D03*
X02222419D02*
D03*
X02253915D02*
D03*
X02285411D02*
D03*
X03746037Y00692003D02*
D03*
X03777532D02*
D03*
X03809029D02*
D03*
X03840525D02*
D03*
X03872021D02*
D03*
X03903517D02*
D03*
X03935013D02*
D03*
X03966509D02*
D03*
X03998005D02*
D03*
X04029481D02*
D03*
X03746037Y00904003D02*
D03*
X03777532D02*
D03*
X03809029D02*
D03*
X03840525D02*
D03*
X03872021D02*
D03*
X03903517D02*
D03*
X03935013D02*
D03*
X03966509D02*
D03*
X03998005D02*
D03*
X05458631Y00692003D02*
D03*
X05490126D02*
D03*
X05521623D02*
D03*
X05553119D02*
D03*
X05584615D02*
D03*
X05616111D02*
D03*
X05647607D02*
D03*
X05679103D02*
D03*
X05710599D02*
D03*
X05742075D02*
D03*
X05458631Y00904003D02*
D03*
X05490127D02*
D03*
X05521623D02*
D03*
X05553119D02*
D03*
X05584615D02*
D03*
X05616111D02*
D03*
X05647607D02*
D03*
X05679103D02*
D03*
X05710599D02*
D03*
X07171225Y00692003D02*
D03*
X0720272D02*
D03*
X07234217D02*
D03*
X07265713D02*
D03*
X07297209D02*
D03*
X07328705D02*
D03*
X07360201D02*
D03*
X07391697D02*
D03*
X07423193D02*
D03*
X07454669D02*
D03*
X07171225Y00904003D02*
D03*
X07202721D02*
D03*
X07234217D02*
D03*
X07265713D02*
D03*
X07297209D02*
D03*
X07328705D02*
D03*
X07360201D02*
D03*
X07391697D02*
D03*
X07423193D02*
D03*
X00320849Y02329809D02*
D03*
X00352344D02*
D03*
X00383841D02*
D03*
X00415337D02*
D03*
X00446833D02*
D03*
X00478329D02*
D03*
X00509825D02*
D03*
X00541321D02*
D03*
X00572817D02*
D03*
X00604293D02*
D03*
X00320849Y02541809D02*
D03*
X00352344D02*
D03*
X00383841D02*
D03*
X00415337D02*
D03*
X00446833D02*
D03*
X00478329D02*
D03*
X00509825D02*
D03*
X00541321D02*
D03*
X00572817D02*
D03*
X02033443Y02329809D02*
D03*
X02064938D02*
D03*
X02096435D02*
D03*
X02127931D02*
D03*
X02159427D02*
D03*
X02190923D02*
D03*
X02222419D02*
D03*
X02253915D02*
D03*
X02285411D02*
D03*
X02316887D02*
D03*
X02033443Y02541809D02*
D03*
X02064939D02*
D03*
X02096435D02*
D03*
X02127931D02*
D03*
X02159427D02*
D03*
X02190923D02*
D03*
X02222419D02*
D03*
X02253915D02*
D03*
X02285411D02*
D03*
X03746037Y02329809D02*
D03*
X03777532D02*
D03*
X03809029D02*
D03*
X03840525D02*
D03*
X03872021D02*
D03*
X03903517D02*
D03*
X03935013D02*
D03*
X03966509D02*
D03*
X03998005D02*
D03*
X04029481D02*
D03*
X03746037Y02541809D02*
D03*
X03777532D02*
D03*
X03809029D02*
D03*
X03840525D02*
D03*
X03872021D02*
D03*
X03903517D02*
D03*
X03935013D02*
D03*
X03966509D02*
D03*
X03998005D02*
D03*
X05458631Y02329809D02*
D03*
X05490126D02*
D03*
X05521623D02*
D03*
X05553119D02*
D03*
X05584615D02*
D03*
X05616111D02*
D03*
X05647607D02*
D03*
X05679103D02*
D03*
X05710599D02*
D03*
X05742075D02*
D03*
X05458631Y02541809D02*
D03*
X05490127D02*
D03*
X05521623D02*
D03*
X05553119D02*
D03*
X05584615D02*
D03*
X05616111D02*
D03*
X05647607D02*
D03*
X05679103D02*
D03*
X05710599D02*
D03*
X07171225Y02329809D02*
D03*
X0720272D02*
D03*
X07234217D02*
D03*
X07265713D02*
D03*
X07297209D02*
D03*
X07328705D02*
D03*
X07360201D02*
D03*
X07391697D02*
D03*
X07423193D02*
D03*
X07454669D02*
D03*
X07171225Y02541809D02*
D03*
X07202721D02*
D03*
X07234217D02*
D03*
X07265713D02*
D03*
X07297209D02*
D03*
X07328705D02*
D03*
X07360201D02*
D03*
X07391697D02*
D03*
X07423193D02*
D03*
X00320849Y03967616D02*
D03*
X00352344D02*
D03*
X00383841D02*
D03*
X00415337D02*
D03*
X00446833D02*
D03*
X00478329D02*
D03*
X00509825D02*
D03*
X00541321D02*
D03*
X00572817D02*
D03*
X00604293D02*
D03*
X00320849Y04179616D02*
D03*
X00352344D02*
D03*
X00383841D02*
D03*
X00415337D02*
D03*
X00446833D02*
D03*
X00478329D02*
D03*
X00509825D02*
D03*
X00541321D02*
D03*
X00572817D02*
D03*
X02033443Y03967616D02*
D03*
X02064938D02*
D03*
X02096435D02*
D03*
X02127931D02*
D03*
X02159427D02*
D03*
X02190923D02*
D03*
X02222419D02*
D03*
X02253915D02*
D03*
X02285411D02*
D03*
X02316887D02*
D03*
X02033443Y04179616D02*
D03*
X02064939D02*
D03*
X02096435D02*
D03*
X02127931D02*
D03*
X02159427D02*
D03*
X02190923D02*
D03*
X02222419D02*
D03*
X02253915D02*
D03*
X02285411D02*
D03*
X03746037Y03967616D02*
D03*
X03777532D02*
D03*
X03809029D02*
D03*
X03840525D02*
D03*
X03872021D02*
D03*
X03903517D02*
D03*
X03935013D02*
D03*
X03966509D02*
D03*
X03998005D02*
D03*
X04029481D02*
D03*
X03746037Y04179616D02*
D03*
X03777532D02*
D03*
X03809029D02*
D03*
X03840525D02*
D03*
X03872021D02*
D03*
X03903517D02*
D03*
X03935013D02*
D03*
X03966509D02*
D03*
X03998005D02*
D03*
X05458631Y03967616D02*
D03*
X05490126D02*
D03*
X05521623D02*
D03*
X05553119D02*
D03*
X05584615D02*
D03*
X05616111D02*
D03*
X05647607D02*
D03*
X05679103D02*
D03*
X05710599D02*
D03*
X05742075D02*
D03*
X05458631Y04179616D02*
D03*
X05490127D02*
D03*
X05521623D02*
D03*
X05553119D02*
D03*
X05584615D02*
D03*
X05616111D02*
D03*
X05647607D02*
D03*
X05679103D02*
D03*
X05710599D02*
D03*
X07171225Y03967616D02*
D03*
X0720272D02*
D03*
X07234217D02*
D03*
X07265713D02*
D03*
X07297209D02*
D03*
X07328705D02*
D03*
X07360201D02*
D03*
X07391697D02*
D03*
X07423193D02*
D03*
X07454669D02*
D03*
X07171225Y04179616D02*
D03*
X07202721D02*
D03*
X07234217D02*
D03*
X07265713D02*
D03*
X07297209D02*
D03*
X07328705D02*
D03*
X07360201D02*
D03*
X07391697D02*
D03*
X07423193D02*
D03*
X00320849Y05605422D02*
D03*
X00352344D02*
D03*
X00383841D02*
D03*
X00415337D02*
D03*
X00446833D02*
D03*
X00478329D02*
D03*
X00509825D02*
D03*
X00541321D02*
D03*
X00572817D02*
D03*
X00604293D02*
D03*
X00320849Y05817422D02*
D03*
X00352344D02*
D03*
X00383841D02*
D03*
X00415337D02*
D03*
X00446833D02*
D03*
X00478329D02*
D03*
X00509825D02*
D03*
X00541321D02*
D03*
X00572817D02*
D03*
X02033443Y05605422D02*
D03*
X02064938D02*
D03*
X02096435D02*
D03*
X02127931D02*
D03*
X02159427D02*
D03*
X02190923D02*
D03*
X02222419D02*
D03*
X02253915D02*
D03*
X02285411D02*
D03*
X02316887D02*
D03*
X02033443Y05817422D02*
D03*
X02064939D02*
D03*
X02096435D02*
D03*
X02127931D02*
D03*
X02159427D02*
D03*
X02190923D02*
D03*
X02222419D02*
D03*
X02253915D02*
D03*
X02285411D02*
D03*
X03746037Y05605422D02*
D03*
X03777532D02*
D03*
X03809029D02*
D03*
X03840525D02*
D03*
X03872021D02*
D03*
X03903517D02*
D03*
X03935013D02*
D03*
X03966509D02*
D03*
X03998005D02*
D03*
X04029481D02*
D03*
X03746037Y05817422D02*
D03*
X03777532D02*
D03*
X03809029D02*
D03*
X03840525D02*
D03*
X03872021D02*
D03*
X03903517D02*
D03*
X03935013D02*
D03*
X03966509D02*
D03*
X03998005D02*
D03*
X05458631Y05605422D02*
D03*
X05490126D02*
D03*
X05521623D02*
D03*
X05553119D02*
D03*
X05584615D02*
D03*
X05616111D02*
D03*
X05647607D02*
D03*
X05679103D02*
D03*
X05710599D02*
D03*
X05742075D02*
D03*
X05458631Y05817422D02*
D03*
X05490127D02*
D03*
X05521623D02*
D03*
X05553119D02*
D03*
X05584615D02*
D03*
X05616111D02*
D03*
X05647607D02*
D03*
X05679103D02*
D03*
X05710599D02*
D03*
X07171225Y05605422D02*
D03*
X0720272D02*
D03*
X07234217D02*
D03*
X07265713D02*
D03*
X07297209D02*
D03*
X07328705D02*
D03*
X07360201D02*
D03*
X07391697D02*
D03*
X07423193D02*
D03*
X07454669D02*
D03*
X07171225Y05817422D02*
D03*
X07202721D02*
D03*
X07234217D02*
D03*
X07265713D02*
D03*
X07297209D02*
D03*
X07328705D02*
D03*
X07360201D02*
D03*
X07391697D02*
D03*
X07423193D02*
D03*
D24*
X00604293Y00904003D02*
D03*
X02316887D02*
D03*
X04029481D02*
D03*
X05742075D02*
D03*
X07454669D02*
D03*
X00604293Y02541809D02*
D03*
X02316887D02*
D03*
X04029481D02*
D03*
X05742075D02*
D03*
X07454669D02*
D03*
X00604293Y04179616D02*
D03*
X02316887D02*
D03*
X04029481D02*
D03*
X05742075D02*
D03*
X07454669D02*
D03*
X00604293Y05817422D02*
D03*
X02316887D02*
D03*
X04029481D02*
D03*
X05742075D02*
D03*
X07454669D02*
D03*
D41*
X00912858Y00229386D02*
D03*
X0119879Y00359307D02*
D03*
X01041309Y00489228D02*
D03*
X0119879D02*
D03*
X01041309Y00359307D02*
D03*
Y00229386D02*
D03*
X0119879D02*
D03*
Y00099465D02*
D03*
X01041309D02*
D03*
X02625452Y00229386D02*
D03*
X02911384Y00359307D02*
D03*
X02753903Y00489228D02*
D03*
X02911384D02*
D03*
X02753903Y00359307D02*
D03*
Y00229386D02*
D03*
X02911384D02*
D03*
Y00099465D02*
D03*
X02753903D02*
D03*
X04338046Y00229386D02*
D03*
X04623978Y00359307D02*
D03*
X04466497Y00489228D02*
D03*
X04623978D02*
D03*
X04466497Y00359307D02*
D03*
Y00229386D02*
D03*
X04623978D02*
D03*
Y00099465D02*
D03*
X04466497D02*
D03*
X0605064Y00229386D02*
D03*
X06336572Y00359307D02*
D03*
X06179091Y00489228D02*
D03*
X06336572D02*
D03*
X06179091Y00359307D02*
D03*
Y00229386D02*
D03*
X06336572D02*
D03*
Y00099465D02*
D03*
X06179091D02*
D03*
X07763234Y00229386D02*
D03*
X08049166Y00359307D02*
D03*
X07891685Y00489228D02*
D03*
X08049166D02*
D03*
X07891685Y00359307D02*
D03*
Y00229386D02*
D03*
X08049166D02*
D03*
Y00099465D02*
D03*
X07891685D02*
D03*
X00912858Y01867192D02*
D03*
X0119879Y01997113D02*
D03*
X01041309Y02127035D02*
D03*
X0119879D02*
D03*
X01041309Y01997113D02*
D03*
Y01867192D02*
D03*
X0119879D02*
D03*
Y01737271D02*
D03*
X01041309D02*
D03*
X02625452Y01867192D02*
D03*
X02911384Y01997113D02*
D03*
X02753903Y02127035D02*
D03*
X02911384D02*
D03*
X02753903Y01997113D02*
D03*
Y01867192D02*
D03*
X02911384D02*
D03*
Y01737271D02*
D03*
X02753903D02*
D03*
X04338046Y01867192D02*
D03*
X04623978Y01997113D02*
D03*
X04466497Y02127035D02*
D03*
X04623978D02*
D03*
X04466497Y01997113D02*
D03*
Y01867192D02*
D03*
X04623978D02*
D03*
Y01737271D02*
D03*
X04466497D02*
D03*
X0605064Y01867192D02*
D03*
X06336572Y01997113D02*
D03*
X06179091Y02127035D02*
D03*
X06336572D02*
D03*
X06179091Y01997113D02*
D03*
Y01867192D02*
D03*
X06336572D02*
D03*
Y01737271D02*
D03*
X06179091D02*
D03*
X07763234Y01867192D02*
D03*
X08049166Y01997113D02*
D03*
X07891685Y02127035D02*
D03*
X08049166D02*
D03*
X07891685Y01997113D02*
D03*
Y01867192D02*
D03*
X08049166D02*
D03*
Y01737271D02*
D03*
X07891685D02*
D03*
X00912858Y03504999D02*
D03*
X0119879Y0363492D02*
D03*
X01041309Y03764841D02*
D03*
X0119879D02*
D03*
X01041309Y0363492D02*
D03*
Y03504999D02*
D03*
X0119879D02*
D03*
Y03375077D02*
D03*
X01041309D02*
D03*
X02625452Y03504999D02*
D03*
X02911384Y0363492D02*
D03*
X02753903Y03764841D02*
D03*
X02911384D02*
D03*
X02753903Y0363492D02*
D03*
Y03504999D02*
D03*
X02911384D02*
D03*
Y03375077D02*
D03*
X02753903D02*
D03*
X04338046Y03504999D02*
D03*
X04623978Y0363492D02*
D03*
X04466497Y03764841D02*
D03*
X04623978D02*
D03*
X04466497Y0363492D02*
D03*
Y03504999D02*
D03*
X04623978D02*
D03*
Y03375077D02*
D03*
X04466497D02*
D03*
X0605064Y03504999D02*
D03*
X06336572Y0363492D02*
D03*
X06179091Y03764841D02*
D03*
X06336572D02*
D03*
X06179091Y0363492D02*
D03*
Y03504999D02*
D03*
X06336572D02*
D03*
Y03375077D02*
D03*
X06179091D02*
D03*
X07763234Y03504999D02*
D03*
X08049166Y0363492D02*
D03*
X07891685Y03764841D02*
D03*
X08049166D02*
D03*
X07891685Y0363492D02*
D03*
Y03504999D02*
D03*
X08049166D02*
D03*
Y03375077D02*
D03*
X07891685D02*
D03*
X00912858Y05142805D02*
D03*
X0119879Y05272726D02*
D03*
X01041309Y05402648D02*
D03*
X0119879D02*
D03*
X01041309Y05272726D02*
D03*
Y05142805D02*
D03*
X0119879D02*
D03*
Y05012884D02*
D03*
X01041309D02*
D03*
X02625452Y05142805D02*
D03*
X02911384Y05272726D02*
D03*
X02753903Y05402648D02*
D03*
X02911384D02*
D03*
X02753903Y05272726D02*
D03*
Y05142805D02*
D03*
X02911384D02*
D03*
Y05012884D02*
D03*
X02753903D02*
D03*
X04338046Y05142805D02*
D03*
X04623978Y05272726D02*
D03*
X04466497Y05402648D02*
D03*
X04623978D02*
D03*
X04466497Y05272726D02*
D03*
Y05142805D02*
D03*
X04623978D02*
D03*
Y05012884D02*
D03*
X04466497D02*
D03*
X0605064Y05142805D02*
D03*
X06336572Y05272726D02*
D03*
X06179091Y05402648D02*
D03*
X06336572D02*
D03*
X06179091Y05272726D02*
D03*
Y05142805D02*
D03*
X06336572D02*
D03*
Y05012884D02*
D03*
X06179091D02*
D03*
X07763234Y05142805D02*
D03*
X08049166Y05272726D02*
D03*
X07891685Y05402648D02*
D03*
X08049166D02*
D03*
X07891685Y05272726D02*
D03*
Y05142805D02*
D03*
X08049166D02*
D03*
Y05012884D02*
D03*
X07891685D02*
D03*
D42*
X00912858Y00099465D02*
D03*
X02625452D02*
D03*
X04338046D02*
D03*
X0605064D02*
D03*
X07763234D02*
D03*
X00912858Y01737271D02*
D03*
X02625452D02*
D03*
X04338046D02*
D03*
X0605064D02*
D03*
X07763234D02*
D03*
X00912858Y03375077D02*
D03*
X02625452D02*
D03*
X04338046D02*
D03*
X0605064D02*
D03*
X07763234D02*
D03*
X00912858Y05012884D02*
D03*
X02625452D02*
D03*
X04338046D02*
D03*
X0605064D02*
D03*
X07763234D02*
D03*
D43*
X01352057Y008779D02*
D03*
X03064651D02*
D03*
X04777245D02*
D03*
X06489839D02*
D03*
X08202433D02*
D03*
X01352057Y02515706D02*
D03*
X03064651D02*
D03*
X04777245D02*
D03*
X06489839D02*
D03*
X08202433D02*
D03*
X01352057Y04153512D02*
D03*
X03064651D02*
D03*
X04777245D02*
D03*
X06489839D02*
D03*
X08202433D02*
D03*
X01352057Y05791319D02*
D03*
X03064651D02*
D03*
X04777245D02*
D03*
X06489839D02*
D03*
X08202433D02*
D03*
D44*
X01352057Y0095664D02*
D03*
X03064651D02*
D03*
X04777245D02*
D03*
X06489839D02*
D03*
X08202433D02*
D03*
X01352057Y02594446D02*
D03*
X03064651D02*
D03*
X04777245D02*
D03*
X06489839D02*
D03*
X08202433D02*
D03*
X01352057Y04232253D02*
D03*
X03064651D02*
D03*
X04777245D02*
D03*
X06489839D02*
D03*
X08202433D02*
D03*
X01352057Y05870059D02*
D03*
X03064651D02*
D03*
X04777245D02*
D03*
X06489839D02*
D03*
X08202433D02*
D03*
D45*
X01648071Y01134614D02*
D03*
X01548086D02*
D03*
X01448086D02*
D03*
X01348086D02*
D03*
X00248086D02*
D03*
X00148086D02*
D03*
X00048086D02*
D03*
X00856299Y00956801D02*
D03*
X00956299D02*
D03*
X00756299D02*
D03*
X03360665Y01134614D02*
D03*
X0326068D02*
D03*
X0316068D02*
D03*
X0306068D02*
D03*
X0196068D02*
D03*
X0186068D02*
D03*
X0176068D02*
D03*
X02568893Y00956801D02*
D03*
X02668893D02*
D03*
X02468893D02*
D03*
X05073259Y01134614D02*
D03*
X04973274D02*
D03*
X04873274D02*
D03*
X04773274D02*
D03*
X03673274D02*
D03*
X03573274D02*
D03*
X03473274D02*
D03*
X04281487Y00956801D02*
D03*
X04381487D02*
D03*
X04181487D02*
D03*
X06785853Y01134614D02*
D03*
X06685868D02*
D03*
X06585868D02*
D03*
X06485868D02*
D03*
X05385868D02*
D03*
X05285868D02*
D03*
X05185868D02*
D03*
X05994081Y00956801D02*
D03*
X06094081D02*
D03*
X05894081D02*
D03*
X08498447Y01134614D02*
D03*
X08398462D02*
D03*
X08298462D02*
D03*
X08198462D02*
D03*
X07098462D02*
D03*
X06998462D02*
D03*
X06898462D02*
D03*
X07706675Y00956801D02*
D03*
X07806675D02*
D03*
X07606675D02*
D03*
X01648071Y02772421D02*
D03*
X01548086D02*
D03*
X01448086D02*
D03*
X01348086D02*
D03*
X00248086D02*
D03*
X00148086D02*
D03*
X00048086D02*
D03*
X00856299Y02594608D02*
D03*
X00956299D02*
D03*
X00756299D02*
D03*
X03360665Y02772421D02*
D03*
X0326068D02*
D03*
X0316068D02*
D03*
X0306068D02*
D03*
X0196068D02*
D03*
X0186068D02*
D03*
X0176068D02*
D03*
X02568893Y02594608D02*
D03*
X02668893D02*
D03*
X02468893D02*
D03*
X05073259Y02772421D02*
D03*
X04973274D02*
D03*
X04873274D02*
D03*
X04773274D02*
D03*
X03673274D02*
D03*
X03573274D02*
D03*
X03473274D02*
D03*
X04281487Y02594608D02*
D03*
X04381487D02*
D03*
X04181487D02*
D03*
X06785853Y02772421D02*
D03*
X06685868D02*
D03*
X06585868D02*
D03*
X06485868D02*
D03*
X05385868D02*
D03*
X05285868D02*
D03*
X05185868D02*
D03*
X05994081Y02594608D02*
D03*
X06094081D02*
D03*
X05894081D02*
D03*
X08498447Y02772421D02*
D03*
X08398462D02*
D03*
X08298462D02*
D03*
X08198462D02*
D03*
X07098462D02*
D03*
X06998462D02*
D03*
X06898462D02*
D03*
X07706675Y02594608D02*
D03*
X07806675D02*
D03*
X07606675D02*
D03*
X01648071Y04410227D02*
D03*
X01548086D02*
D03*
X01448086D02*
D03*
X01348086D02*
D03*
X00248086D02*
D03*
X00148086D02*
D03*
X00048086D02*
D03*
X00856299Y04232414D02*
D03*
X00956299D02*
D03*
X00756299D02*
D03*
X03360665Y04410227D02*
D03*
X0326068D02*
D03*
X0316068D02*
D03*
X0306068D02*
D03*
X0196068D02*
D03*
X0186068D02*
D03*
X0176068D02*
D03*
X02568893Y04232414D02*
D03*
X02668893D02*
D03*
X02468893D02*
D03*
X05073259Y04410227D02*
D03*
X04973274D02*
D03*
X04873274D02*
D03*
X04773274D02*
D03*
X03673274D02*
D03*
X03573274D02*
D03*
X03473274D02*
D03*
X04281487Y04232414D02*
D03*
X04381487D02*
D03*
X04181487D02*
D03*
X06785853Y04410227D02*
D03*
X06685868D02*
D03*
X06585868D02*
D03*
X06485868D02*
D03*
X05385868D02*
D03*
X05285868D02*
D03*
X05185868D02*
D03*
X05994081Y04232414D02*
D03*
X06094081D02*
D03*
X05894081D02*
D03*
X08498447Y04410227D02*
D03*
X08398462D02*
D03*
X08298462D02*
D03*
X08198462D02*
D03*
X07098462D02*
D03*
X06998462D02*
D03*
X06898462D02*
D03*
X07706675Y04232414D02*
D03*
X07806675D02*
D03*
X07606675D02*
D03*
X01648071Y06048034D02*
D03*
X01548086D02*
D03*
X01448086D02*
D03*
X01348086D02*
D03*
X00248086D02*
D03*
X00148086D02*
D03*
X00048086D02*
D03*
X00856299Y05870221D02*
D03*
X00956299D02*
D03*
X00756299D02*
D03*
X03360665Y06048034D02*
D03*
X0326068D02*
D03*
X0316068D02*
D03*
X0306068D02*
D03*
X0196068D02*
D03*
X0186068D02*
D03*
X0176068D02*
D03*
X02568893Y05870221D02*
D03*
X02668893D02*
D03*
X02468893D02*
D03*
X05073259Y06048034D02*
D03*
X04973274D02*
D03*
X04873274D02*
D03*
X04773274D02*
D03*
X03673274D02*
D03*
X03573274D02*
D03*
X03473274D02*
D03*
X04281487Y05870221D02*
D03*
X04381487D02*
D03*
X04181487D02*
D03*
X06785853Y06048034D02*
D03*
X06685868D02*
D03*
X06585868D02*
D03*
X06485868D02*
D03*
X05385868D02*
D03*
X05285868D02*
D03*
X05185868D02*
D03*
X05994081Y05870221D02*
D03*
X06094081D02*
D03*
X05894081D02*
D03*
X08498447Y06048034D02*
D03*
X08398462D02*
D03*
X08298462D02*
D03*
X08198462D02*
D03*
X07098462D02*
D03*
X06998462D02*
D03*
X06898462D02*
D03*
X07706675Y05870221D02*
D03*
X07806675D02*
D03*
X07606675D02*
D03*
D46*
X00348086Y01134614D02*
D03*
X0206068D02*
D03*
X03773274D02*
D03*
X05485868D02*
D03*
X07198462D02*
D03*
X00348086Y02772421D02*
D03*
X0206068D02*
D03*
X03773274D02*
D03*
X05485868D02*
D03*
X07198462D02*
D03*
X00348086Y04410227D02*
D03*
X0206068D02*
D03*
X03773274D02*
D03*
X05485868D02*
D03*
X07198462D02*
D03*
X00348086Y06048034D02*
D03*
X0206068D02*
D03*
X03773274D02*
D03*
X05485868D02*
D03*
X07198462D02*
D03*
D47*
X00336306Y01008564D02*
D03*
X00415046D02*
D03*
X00493786D02*
D03*
X020489D02*
D03*
X0212764D02*
D03*
X0220638D02*
D03*
X03761494D02*
D03*
X03840234D02*
D03*
X03918974D02*
D03*
X05474088D02*
D03*
X05552828D02*
D03*
X05631568D02*
D03*
X07186682D02*
D03*
X07265422D02*
D03*
X07344162D02*
D03*
X00336306Y0264637D02*
D03*
X00415046D02*
D03*
X00493786D02*
D03*
X020489D02*
D03*
X0212764D02*
D03*
X0220638D02*
D03*
X03761494D02*
D03*
X03840234D02*
D03*
X03918974D02*
D03*
X05474088D02*
D03*
X05552828D02*
D03*
X05631568D02*
D03*
X07186682D02*
D03*
X07265422D02*
D03*
X07344162D02*
D03*
X00336306Y04284177D02*
D03*
X00415046D02*
D03*
X00493786D02*
D03*
X020489D02*
D03*
X0212764D02*
D03*
X0220638D02*
D03*
X03761494D02*
D03*
X03840234D02*
D03*
X03918974D02*
D03*
X05474088D02*
D03*
X05552828D02*
D03*
X05631568D02*
D03*
X07186682D02*
D03*
X07265422D02*
D03*
X07344162D02*
D03*
X00336306Y05921983D02*
D03*
X00415046D02*
D03*
X00493786D02*
D03*
X020489D02*
D03*
X0212764D02*
D03*
X0220638D02*
D03*
X03761494D02*
D03*
X03840234D02*
D03*
X03918974D02*
D03*
X05474088D02*
D03*
X05552828D02*
D03*
X05631568D02*
D03*
X07186682D02*
D03*
X07265422D02*
D03*
X07344162D02*
D03*
D48*
X00572526Y01008564D02*
D03*
X0228512D02*
D03*
X03997714D02*
D03*
X05710308D02*
D03*
X07422902D02*
D03*
X00572526Y0264637D02*
D03*
X0228512D02*
D03*
X03997714D02*
D03*
X05710308D02*
D03*
X07422902D02*
D03*
X00572526Y04284177D02*
D03*
X0228512D02*
D03*
X03997714D02*
D03*
X05710308D02*
D03*
X07422902D02*
D03*
X00572526Y05921983D02*
D03*
X0228512D02*
D03*
X03997714D02*
D03*
X05710308D02*
D03*
X07422902D02*
D03*
D49*
X00385354Y01535827D02*
D03*
X0064126D02*
D03*
X00385354Y01358662D02*
D03*
X0064126D02*
D03*
X00767716Y01319295D02*
D03*
Y01575201D02*
D03*
X00944882Y01319295D02*
D03*
Y01575201D02*
D03*
X00081732Y01319291D02*
D03*
Y01575197D02*
D03*
X00258897Y01319291D02*
D03*
Y01575197D02*
D03*
X02097948Y01535827D02*
D03*
X02353854D02*
D03*
X02097948Y01358662D02*
D03*
X02353854D02*
D03*
X0248031Y01319295D02*
D03*
Y01575201D02*
D03*
X02657476Y01319295D02*
D03*
Y01575201D02*
D03*
X01794326Y01319291D02*
D03*
Y01575197D02*
D03*
X01971492Y01319291D02*
D03*
Y01575197D02*
D03*
X03810542Y01535827D02*
D03*
X04066448D02*
D03*
X03810542Y01358662D02*
D03*
X04066448D02*
D03*
X04192904Y01319295D02*
D03*
Y01575201D02*
D03*
X0437007Y01319295D02*
D03*
Y01575201D02*
D03*
X0350692Y01319291D02*
D03*
Y01575197D02*
D03*
X03684086Y01319291D02*
D03*
Y01575197D02*
D03*
X05523136Y01535827D02*
D03*
X05779042D02*
D03*
X05523136Y01358662D02*
D03*
X05779042D02*
D03*
X05905498Y01319295D02*
D03*
Y01575201D02*
D03*
X06082664Y01319295D02*
D03*
Y01575201D02*
D03*
X05219514Y01319291D02*
D03*
Y01575197D02*
D03*
X0539668Y01319291D02*
D03*
Y01575197D02*
D03*
X0723573Y01535827D02*
D03*
X07491636D02*
D03*
X0723573Y01358662D02*
D03*
X07491636D02*
D03*
X07618092Y01319295D02*
D03*
Y01575201D02*
D03*
X07795258Y01319295D02*
D03*
Y01575201D02*
D03*
X06932108Y01319291D02*
D03*
Y01575197D02*
D03*
X07109274Y01319291D02*
D03*
Y01575197D02*
D03*
X00385354Y03173633D02*
D03*
X0064126D02*
D03*
X00385354Y02996468D02*
D03*
X0064126D02*
D03*
X00767716Y02957102D02*
D03*
Y03213007D02*
D03*
X00944882Y02957102D02*
D03*
Y03213007D02*
D03*
X00081732Y02957098D02*
D03*
Y03213003D02*
D03*
X00258897Y02957098D02*
D03*
Y03213003D02*
D03*
X02097948Y03173633D02*
D03*
X02353854D02*
D03*
X02097948Y02996468D02*
D03*
X02353854D02*
D03*
X0248031Y02957102D02*
D03*
Y03213007D02*
D03*
X02657476Y02957102D02*
D03*
Y03213007D02*
D03*
X01794326Y02957098D02*
D03*
Y03213003D02*
D03*
X01971492Y02957098D02*
D03*
Y03213003D02*
D03*
X03810542Y03173633D02*
D03*
X04066448D02*
D03*
X03810542Y02996468D02*
D03*
X04066448D02*
D03*
X04192904Y02957102D02*
D03*
Y03213007D02*
D03*
X0437007Y02957102D02*
D03*
Y03213007D02*
D03*
X0350692Y02957098D02*
D03*
Y03213003D02*
D03*
X03684086Y02957098D02*
D03*
Y03213003D02*
D03*
X05523136Y03173633D02*
D03*
X05779042D02*
D03*
X05523136Y02996468D02*
D03*
X05779042D02*
D03*
X05905498Y02957102D02*
D03*
Y03213007D02*
D03*
X06082664Y02957102D02*
D03*
Y03213007D02*
D03*
X05219514Y02957098D02*
D03*
Y03213003D02*
D03*
X0539668Y02957098D02*
D03*
Y03213003D02*
D03*
X0723573Y03173633D02*
D03*
X07491636D02*
D03*
X0723573Y02996468D02*
D03*
X07491636D02*
D03*
X07618092Y02957102D02*
D03*
Y03213007D02*
D03*
X07795258Y02957102D02*
D03*
Y03213007D02*
D03*
X06932108Y02957098D02*
D03*
Y03213003D02*
D03*
X07109274Y02957098D02*
D03*
Y03213003D02*
D03*
X00385354Y0481144D02*
D03*
X0064126D02*
D03*
X00385354Y04634274D02*
D03*
X0064126D02*
D03*
X00767716Y04594908D02*
D03*
Y04850814D02*
D03*
X00944882Y04594908D02*
D03*
Y04850814D02*
D03*
X00081732Y04594904D02*
D03*
Y0485081D02*
D03*
X00258897Y04594904D02*
D03*
Y0485081D02*
D03*
X02097948Y0481144D02*
D03*
X02353854D02*
D03*
X02097948Y04634274D02*
D03*
X02353854D02*
D03*
X0248031Y04594908D02*
D03*
Y04850814D02*
D03*
X02657476Y04594908D02*
D03*
Y04850814D02*
D03*
X01794326Y04594904D02*
D03*
Y0485081D02*
D03*
X01971492Y04594904D02*
D03*
Y0485081D02*
D03*
X03810542Y0481144D02*
D03*
X04066448D02*
D03*
X03810542Y04634274D02*
D03*
X04066448D02*
D03*
X04192904Y04594908D02*
D03*
Y04850814D02*
D03*
X0437007Y04594908D02*
D03*
Y04850814D02*
D03*
X0350692Y04594904D02*
D03*
Y0485081D02*
D03*
X03684086Y04594904D02*
D03*
Y0485081D02*
D03*
X05523136Y0481144D02*
D03*
X05779042D02*
D03*
X05523136Y04634274D02*
D03*
X05779042D02*
D03*
X05905498Y04594908D02*
D03*
Y04850814D02*
D03*
X06082664Y04594908D02*
D03*
Y04850814D02*
D03*
X05219514Y04594904D02*
D03*
Y0485081D02*
D03*
X0539668Y04594904D02*
D03*
Y0485081D02*
D03*
X0723573Y0481144D02*
D03*
X07491636D02*
D03*
X0723573Y04634274D02*
D03*
X07491636D02*
D03*
X07618092Y04594908D02*
D03*
Y04850814D02*
D03*
X07795258Y04594908D02*
D03*
Y04850814D02*
D03*
X06932108Y04594904D02*
D03*
Y0485081D02*
D03*
X07109274Y04594904D02*
D03*
Y0485081D02*
D03*
X00385354Y06449246D02*
D03*
X0064126D02*
D03*
X00385354Y06272081D02*
D03*
X0064126D02*
D03*
X00767716Y06232714D02*
D03*
Y0648862D02*
D03*
X00944882Y06232714D02*
D03*
Y0648862D02*
D03*
X00081732Y06232711D02*
D03*
Y06488616D02*
D03*
X00258897Y06232711D02*
D03*
Y06488616D02*
D03*
X02097948Y06449246D02*
D03*
X02353854D02*
D03*
X02097948Y06272081D02*
D03*
X02353854D02*
D03*
X0248031Y06232714D02*
D03*
Y0648862D02*
D03*
X02657476Y06232714D02*
D03*
Y0648862D02*
D03*
X01794326Y06232711D02*
D03*
Y06488616D02*
D03*
X01971492Y06232711D02*
D03*
Y06488616D02*
D03*
X03810542Y06449246D02*
D03*
X04066448D02*
D03*
X03810542Y06272081D02*
D03*
X04066448D02*
D03*
X04192904Y06232714D02*
D03*
Y0648862D02*
D03*
X0437007Y06232714D02*
D03*
Y0648862D02*
D03*
X0350692Y06232711D02*
D03*
Y06488616D02*
D03*
X03684086Y06232711D02*
D03*
Y06488616D02*
D03*
X05523136Y06449246D02*
D03*
X05779042D02*
D03*
X05523136Y06272081D02*
D03*
X05779042D02*
D03*
X05905498Y06232714D02*
D03*
Y0648862D02*
D03*
X06082664Y06232714D02*
D03*
Y0648862D02*
D03*
X05219514Y06232711D02*
D03*
Y06488616D02*
D03*
X0539668Y06232711D02*
D03*
Y06488616D02*
D03*
X0723573Y06449246D02*
D03*
X07491636D02*
D03*
X0723573Y06272081D02*
D03*
X07491636D02*
D03*
X07618092Y06232714D02*
D03*
Y0648862D02*
D03*
X07795258Y06232714D02*
D03*
Y0648862D02*
D03*
X06932108Y06232711D02*
D03*
Y06488616D02*
D03*
X07109274Y06232711D02*
D03*
Y06488616D02*
D03*
D50*
X0006198Y01022277D02*
D03*
X01774574D02*
D03*
X03487168D02*
D03*
X05199762D02*
D03*
X06912356D02*
D03*
X0006198Y02660083D02*
D03*
X01774574D02*
D03*
X03487168D02*
D03*
X05199762D02*
D03*
X06912356D02*
D03*
X0006198Y04297889D02*
D03*
X01774574D02*
D03*
X03487168D02*
D03*
X05199762D02*
D03*
X06912356D02*
D03*
X0006198Y05935696D02*
D03*
X01774574D02*
D03*
X03487168D02*
D03*
X05199762D02*
D03*
X06912356D02*
D03*
M02*
