G04*
G04 #@! TF.GenerationSoftware,Altium Limited,Altium Designer,23.8.1 (32)*
G04*
G04 Layer_Color=32768*
%FSTAX26Y26*%
%MOIN*%
G70*
G04*
G04 #@! TF.SameCoordinates,353E1745-25BD-4490-98DE-B48524D5EC12*
G04*
G04*
G04 #@! TF.FilePolarity,Positive*
G04*
G01*
G75*
%ADD29C,0.010000*%
%ADD94R,0.007148X0.019161*%
G36*
X04996243Y07366038D02*
X04997445Y07365928D01*
X04998756Y0736571D01*
X05000287Y07365491D01*
X05001926Y07365163D01*
X05003675Y07364726D01*
X05005533Y0736418D01*
X05007391Y07363524D01*
X05009359Y0736265D01*
X05011217Y07361775D01*
X05012965Y07360682D01*
X05014824Y0735937D01*
X05016463Y0735795D01*
X05016572D01*
X05016682Y07357731D01*
X0501701Y07357403D01*
X05017337Y07357075D01*
X05017775Y07356529D01*
X05018212Y07355873D01*
X05019414Y07354343D01*
X05020616Y07352375D01*
X05021928Y07349971D01*
X0502313Y07347238D01*
X05024223Y07344069D01*
X0500914Y07340462D01*
Y07340571D01*
X05009031Y0734068D01*
Y07341008D01*
X05008812Y07341445D01*
X05008484Y07342429D01*
X05007938Y07343741D01*
X05007172Y07345271D01*
X05006189Y07346801D01*
X05004877Y07348331D01*
X05003456Y07349643D01*
X05003238Y07349752D01*
X05002691Y07350189D01*
X05001817Y07350736D01*
X05000614Y07351392D01*
X04999084Y07352047D01*
X04997336Y07352594D01*
X04995368Y07353031D01*
X04993182Y0735314D01*
X04992417D01*
X04991761Y07353031D01*
X04991105Y07352922D01*
X04990231Y07352812D01*
X04988373Y07352375D01*
X04986187Y0735161D01*
X04983892Y07350517D01*
X04982689Y07349861D01*
X04981596Y07349096D01*
X04980503Y07348113D01*
X0497952Y0734702D01*
Y0734691D01*
X04979301Y07346692D01*
X04979082Y07346364D01*
X04978755Y07345817D01*
X04978317Y07345162D01*
X0497788Y07344396D01*
X04977443Y07343413D01*
X04977006Y0734232D01*
X04976459Y07341008D01*
X04976022Y07339587D01*
X04975585Y07337948D01*
X04975148Y07336199D01*
X0497482Y07334231D01*
X04974601Y07332155D01*
X04974492Y07329859D01*
X04974382Y07327346D01*
Y07327236D01*
Y0732669D01*
Y07325925D01*
X04974492Y0732505D01*
Y07323848D01*
X0497471Y07322427D01*
X0497482Y07321006D01*
X04975038Y07319367D01*
X04975694Y07315978D01*
X04976569Y0731259D01*
X04977115Y07310951D01*
X0497788Y0730942D01*
X04978645Y07307999D01*
X0497952Y07306797D01*
X04979629Y07306688D01*
X04979738Y07306579D01*
X04980066Y07306251D01*
X04980503Y07305814D01*
X04981596Y07304939D01*
X04983127Y07303846D01*
X04984985Y07302644D01*
X0498728Y07301769D01*
X04989903Y07301004D01*
X04991324Y07300895D01*
X04992854Y07300786D01*
X04993401D01*
X04993838Y07300895D01*
X0499504Y07301004D01*
X04996461Y07301223D01*
X04997991Y07301769D01*
X0499974Y07302425D01*
X05001489Y073033D01*
X05003238Y07304611D01*
X05003456Y0730483D01*
X05004003Y07305376D01*
X05004768Y07306251D01*
X05005642Y07307562D01*
X05006735Y07309311D01*
X05007719Y07311388D01*
X05008703Y07313902D01*
X05009577Y07316853D01*
X05024442Y07312262D01*
Y07312153D01*
X05024333Y07311716D01*
X05024114Y0731106D01*
X05023786Y07310185D01*
X05023349Y07309202D01*
X05022912Y07307999D01*
X05022365Y07306688D01*
X05021709Y07305267D01*
X05020179Y07302316D01*
X05018212Y07299256D01*
X05015807Y07296304D01*
X05014496Y07294993D01*
X05013075Y07293791D01*
X05012965Y07293681D01*
X05012747Y07293572D01*
X0501231Y07293244D01*
X05011654Y07292807D01*
X05010889Y0729237D01*
X05009905Y07291932D01*
X05008812Y07291386D01*
X0500761Y07290839D01*
X05006189Y07290184D01*
X05004659Y07289637D01*
X05003019Y072892D01*
X0500127Y07288763D01*
X04999412Y07288325D01*
X04997336Y07287998D01*
X04995259Y07287888D01*
X04992963Y07287779D01*
X04992308D01*
X04991543Y07287888D01*
X0499045Y07287998D01*
X04989247Y07288107D01*
X04987717Y07288325D01*
X04986078Y07288653D01*
X0498422Y07289091D01*
X04982361Y07289637D01*
X04980394Y07290293D01*
X04978317Y07291167D01*
X04976241Y07292151D01*
X04974164Y07293244D01*
X04972087Y07294665D01*
X0497012Y07296195D01*
X04968262Y07298053D01*
X04968152Y07298163D01*
X04967824Y0729849D01*
X04967387Y07299146D01*
X04966731Y07299911D01*
X04966076Y07301004D01*
X04965201Y07302207D01*
X04964327Y07303737D01*
X04963453Y07305486D01*
X04962578Y07307344D01*
X04961704Y0730942D01*
X04960829Y07311825D01*
X04960173Y07314339D01*
X04959518Y07316962D01*
X04959081Y07319913D01*
X04958753Y07322974D01*
X04958643Y07326253D01*
Y07326362D01*
Y07326471D01*
Y07327127D01*
X04958753Y07328111D01*
Y07329422D01*
X04958971Y07330953D01*
X0495919Y07332811D01*
X04959408Y07334778D01*
X04959846Y07337073D01*
X04960392Y07339369D01*
X04961048Y07341773D01*
X04961813Y07344178D01*
X04962797Y07346692D01*
X0496389Y07349096D01*
X04965201Y07351392D01*
X04966622Y07353578D01*
X04968371Y07355654D01*
X0496848Y07355764D01*
X04968808Y07356092D01*
X04969355Y07356638D01*
X0497012Y07357294D01*
X04971104Y07358059D01*
X04972306Y07358933D01*
X04973617Y07359917D01*
X04975257Y07360901D01*
X04977006Y07361884D01*
X04978864Y07362868D01*
X0498105Y07363743D01*
X04983236Y07364508D01*
X0498575Y07365163D01*
X04988264Y0736571D01*
X04991105Y07366038D01*
X04993947Y07366147D01*
X04995259D01*
X04996243Y07366038D01*
D02*
G37*
G36*
X0495285Y07309311D02*
X04924323D01*
Y07323848D01*
X0495285D01*
Y07309311D01*
D02*
G37*
G36*
X04891533Y07289091D02*
X04875029D01*
X04847922Y07364726D01*
X04864427D01*
X04883663Y07308765D01*
X04902135Y07364726D01*
X04918421D01*
X04891533Y07289091D01*
D02*
G37*
G36*
X0508718D02*
X05073736D01*
Y07297288D01*
X05073627Y07297069D01*
X0507319Y07296523D01*
X05072534Y07295758D01*
X0507155Y07294774D01*
X05070457Y07293572D01*
X05069036Y07292479D01*
X05067506Y07291277D01*
X05065757Y07290293D01*
X05065539Y07290184D01*
X05064883Y07289965D01*
X05063899Y07289528D01*
X05062588Y07289091D01*
X05061057Y07288653D01*
X05059309Y07288216D01*
X0505745Y07287998D01*
X05055483Y07287888D01*
X05054499D01*
X05053516Y07287998D01*
X05052204Y07288216D01*
X05050565Y07288435D01*
X05048925Y07288872D01*
X05047176Y07289528D01*
X05045537Y07290293D01*
X05045318Y07290402D01*
X05044881Y0729073D01*
X05044007Y07291277D01*
X05043132Y07292042D01*
X05042039Y07293025D01*
X05041056Y07294118D01*
X05040072Y07295539D01*
X05039197Y07297069D01*
X05039088Y07297288D01*
X05038869Y07297835D01*
X05038542Y07298818D01*
X05038214Y07300239D01*
X05037886Y07301988D01*
X05037558Y07304065D01*
X05037339Y07306469D01*
X0503723Y07309202D01*
Y07343959D01*
X05051767D01*
Y07318711D01*
Y07318602D01*
Y07318164D01*
Y07317618D01*
Y07316853D01*
Y07315978D01*
Y07314995D01*
X05051876Y07312699D01*
X05051985Y07310185D01*
X05052095Y0730789D01*
X05052204Y07306907D01*
X05052313Y07305923D01*
X05052423Y07305158D01*
X05052532Y07304611D01*
Y07304502D01*
X05052641Y07304174D01*
X0505286Y07303737D01*
X05053188Y07303081D01*
X05053516Y07302425D01*
X05054062Y07301769D01*
X05054609Y07301114D01*
X05055374Y07300458D01*
X05055483Y07300349D01*
X05055811Y07300239D01*
X05056248Y07300021D01*
X05056904Y07299802D01*
X05057669Y07299474D01*
X05058653Y07299256D01*
X05059636Y07299146D01*
X05060839Y07299037D01*
X05061495D01*
X0506215Y07299146D01*
X05063025Y07299256D01*
X05064118Y07299474D01*
X05065211Y07299911D01*
X05066413Y07300349D01*
X05067506Y07301004D01*
X05067615Y07301114D01*
X05067943Y07301332D01*
X0506849Y07301769D01*
X05069146Y07302425D01*
X05069801Y0730319D01*
X05070457Y07303955D01*
X05071113Y07304939D01*
X0507155Y07306032D01*
Y07306141D01*
X05071769Y07306688D01*
Y07307125D01*
X05071878Y07307672D01*
X05071987Y07308218D01*
X05072097Y07308983D01*
X05072206Y07309967D01*
X05072315Y07310951D01*
X05072425Y07312153D01*
Y07313574D01*
X05072534Y07315104D01*
X05072643Y07316853D01*
Y07318711D01*
Y07320788D01*
Y07343959D01*
X0508718D01*
Y07289091D01*
D02*
G37*
G36*
X05117347Y07343959D02*
X05127293D01*
Y07332373D01*
X05117347D01*
Y07310185D01*
Y07310076D01*
Y07309858D01*
Y0730953D01*
Y07309092D01*
Y07307999D01*
Y07306688D01*
X05117456Y07305376D01*
Y07304065D01*
Y07303081D01*
X05117565Y07302644D01*
Y07302425D01*
X05117675Y07302207D01*
X05117893Y07301769D01*
X05118221Y07301223D01*
X05118877Y07300567D01*
X05119096Y07300458D01*
X05119533Y07300239D01*
X05120298Y07300021D01*
X05121282Y07299911D01*
X05121719D01*
X05122156Y07300021D01*
X05122812Y0730013D01*
X05123686Y07300239D01*
X0512467Y07300458D01*
X05125872Y07300786D01*
X05127184Y07301223D01*
X05128495Y07289965D01*
X05128386D01*
X05128277Y07289856D01*
X05127621Y07289637D01*
X05126528Y07289309D01*
X05125107Y07288981D01*
X05123468Y07288544D01*
X051215Y07288216D01*
X05119314Y07287998D01*
X05117019Y07287888D01*
X05116363D01*
X05115598Y07287998D01*
X05114614Y07288107D01*
X05113521Y07288216D01*
X05112319Y07288435D01*
X05111117Y07288763D01*
X05109914Y072892D01*
X05109805Y07289309D01*
X05109368Y07289418D01*
X05108822Y07289746D01*
X05108166Y07290074D01*
X05106636Y07291167D01*
X0510587Y07291823D01*
X05105215Y07292588D01*
X05105105Y07292698D01*
X05104996Y07293025D01*
X05104777Y07293463D01*
X05104449Y07294118D01*
X05104122Y07294883D01*
X05103794Y07295867D01*
X05103466Y0729696D01*
X05103247Y07298163D01*
Y07298272D01*
X05103138Y07298709D01*
Y07299365D01*
X05103029Y07300458D01*
X05102919Y07301879D01*
Y07303627D01*
X0510281Y07304611D01*
Y07305814D01*
Y07307016D01*
Y07308437D01*
Y07332373D01*
X05096143D01*
Y07343959D01*
X0510281D01*
Y07354889D01*
X05117347Y07363415D01*
Y07343959D01*
D02*
G37*
G36*
X03841158Y07372268D02*
X03826621D01*
Y07385712D01*
X03841158D01*
Y07372268D01*
D02*
G37*
G36*
X04447554Y07366038D02*
X04448757Y07365819D01*
X04450287Y07365491D01*
X04451926Y07364945D01*
X04453566Y07364289D01*
X04455315Y07363305D01*
X04450724Y07350736D01*
X04450615Y07350845D01*
X04450068Y07351064D01*
X04449412Y07351501D01*
X04448538Y07351938D01*
X04447445Y07352375D01*
X04446352Y07352812D01*
X0444515Y07353031D01*
X04443947Y0735314D01*
X0444351D01*
X04442854Y07353031D01*
X04442199Y07352922D01*
X04441434Y07352703D01*
X04440559Y07352375D01*
X04439685Y07351938D01*
X0443881Y07351392D01*
X04438701Y07351282D01*
X04438482Y07351064D01*
X04438045Y07350627D01*
X04437608Y07349971D01*
X04437061Y07349206D01*
X04436515Y07348113D01*
X04435968Y07346801D01*
X04435531Y07345271D01*
Y07345052D01*
X04435422Y07344724D01*
X04435313Y07344396D01*
Y0734385D01*
X04435203Y07343194D01*
X04435094Y0734232D01*
X04434985Y07341336D01*
X04434876Y07340243D01*
X04434766Y07338822D01*
X04434657Y07337401D01*
Y07335652D01*
X04434548Y07333794D01*
X04434438Y07331718D01*
Y07329422D01*
Y07326908D01*
Y07310076D01*
X04419901D01*
Y07364945D01*
X04433345D01*
Y07357185D01*
X04433455Y07357294D01*
X04433892Y0735795D01*
X04434548Y07358933D01*
X04435422Y07360136D01*
X04436296Y07361338D01*
X04437389Y0736254D01*
X04438373Y07363633D01*
X04439466Y07364398D01*
X04439575Y07364508D01*
X04439903Y07364726D01*
X04440559Y07364945D01*
X04441324Y07365273D01*
X04442199Y07365601D01*
X04443292Y07365928D01*
X04444385Y07366038D01*
X04445696Y07366147D01*
X04446571D01*
X04447554Y07366038D01*
D02*
G37*
G36*
X03795143D02*
X03796345Y07365928D01*
X03797657Y0736571D01*
X03799077Y07365382D01*
X03800608Y07364945D01*
X03802138Y07364398D01*
X03802356Y07364289D01*
X03802794Y0736407D01*
X03803559Y07363743D01*
X03804433Y07363196D01*
X03805417Y0736254D01*
X03806401Y07361775D01*
X03807384Y07360901D01*
X03808259Y07359917D01*
X03808368Y07359808D01*
X03808586Y0735948D01*
X03808914Y07358933D01*
X03809352Y07358168D01*
X03809898Y07357294D01*
X03810335Y07356201D01*
X03810773Y07355108D01*
X038111Y07353796D01*
Y07353687D01*
X0381121Y0735314D01*
X03811428Y07352375D01*
X03811538Y07351282D01*
X03811756Y07349971D01*
X03811865Y07348222D01*
X03811975Y07346364D01*
Y07344069D01*
Y07310076D01*
X03797438D01*
Y07337948D01*
Y07338057D01*
Y07338385D01*
Y07338822D01*
Y07339369D01*
Y07340134D01*
Y07340899D01*
X03797329Y07342757D01*
X03797219Y07344615D01*
X03797001Y07346582D01*
X03796782Y07348222D01*
X03796673Y07348878D01*
X03796454Y07349424D01*
Y07349533D01*
X03796236Y07349861D01*
X03796017Y07350299D01*
X03795689Y07350954D01*
X03794705Y07352266D01*
X03794159Y07352922D01*
X03793394Y07353468D01*
X03793285Y07353578D01*
X03793066Y07353687D01*
X03792629Y07353905D01*
X03791973Y07354233D01*
X03791208Y07354561D01*
X03790443Y0735478D01*
X03789459Y07354889D01*
X03788366Y07354998D01*
X0378771D01*
X03787054Y07354889D01*
X0378618Y0735478D01*
X03785087Y07354452D01*
X03783994Y07354124D01*
X03782792Y07353578D01*
X03781589Y07352922D01*
X0378148Y07352812D01*
X03781152Y07352594D01*
X03780606Y07352047D01*
X0377995Y07351501D01*
X03779294Y07350627D01*
X03778638Y07349752D01*
X03777983Y0734855D01*
X03777545Y07347347D01*
Y07347238D01*
X03777327Y07346692D01*
X03777217Y07345817D01*
X03776999Y07344506D01*
X0377689Y07343741D01*
X0377678Y07342757D01*
X03776671Y07341773D01*
Y07340571D01*
X03776562Y07339369D01*
X03776452Y07337948D01*
Y07336417D01*
Y07334778D01*
Y07310076D01*
X03761915D01*
Y07364945D01*
X03775359D01*
Y07356857D01*
X03775469Y07356966D01*
X03775687Y07357294D01*
X03776124Y07357731D01*
X03776671Y07358278D01*
X03777327Y07359043D01*
X03778201Y07359808D01*
X03779185Y07360682D01*
X03780278Y07361556D01*
X0378148Y07362322D01*
X03782901Y07363196D01*
X03784322Y07363961D01*
X03785961Y07364726D01*
X0378771Y07365273D01*
X03789459Y0736571D01*
X03791426Y07366038D01*
X03793394Y07366147D01*
X03794159D01*
X03795143Y07366038D01*
D02*
G37*
G36*
X03880943D02*
X03881818D01*
X03882801Y07365928D01*
X03883894Y07365819D01*
X03885097Y07365601D01*
X0388761Y07365054D01*
X03890234Y07364289D01*
X03892857Y07363196D01*
X03895261Y07361775D01*
X03895371D01*
X0389548Y07361556D01*
X03895808Y07361338D01*
X03896245Y0736101D01*
X03897229Y07360026D01*
X0389854Y07358605D01*
X03899961Y07356747D01*
X03901382Y07354561D01*
X03902694Y07351938D01*
X03903787Y07348878D01*
X03889468Y07346255D01*
Y07346473D01*
X03889359Y0734691D01*
X03889141Y07347675D01*
X03888813Y07348659D01*
X03888266Y07349643D01*
X0388772Y07350736D01*
X03886955Y0735172D01*
X0388608Y07352594D01*
X03885971Y07352703D01*
X03885643Y07352922D01*
X03885097Y0735325D01*
X03884331Y07353687D01*
X03883348Y07354124D01*
X03882255Y07354452D01*
X03880943Y07354671D01*
X03879522Y0735478D01*
X03879304D01*
X03878648Y07354671D01*
X03877664Y07354561D01*
X03876352Y07354343D01*
X03875041Y07353796D01*
X0387362Y0735314D01*
X03872199Y07352266D01*
X03870887Y07350954D01*
X03870778Y07350736D01*
X0387045Y07350189D01*
X03869904Y07349315D01*
X03869357Y07348003D01*
X03868702Y07346255D01*
X03868483Y07345271D01*
X03868264Y07344178D01*
X03868046Y07342866D01*
X03867827Y07341555D01*
X03867718Y07340024D01*
Y07338494D01*
Y07338385D01*
Y07338057D01*
Y07337511D01*
X03867827Y07336855D01*
Y0733609D01*
X03867936Y07335215D01*
X03868155Y07333029D01*
X03868483Y07330734D01*
X03869139Y07328439D01*
X03869904Y07326362D01*
X0387045Y07325488D01*
X03870997Y07324613D01*
X03871106Y07324395D01*
X03871653Y07323957D01*
X03872308Y07323411D01*
X03873292Y07322646D01*
X03874604Y07321881D01*
X03876025Y07321334D01*
X03877773Y07320897D01*
X03879741Y07320678D01*
X03880397D01*
X03881162Y07320788D01*
X03882145Y07321006D01*
X03883238Y07321225D01*
X03884331Y07321662D01*
X03885424Y07322208D01*
X03886517Y07322974D01*
X03886627Y07323083D01*
X03886955Y07323411D01*
X03887392Y07323957D01*
X03888048Y07324832D01*
X03888703Y07325925D01*
X0388925Y07327346D01*
X03889906Y07329094D01*
X03890343Y07331062D01*
X03904552Y07328657D01*
Y07328548D01*
X03904443Y0732822D01*
X03904333Y07327673D01*
X03904115Y07327018D01*
X03903787Y07326253D01*
X03903459Y07325269D01*
X03902584Y07323083D01*
X03901492Y07320678D01*
X03899961Y07318274D01*
X03898103Y07315869D01*
X0389701Y07314776D01*
X03895917Y07313792D01*
X03895808D01*
X03895589Y07313574D01*
X03895261Y07313355D01*
X03894824Y07313027D01*
X03894168Y07312699D01*
X03893403Y07312262D01*
X03892529Y07311825D01*
X03891436Y07311388D01*
X03890343Y07310841D01*
X03889031Y07310404D01*
X0388772Y07309967D01*
X03886189Y07309639D01*
X0388455Y07309311D01*
X03882801Y07309092D01*
X03881052Y07308983D01*
X03879085Y07308874D01*
X03877883D01*
X03877118Y07308983D01*
X03876134Y07309092D01*
X03874932Y07309311D01*
X0387362Y0730953D01*
X03872199Y07309858D01*
X03870669Y07310185D01*
X03869139Y07310732D01*
X03867499Y07311279D01*
X03865969Y07312044D01*
X03864329Y07312918D01*
X03862799Y07313902D01*
X03861378Y07315104D01*
X03859957Y07316416D01*
X03859848Y07316525D01*
X0385963Y07316743D01*
X03859302Y07317181D01*
X03858865Y07317837D01*
X03858318Y07318602D01*
X03857662Y07319476D01*
X03857116Y07320569D01*
X0385646Y07321881D01*
X03855695Y07323301D01*
X03855148Y07324832D01*
X03854492Y07326581D01*
X03853946Y07328439D01*
X03853509Y07330515D01*
X03853181Y07332592D01*
X03852962Y07334997D01*
X03852853Y07337401D01*
Y07337511D01*
Y07337948D01*
Y07338713D01*
X03852962Y07339587D01*
X03853072Y07340789D01*
X03853181Y07342101D01*
X03853399Y07343522D01*
X03853727Y07345162D01*
X03854602Y0734855D01*
X03855148Y07350299D01*
X03855804Y07352047D01*
X03856678Y07353796D01*
X03857662Y07355436D01*
X03858755Y07356966D01*
X03859957Y07358496D01*
X03860067Y07358605D01*
X03860285Y07358824D01*
X03860723Y07359152D01*
X03861269Y07359698D01*
X03862034Y07360245D01*
X03862909Y07360901D01*
X03863892Y07361666D01*
X03865095Y07362322D01*
X03866406Y07363087D01*
X03867827Y07363743D01*
X03869467Y07364398D01*
X03871215Y07364945D01*
X03872964Y07365491D01*
X03875041Y07365819D01*
X03877118Y07366038D01*
X03879304Y07366147D01*
X03880287D01*
X03880943Y07366038D01*
D02*
G37*
G36*
X03604742D02*
X03605616D01*
X036066Y07365928D01*
X03607693Y07365819D01*
X03608895Y07365601D01*
X03611409Y07365054D01*
X03614032Y07364289D01*
X03616656Y07363196D01*
X0361906Y07361775D01*
X0361917D01*
X03619279Y07361556D01*
X03619607Y07361338D01*
X03620044Y0736101D01*
X03621028Y07360026D01*
X03622339Y07358605D01*
X0362376Y07356747D01*
X03625181Y07354561D01*
X03626493Y07351938D01*
X03627586Y07348878D01*
X03613267Y07346255D01*
Y07346473D01*
X03613158Y0734691D01*
X03612939Y07347675D01*
X03612612Y07348659D01*
X03612065Y07349643D01*
X03611519Y07350736D01*
X03610753Y0735172D01*
X03609879Y07352594D01*
X0360977Y07352703D01*
X03609442Y07352922D01*
X03608895Y0735325D01*
X0360813Y07353687D01*
X03607147Y07354124D01*
X03606054Y07354452D01*
X03604742Y07354671D01*
X03603321Y0735478D01*
X03603102D01*
X03602447Y07354671D01*
X03601463Y07354561D01*
X03600151Y07354343D01*
X0359884Y07353796D01*
X03597419Y0735314D01*
X03595998Y07352266D01*
X03594686Y07350954D01*
X03594577Y07350736D01*
X03594249Y07350189D01*
X03593703Y07349315D01*
X03593156Y07348003D01*
X035925Y07346255D01*
X03592282Y07345271D01*
X03592063Y07344178D01*
X03591845Y07342866D01*
X03591626Y07341555D01*
X03591517Y07340024D01*
Y07338494D01*
Y07338385D01*
Y07338057D01*
Y07337511D01*
X03591626Y07336855D01*
Y0733609D01*
X03591735Y07335215D01*
X03591954Y07333029D01*
X03592282Y07330734D01*
X03592938Y07328439D01*
X03593703Y07326362D01*
X03594249Y07325488D01*
X03594796Y07324613D01*
X03594905Y07324395D01*
X03595452Y07323957D01*
X03596107Y07323411D01*
X03597091Y07322646D01*
X03598403Y07321881D01*
X03599823Y07321334D01*
X03601572Y07320897D01*
X0360354Y07320678D01*
X03604195D01*
X03604961Y07320788D01*
X03605944Y07321006D01*
X03607037Y07321225D01*
X0360813Y07321662D01*
X03609223Y07322208D01*
X03610316Y07322974D01*
X03610426Y07323083D01*
X03610753Y07323411D01*
X03611191Y07323957D01*
X03611847Y07324832D01*
X03612502Y07325925D01*
X03613049Y07327346D01*
X03613705Y07329094D01*
X03614142Y07331062D01*
X03628351Y07328657D01*
Y07328548D01*
X03628242Y0732822D01*
X03628132Y07327673D01*
X03627914Y07327018D01*
X03627586Y07326253D01*
X03627258Y07325269D01*
X03626383Y07323083D01*
X0362529Y07320678D01*
X0362376Y07318274D01*
X03621902Y07315869D01*
X03620809Y07314776D01*
X03619716Y07313792D01*
X03619607D01*
X03619388Y07313574D01*
X0361906Y07313355D01*
X03618623Y07313027D01*
X03617967Y07312699D01*
X03617202Y07312262D01*
X03616328Y07311825D01*
X03615235Y07311388D01*
X03614142Y07310841D01*
X0361283Y07310404D01*
X03611519Y07309967D01*
X03609988Y07309639D01*
X03608349Y07309311D01*
X036066Y07309092D01*
X03604851Y07308983D01*
X03602884Y07308874D01*
X03601682D01*
X03600916Y07308983D01*
X03599933Y07309092D01*
X03598731Y07309311D01*
X03597419Y0730953D01*
X03595998Y07309858D01*
X03594468Y07310185D01*
X03592938Y07310732D01*
X03591298Y07311279D01*
X03589768Y07312044D01*
X03588128Y07312918D01*
X03586598Y07313902D01*
X03585177Y07315104D01*
X03583756Y07316416D01*
X03583647Y07316525D01*
X03583428Y07316743D01*
X03583101Y07317181D01*
X03582663Y07317837D01*
X03582117Y07318602D01*
X03581461Y07319476D01*
X03580915Y07320569D01*
X03580259Y07321881D01*
X03579494Y07323301D01*
X03578947Y07324832D01*
X03578291Y07326581D01*
X03577745Y07328439D01*
X03577308Y07330515D01*
X0357698Y07332592D01*
X03576761Y07334997D01*
X03576652Y07337401D01*
Y07337511D01*
Y07337948D01*
Y07338713D01*
X03576761Y07339587D01*
X0357687Y07340789D01*
X0357698Y07342101D01*
X03577198Y07343522D01*
X03577526Y07345162D01*
X03578401Y0734855D01*
X03578947Y07350299D01*
X03579603Y07352047D01*
X03580477Y07353796D01*
X03581461Y07355436D01*
X03582554Y07356966D01*
X03583756Y07358496D01*
X03583866Y07358605D01*
X03584084Y07358824D01*
X03584521Y07359152D01*
X03585068Y07359698D01*
X03585833Y07360245D01*
X03586707Y07360901D01*
X03587691Y07361666D01*
X03588894Y07362322D01*
X03590205Y07363087D01*
X03591626Y07363743D01*
X03593265Y07364398D01*
X03595014Y07364945D01*
X03596763Y07365491D01*
X0359884Y07365819D01*
X03600916Y07366038D01*
X03603102Y07366147D01*
X03604086D01*
X03604742Y07366038D01*
D02*
G37*
G36*
X03505716Y07310076D02*
X03491617D01*
X03491507Y07369535D01*
X03476642Y07310076D01*
X03461887D01*
X03447022Y07369535D01*
Y07310076D01*
X03432922D01*
Y07385712D01*
X03455766D01*
X03469319Y07334013D01*
X03482763Y07385712D01*
X03505716D01*
Y07310076D01*
D02*
G37*
G36*
X04333008Y07312044D02*
X0432951Y07302644D01*
X04329401Y07302425D01*
X04329182Y07301879D01*
X04328745Y07301004D01*
X04328308Y07299911D01*
X04327761Y07298709D01*
X04327106Y07297507D01*
X0432645Y07296414D01*
X04325794Y07295321D01*
X04325685Y07295211D01*
X04325466Y07294883D01*
X04325138Y07294446D01*
X04324701Y07293791D01*
X04323499Y07292479D01*
X04321859Y07291167D01*
X0432175Y07291058D01*
X04321422Y07290949D01*
X04320985Y07290621D01*
X04320329Y07290293D01*
X04319564Y07289965D01*
X0431869Y07289528D01*
X04317597Y07289091D01*
X04316394Y07288763D01*
X04316285D01*
X04315848Y07288653D01*
X04315192Y07288435D01*
X04314208Y07288325D01*
X04313115Y07288107D01*
X04311913Y07287888D01*
X04310492Y07287779D01*
X04308306D01*
X04307432Y07287888D01*
X04306448D01*
X04305136Y07287998D01*
X04303825Y07288216D01*
X04300874Y07288763D01*
X04299562Y0730013D01*
X04299671D01*
X04300109Y07300021D01*
X04300764Y07299911D01*
X04301639Y07299802D01*
X04302513Y07299583D01*
X04303606Y07299474D01*
X04305683Y07299365D01*
X04306557D01*
X04307432Y07299583D01*
X04308525Y07299802D01*
X04309727Y0730013D01*
X04310929Y07300676D01*
X04312132Y07301441D01*
X04313115Y07302425D01*
X04313225Y07302534D01*
X04313552Y07302972D01*
X0431399Y07303627D01*
X04314536Y07304502D01*
X04315083Y07305595D01*
X04315739Y07306907D01*
X04316285Y07308327D01*
X04316832Y07309967D01*
X04296065Y07364945D01*
X04311476D01*
X04324483Y07325925D01*
X0433738Y07364945D01*
X04352354D01*
X04333008Y07312044D01*
D02*
G37*
G36*
X0413594Y07371175D02*
X04108506D01*
X0410621Y07358278D01*
X0410632D01*
X04106429Y07358387D01*
X04107085Y07358715D01*
X04108069Y07359043D01*
X04109271Y07359589D01*
X04110801Y07360026D01*
X0411244Y07360354D01*
X04114299Y07360682D01*
X04116157Y07360791D01*
X0411714D01*
X04117796Y07360682D01*
X04118561Y07360573D01*
X04119545Y07360463D01*
X04120638Y07360245D01*
X0412184Y07359917D01*
X04124354Y07359043D01*
X04125775Y07358496D01*
X04127087Y0735784D01*
X04128508Y07356966D01*
X04129928Y07355982D01*
X0413124Y07354889D01*
X04132552Y07353687D01*
X04132661Y07353578D01*
X0413288Y07353359D01*
X04133208Y07352922D01*
X04133645Y07352375D01*
X04134082Y0735172D01*
X04134738Y07350845D01*
X04135284Y07349861D01*
X0413594Y07348768D01*
X04136596Y07347566D01*
X04137142Y07346145D01*
X04137798Y07344615D01*
X04138235Y07343085D01*
X04138672Y07341336D01*
X04139Y07339478D01*
X04139219Y07337511D01*
X04139328Y07335434D01*
Y07335324D01*
Y07334997D01*
Y07334559D01*
X04139219Y07333904D01*
Y07333029D01*
X04139Y07332046D01*
X04138891Y07330953D01*
X04138672Y07329859D01*
X04138017Y07327236D01*
X04137033Y07324395D01*
X04136377Y07322864D01*
X04135721Y07321443D01*
X04134847Y07320023D01*
X04133863Y07318602D01*
X04133754Y07318492D01*
X04133535Y07318164D01*
X04133098Y07317727D01*
X04132552Y07317071D01*
X04131787Y07316306D01*
X04130803Y07315432D01*
X0412971Y07314557D01*
X04128508Y07313683D01*
X04127087Y07312699D01*
X04125556Y07311825D01*
X04123917Y07310951D01*
X04122059Y07310185D01*
X04120092Y0730953D01*
X04118015Y07309092D01*
X0411572Y07308765D01*
X04113315Y07308655D01*
X04112331D01*
X04111566Y07308765D01*
X04110692Y07308874D01*
X04109599Y07308983D01*
X04108506Y07309092D01*
X04107194Y07309311D01*
X04104571Y07309967D01*
X0410162Y0731106D01*
X04100199Y07311606D01*
X04098778Y07312372D01*
X04097466Y07313246D01*
X04096155Y0731423D01*
X04096046Y07314339D01*
X04095827Y07314448D01*
X04095499Y07314776D01*
X04095062Y07315213D01*
X04094625Y07315869D01*
X04093969Y07316525D01*
X04093422Y0731729D01*
X04092767Y07318164D01*
X04092001Y07319257D01*
X04091346Y0732035D01*
X04090143Y07322974D01*
X0408905Y07325925D01*
X04088722Y07327564D01*
X04088394Y07329313D01*
X04102822Y07330843D01*
Y07330625D01*
X04102931Y07330078D01*
X0410315Y07329094D01*
X04103478Y07328001D01*
X04103915Y07326799D01*
X04104571Y07325488D01*
X04105445Y07324285D01*
X04106429Y07323083D01*
X04106538Y07322974D01*
X04106975Y07322646D01*
X04107631Y07322208D01*
X04108506Y07321662D01*
X04109489Y07321115D01*
X04110692Y07320678D01*
X04112113Y0732035D01*
X04113533Y07320241D01*
X04113752D01*
X04114299Y0732035D01*
X04115173Y0732046D01*
X04116266Y07320678D01*
X04117468Y07321115D01*
X0411878Y07321771D01*
X04120092Y07322755D01*
X04121294Y07323957D01*
X04121403Y07324176D01*
X0412184Y07324613D01*
X04122278Y07325488D01*
X04122933Y07326799D01*
X0412348Y07328329D01*
X04124026Y07330187D01*
X04124354Y07332483D01*
X04124463Y07335106D01*
Y07335215D01*
Y07335434D01*
Y07335762D01*
Y07336308D01*
X04124354Y07337511D01*
X04124026Y07339041D01*
X04123698Y07340789D01*
X04123152Y07342538D01*
X04122387Y07344178D01*
X04121294Y07345599D01*
X04121185Y07345708D01*
X04120747Y07346145D01*
X04119982Y07346692D01*
X04119108Y07347457D01*
X04117905Y07348113D01*
X04116485Y07348659D01*
X04114845Y07349096D01*
X04113096Y07349206D01*
X0411244D01*
X04112003Y07349096D01*
X0411091Y07348878D01*
X0410938Y0734855D01*
X04107631Y07347894D01*
X04105773Y0734691D01*
X04104789Y07346255D01*
X04103806Y07345489D01*
X04102822Y07344615D01*
X04101838Y07343631D01*
X04090143Y07345271D01*
X04097576Y07384728D01*
X0413594D01*
Y07371175D01*
D02*
G37*
G36*
X04267865Y07366038D02*
X04268739D01*
X04270926Y07365819D01*
X04273221Y07365601D01*
X04275625Y07365163D01*
X04277921Y07364508D01*
X04278904Y0736418D01*
X04279888Y07363743D01*
X04279997D01*
X04280107Y07363633D01*
X04280653Y07363305D01*
X04281528Y07362868D01*
X04282511Y07362212D01*
X04283714Y07361338D01*
X04284807Y07360354D01*
X0428579Y07359152D01*
X04286665Y0735795D01*
X04286774Y07357731D01*
X04286993Y07357294D01*
X0428732Y0735631D01*
X0428743Y07355764D01*
X04287648Y07354998D01*
X04287867Y07354233D01*
X04287976Y0735325D01*
X04288195Y07352157D01*
X04288304Y07350954D01*
X04288413Y07349643D01*
X04288523Y07348222D01*
X04288632Y07346692D01*
Y07344943D01*
X04288413Y07328001D01*
Y07327892D01*
Y07327673D01*
Y07327346D01*
Y07326799D01*
Y07325488D01*
X04288523Y07323957D01*
Y07322208D01*
X04288741Y0732046D01*
X04288851Y07318711D01*
X04289069Y0731729D01*
Y07317181D01*
X04289179Y07316743D01*
X04289397Y07315978D01*
X04289616Y07315104D01*
X04290053Y07314011D01*
X0429049Y07312809D01*
X04291037Y07311497D01*
X04291693Y07310076D01*
X04277374D01*
Y07310185D01*
X04277265Y07310295D01*
X04277156Y07310732D01*
X04276937Y07311169D01*
X04276718Y07311716D01*
X042765Y07312481D01*
X04276281Y07313355D01*
X04275953Y07314339D01*
Y07314448D01*
X04275844Y07314557D01*
X04275735Y07314995D01*
X04275516Y07315541D01*
X04275407Y07315978D01*
X04275188Y07315869D01*
X04274751Y07315432D01*
X04273986Y07314776D01*
X04273002Y07314011D01*
X042718Y07313137D01*
X04270488Y07312153D01*
X04268958Y07311388D01*
X04267428Y07310623D01*
X04267209Y07310513D01*
X04266663Y07310404D01*
X04265788Y07310076D01*
X04264695Y07309748D01*
X04263384Y0730942D01*
X04261854Y07309202D01*
X04260105Y07308983D01*
X04258356Y07308874D01*
X04257591D01*
X04256935Y07308983D01*
X04256279D01*
X04255405Y07309092D01*
X04253547Y0730942D01*
X04251361Y07309967D01*
X04249175Y07310732D01*
X04246989Y07311825D01*
X04245021Y07313355D01*
Y07313465D01*
X04244803Y07313574D01*
X04244256Y0731423D01*
X04243491Y07315213D01*
X04242617Y07316525D01*
X04241742Y07318164D01*
X04240977Y07320132D01*
X04240431Y07322427D01*
X04240322Y07323629D01*
X04240212Y07324941D01*
Y0732516D01*
Y07325706D01*
X04240322Y07326581D01*
X0424054Y07327673D01*
X04240759Y07328985D01*
X04241087Y07330297D01*
X04241633Y07331718D01*
X04242398Y07333139D01*
X04242507Y07333357D01*
X04242835Y07333794D01*
X04243273Y0733445D01*
X04244038Y07335215D01*
X04244803Y0733609D01*
X04245896Y07337073D01*
X04247098Y07337948D01*
X04248519Y07338713D01*
X04248738Y07338822D01*
X04249284Y07339041D01*
X04250158Y07339369D01*
X0425147Y07339915D01*
X0425311Y07340462D01*
X04255077Y07341008D01*
X04257482Y07341555D01*
X04260105Y07342101D01*
X04260214D01*
X04260542Y0734221D01*
X04261088Y0734232D01*
X04261744Y07342429D01*
X04262619Y07342538D01*
X04263602Y07342757D01*
X04265788Y07343303D01*
X04268084Y0734385D01*
X04270488Y07344396D01*
X04272565Y07345052D01*
X04273549Y0734538D01*
X04274314Y07345708D01*
Y07347129D01*
Y07347347D01*
Y07347785D01*
X04274204Y0734855D01*
X04274095Y07349533D01*
X04273767Y07350517D01*
X04273439Y07351501D01*
X04272893Y07352375D01*
X04272128Y0735314D01*
X04272019Y0735325D01*
X04271691Y07353468D01*
X04271144Y07353687D01*
X04270379Y07354124D01*
X04269286Y07354452D01*
X04267974Y07354671D01*
X04266335Y07354889D01*
X04264368Y07354998D01*
X04263712D01*
X04263056Y07354889D01*
X04262181Y0735478D01*
X04261198Y07354561D01*
X04260105Y07354343D01*
X04259121Y07353905D01*
X04258247Y07353359D01*
X04258137Y0735325D01*
X04257919Y07353031D01*
X04257482Y07352703D01*
X04257044Y07352157D01*
X04256389Y07351392D01*
X04255842Y07350408D01*
X04255296Y07349315D01*
X04254749Y07348003D01*
X04241742Y07350408D01*
Y07350517D01*
X04241852Y07350736D01*
X04241961Y07351173D01*
X0424218Y0735172D01*
X04242398Y07352375D01*
X04242726Y0735314D01*
X04243491Y07354889D01*
X04244584Y07356747D01*
X04245896Y07358715D01*
X04247426Y07360573D01*
X04249284Y07362212D01*
X04249393D01*
X04249503Y07362431D01*
X04249831Y0736254D01*
X04250268Y07362868D01*
X04250924Y07363087D01*
X04251579Y07363415D01*
X04252454Y07363852D01*
X04253328Y0736418D01*
X04254421Y07364508D01*
X04255623Y07364945D01*
X04256935Y07365273D01*
X04258465Y07365491D01*
X04259995Y07365819D01*
X04261744Y07365928D01*
X04263493Y07366147D01*
X042671D01*
X04267865Y07366038D01*
D02*
G37*
G36*
X0419529Y07322864D02*
X04233326D01*
Y07310076D01*
X04179988D01*
Y07385165D01*
X0419529D01*
Y07322864D01*
D02*
G37*
G36*
X04066425Y07310076D02*
X04051888D01*
Y07364836D01*
X04051779Y07364726D01*
X0405156Y07364508D01*
X04051123Y0736418D01*
X04050467Y07363633D01*
X04049702Y07362977D01*
X04048828Y07362322D01*
X04047735Y07361556D01*
X04046533Y07360682D01*
X04045221Y07359808D01*
X040438Y07358933D01*
X0404227Y0735795D01*
X0404063Y07357075D01*
X04037133Y07355436D01*
X04033198Y07353905D01*
Y07367021D01*
X04033307D01*
X04033417Y07367131D01*
X04033744Y0736724D01*
X04034182Y07367349D01*
X04035275Y07367896D01*
X04036805Y07368552D01*
X04038663Y07369426D01*
X0404074Y07370628D01*
X04043035Y07372159D01*
X0404544Y07373907D01*
X04045549Y07374017D01*
X04045767Y07374126D01*
X04046095Y07374454D01*
X04046533Y07374891D01*
X04047735Y07375984D01*
X04049046Y07377405D01*
X04050577Y07379154D01*
X04052107Y0738134D01*
X04053528Y07383635D01*
X04054621Y07386149D01*
X04066425D01*
Y07310076D01*
D02*
G37*
G36*
X03988166D02*
X0397363D01*
Y07385712D01*
X03988166D01*
Y07310076D01*
D02*
G37*
G36*
X03938653Y07366038D02*
X03939528D01*
X03941714Y07365819D01*
X03944009Y07365601D01*
X03946414Y07365163D01*
X03948709Y07364508D01*
X03949693Y0736418D01*
X03950677Y07363743D01*
X03950786D01*
X03950895Y07363633D01*
X03951442Y07363305D01*
X03952316Y07362868D01*
X039533Y07362212D01*
X03954502Y07361338D01*
X03955595Y07360354D01*
X03956579Y07359152D01*
X03957453Y0735795D01*
X03957562Y07357731D01*
X03957781Y07357294D01*
X03958109Y0735631D01*
X03958218Y07355764D01*
X03958437Y07354998D01*
X03958655Y07354233D01*
X03958765Y0735325D01*
X03958983Y07352157D01*
X03959093Y07350954D01*
X03959202Y07349643D01*
X03959311Y07348222D01*
X03959421Y07346692D01*
Y07344943D01*
X03959202Y07328001D01*
Y07327892D01*
Y07327673D01*
Y07327346D01*
Y07326799D01*
Y07325488D01*
X03959311Y07323957D01*
Y07322208D01*
X0395953Y0732046D01*
X03959639Y07318711D01*
X03959858Y0731729D01*
Y07317181D01*
X03959967Y07316743D01*
X03960186Y07315978D01*
X03960404Y07315104D01*
X03960841Y07314011D01*
X03961279Y07312809D01*
X03961825Y07311497D01*
X03962481Y07310076D01*
X03948163D01*
Y07310185D01*
X03948053Y07310295D01*
X03947944Y07310732D01*
X03947725Y07311169D01*
X03947507Y07311716D01*
X03947288Y07312481D01*
X0394707Y07313355D01*
X03946742Y07314339D01*
Y07314448D01*
X03946632Y07314557D01*
X03946523Y07314995D01*
X03946305Y07315541D01*
X03946195Y07315978D01*
X03945977Y07315869D01*
X03945539Y07315432D01*
X03944774Y07314776D01*
X03943791Y07314011D01*
X03942588Y07313137D01*
X03941277Y07312153D01*
X03939747Y07311388D01*
X03938216Y07310623D01*
X03937998Y07310513D01*
X03937451Y07310404D01*
X03936577Y07310076D01*
X03935484Y07309748D01*
X03934172Y0730942D01*
X03932642Y07309202D01*
X03930893Y07308983D01*
X03929144Y07308874D01*
X03928379D01*
X03927724Y07308983D01*
X03927068D01*
X03926193Y07309092D01*
X03924335Y0730942D01*
X03922149Y07309967D01*
X03919963Y07310732D01*
X03917777Y07311825D01*
X0391581Y07313355D01*
Y07313465D01*
X03915591Y07313574D01*
X03915045Y0731423D01*
X0391428Y07315213D01*
X03913405Y07316525D01*
X03912531Y07318164D01*
X03911766Y07320132D01*
X03911219Y07322427D01*
X0391111Y07323629D01*
X03911001Y07324941D01*
Y0732516D01*
Y07325706D01*
X0391111Y07326581D01*
X03911329Y07327673D01*
X03911547Y07328985D01*
X03911875Y07330297D01*
X03912421Y07331718D01*
X03913187Y07333139D01*
X03913296Y07333357D01*
X03913624Y07333794D01*
X03914061Y0733445D01*
X03914826Y07335215D01*
X03915591Y0733609D01*
X03916684Y07337073D01*
X03917887Y07337948D01*
X03919307Y07338713D01*
X03919526Y07338822D01*
X03920073Y07339041D01*
X03920947Y07339369D01*
X03922258Y07339915D01*
X03923898Y07340462D01*
X03925865Y07341008D01*
X0392827Y07341555D01*
X03930893Y07342101D01*
X03931003D01*
X0393133Y0734221D01*
X03931877Y0734232D01*
X03932533Y07342429D01*
X03933407Y07342538D01*
X03934391Y07342757D01*
X03936577Y07343303D01*
X03938872Y0734385D01*
X03941277Y07344396D01*
X03943353Y07345052D01*
X03944337Y0734538D01*
X03945102Y07345708D01*
Y07347129D01*
Y07347347D01*
Y07347785D01*
X03944993Y0734855D01*
X03944884Y07349533D01*
X03944556Y07350517D01*
X03944228Y07351501D01*
X03943681Y07352375D01*
X03942916Y0735314D01*
X03942807Y0735325D01*
X03942479Y07353468D01*
X03941932Y07353687D01*
X03941167Y07354124D01*
X03940074Y07354452D01*
X03938763Y07354671D01*
X03937123Y07354889D01*
X03935156Y07354998D01*
X039345D01*
X03933844Y07354889D01*
X0393297Y0735478D01*
X03931986Y07354561D01*
X03930893Y07354343D01*
X0392991Y07353905D01*
X03929035Y07353359D01*
X03928926Y0735325D01*
X03928707Y07353031D01*
X0392827Y07352703D01*
X03927833Y07352157D01*
X03927177Y07351392D01*
X03926631Y07350408D01*
X03926084Y07349315D01*
X03925537Y07348003D01*
X03912531Y07350408D01*
Y07350517D01*
X0391264Y07350736D01*
X03912749Y07351173D01*
X03912968Y0735172D01*
X03913187Y07352375D01*
X03913515Y0735314D01*
X0391428Y07354889D01*
X03915373Y07356747D01*
X03916684Y07358715D01*
X03918214Y07360573D01*
X03920073Y07362212D01*
X03920182D01*
X03920291Y07362431D01*
X03920619Y0736254D01*
X03921056Y07362868D01*
X03921712Y07363087D01*
X03922368Y07363415D01*
X03923242Y07363852D01*
X03924117Y0736418D01*
X0392521Y07364508D01*
X03926412Y07364945D01*
X03927724Y07365273D01*
X03929254Y07365491D01*
X03930784Y07365819D01*
X03932533Y07365928D01*
X03934282Y07366147D01*
X03937888D01*
X03938653Y07366038D01*
D02*
G37*
G36*
X03841158Y07310076D02*
X03826621D01*
Y07364945D01*
X03841158D01*
Y07310076D01*
D02*
G37*
G36*
X03727049Y07366038D02*
X03727923D01*
X03730109Y07365819D01*
X03732404Y07365601D01*
X03734809Y07365163D01*
X03737104Y07364508D01*
X03738088Y0736418D01*
X03739072Y07363743D01*
X03739181D01*
X0373929Y07363633D01*
X03739837Y07363305D01*
X03740711Y07362868D01*
X03741695Y07362212D01*
X03742897Y07361338D01*
X0374399Y07360354D01*
X03744974Y07359152D01*
X03745848Y0735795D01*
X03745958Y07357731D01*
X03746176Y07357294D01*
X03746504Y0735631D01*
X03746613Y07355764D01*
X03746832Y07354998D01*
X03747051Y07354233D01*
X0374716Y0735325D01*
X03747378Y07352157D01*
X03747488Y07350954D01*
X03747597Y07349643D01*
X03747706Y07348222D01*
X03747816Y07346692D01*
Y07344943D01*
X03747597Y07328001D01*
Y07327892D01*
Y07327673D01*
Y07327346D01*
Y07326799D01*
Y07325488D01*
X03747706Y07323957D01*
Y07322208D01*
X03747925Y0732046D01*
X03748034Y07318711D01*
X03748253Y0731729D01*
Y07317181D01*
X03748362Y07316743D01*
X03748581Y07315978D01*
X03748799Y07315104D01*
X03749237Y07314011D01*
X03749674Y07312809D01*
X0375022Y07311497D01*
X03750876Y07310076D01*
X03736558D01*
Y07310185D01*
X03736448Y07310295D01*
X03736339Y07310732D01*
X03736121Y07311169D01*
X03735902Y07311716D01*
X03735683Y07312481D01*
X03735465Y07313355D01*
X03735137Y07314339D01*
Y07314448D01*
X03735028Y07314557D01*
X03734918Y07314995D01*
X037347Y07315541D01*
X0373459Y07315978D01*
X03734372Y07315869D01*
X03733935Y07315432D01*
X03733169Y07314776D01*
X03732186Y07314011D01*
X03730983Y07313137D01*
X03729672Y07312153D01*
X03728142Y07311388D01*
X03726611Y07310623D01*
X03726393Y07310513D01*
X03725846Y07310404D01*
X03724972Y07310076D01*
X03723879Y07309748D01*
X03722567Y0730942D01*
X03721037Y07309202D01*
X03719288Y07308983D01*
X0371754Y07308874D01*
X03716774D01*
X03716119Y07308983D01*
X03715463D01*
X03714588Y07309092D01*
X0371273Y0730942D01*
X03710544Y07309967D01*
X03708358Y07310732D01*
X03706172Y07311825D01*
X03704205Y07313355D01*
Y07313465D01*
X03703986Y07313574D01*
X0370344Y0731423D01*
X03702675Y07315213D01*
X037018Y07316525D01*
X03700926Y07318164D01*
X03700161Y07320132D01*
X03699614Y07322427D01*
X03699505Y07323629D01*
X03699396Y07324941D01*
Y0732516D01*
Y07325706D01*
X03699505Y07326581D01*
X03699724Y07327673D01*
X03699942Y07328985D01*
X0370027Y07330297D01*
X03700817Y07331718D01*
X03701582Y07333139D01*
X03701691Y07333357D01*
X03702019Y07333794D01*
X03702456Y0733445D01*
X03703221Y07335215D01*
X03703986Y0733609D01*
X03705079Y07337073D01*
X03706282Y07337948D01*
X03707703Y07338713D01*
X03707921Y07338822D01*
X03708468Y07339041D01*
X03709342Y07339369D01*
X03710654Y07339915D01*
X03712293Y07340462D01*
X03714261Y07341008D01*
X03716665Y07341555D01*
X03719288Y07342101D01*
X03719398D01*
X03719726Y0734221D01*
X03720272Y0734232D01*
X03720928Y07342429D01*
X03721802Y07342538D01*
X03722786Y07342757D01*
X03724972Y07343303D01*
X03727267Y0734385D01*
X03729672Y07344396D01*
X03731749Y07345052D01*
X03732732Y0734538D01*
X03733497Y07345708D01*
Y07347129D01*
Y07347347D01*
Y07347785D01*
X03733388Y0734855D01*
X03733279Y07349533D01*
X03732951Y07350517D01*
X03732623Y07351501D01*
X03732077Y07352375D01*
X03731311Y0735314D01*
X03731202Y0735325D01*
X03730874Y07353468D01*
X03730328Y07353687D01*
X03729563Y07354124D01*
X0372847Y07354452D01*
X03727158Y07354671D01*
X03725519Y07354889D01*
X03723551Y07354998D01*
X03722895D01*
X0372224Y07354889D01*
X03721365Y0735478D01*
X03720381Y07354561D01*
X03719288Y07354343D01*
X03718305Y07353905D01*
X0371743Y07353359D01*
X03717321Y0735325D01*
X03717102Y07353031D01*
X03716665Y07352703D01*
X03716228Y07352157D01*
X03715572Y07351392D01*
X03715026Y07350408D01*
X03714479Y07349315D01*
X03713933Y07348003D01*
X03700926Y07350408D01*
Y07350517D01*
X03701035Y07350736D01*
X03701145Y07351173D01*
X03701363Y0735172D01*
X03701582Y07352375D01*
X0370191Y0735314D01*
X03702675Y07354889D01*
X03703768Y07356747D01*
X03705079Y07358715D01*
X0370661Y07360573D01*
X03708468Y07362212D01*
X03708577D01*
X03708686Y07362431D01*
X03709014Y0736254D01*
X03709451Y07362868D01*
X03710107Y07363087D01*
X03710763Y07363415D01*
X03711637Y07363852D01*
X03712512Y0736418D01*
X03713605Y07364508D01*
X03714807Y07364945D01*
X03716119Y07365273D01*
X03717649Y07365491D01*
X03719179Y07365819D01*
X03720928Y07365928D01*
X03722677Y07366147D01*
X03726284D01*
X03727049Y07366038D01*
D02*
G37*
G36*
X03653053Y07357731D02*
X03653162Y0735784D01*
X03653381Y07358059D01*
X03653818Y07358496D01*
X03654255Y07359043D01*
X0365502Y07359698D01*
X03655785Y07360354D01*
X03656769Y07361119D01*
X03657753Y07361994D01*
X03658955Y07362759D01*
X03660266Y07363524D01*
X03663108Y07364836D01*
X03664638Y07365382D01*
X03666278Y07365819D01*
X03668027Y07366038D01*
X03669776Y07366147D01*
X0367065D01*
X03671634Y07366038D01*
X03672836Y07365928D01*
X03674257Y0736571D01*
X03675678Y07365273D01*
X03677317Y07364836D01*
X03678847Y0736418D01*
X03679066Y0736407D01*
X03679503Y07363852D01*
X03680268Y07363415D01*
X03681143Y07362868D01*
X03682126Y07362212D01*
X0368311Y07361447D01*
X03684094Y07360463D01*
X03684968Y0735948D01*
X03685077Y0735937D01*
X03685296Y07358933D01*
X03685624Y07358387D01*
X03686061Y07357622D01*
X03686608Y07356638D01*
X03687045Y07355545D01*
X03687482Y07354343D01*
X0368781Y07353031D01*
Y07352922D01*
X03687919Y07352375D01*
X03688029Y07351501D01*
X03688247Y07350408D01*
X03688356Y07348878D01*
X03688466Y0734702D01*
X03688575Y07344834D01*
Y0734221D01*
Y07310076D01*
X03674038D01*
Y07338931D01*
Y07339041D01*
Y07339259D01*
Y07339697D01*
Y07340352D01*
Y07341008D01*
Y07341773D01*
X03673929Y07343522D01*
X0367382Y0734538D01*
X0367371Y07347238D01*
X03673492Y07348768D01*
X03673273Y07349315D01*
X03673164Y07349861D01*
Y07349971D01*
X03672945Y07350299D01*
X03672727Y07350627D01*
X03672508Y07351173D01*
X03671524Y07352375D01*
X03670978Y07353031D01*
X03670213Y07353578D01*
X03670103Y07353687D01*
X03669885Y07353796D01*
X03669338Y07354015D01*
X03668792Y07354343D01*
X03668027Y07354561D01*
X03667152Y0735478D01*
X03666059Y07354889D01*
X03664966Y07354998D01*
X03664311D01*
X03663655Y07354889D01*
X0366278Y0735478D01*
X03661797Y07354561D01*
X03660704Y07354233D01*
X03659611Y07353796D01*
X03658518Y0735314D01*
X03658408Y07353031D01*
X0365808Y07352812D01*
X03657534Y07352375D01*
X03656987Y07351829D01*
X03656222Y07351064D01*
X03655566Y07350189D01*
X03654911Y07349096D01*
X03654364Y07347894D01*
Y07347785D01*
X03654146Y07347238D01*
X03653927Y07346473D01*
X03653708Y07345271D01*
X0365349Y0734385D01*
X03653271Y07341992D01*
X03653162Y07339915D01*
X03653053Y07337511D01*
Y07310076D01*
X03638516D01*
Y07385712D01*
X03653053D01*
Y07357731D01*
D02*
G37*
G36*
X04384597Y07366038D02*
X04385581Y07365928D01*
X04386783Y0736571D01*
X04388095Y07365491D01*
X04389516Y07365163D01*
X04391046Y07364726D01*
X04392576Y0736418D01*
X04394216Y07363524D01*
X04395855Y0736265D01*
X04397386Y07361775D01*
X04398916Y07360682D01*
X04400446Y0735937D01*
X04401758Y0735795D01*
X04401867Y0735784D01*
X04402086Y07357622D01*
X04402413Y07357075D01*
X04402851Y07356419D01*
X04403397Y07355545D01*
X04403944Y07354561D01*
X04404599Y0735325D01*
X04405255Y07351829D01*
X04405911Y07350189D01*
X04406567Y07348331D01*
X04407113Y07346364D01*
X0440766Y07344069D01*
X04408097Y07341664D01*
X04408425Y07339041D01*
X04408644Y07336308D01*
Y07333248D01*
X04372356D01*
Y07333139D01*
Y0733292D01*
Y07332592D01*
X04372465Y07332155D01*
X04372574Y07331062D01*
X04372793Y07329532D01*
X0437323Y07328001D01*
X04373886Y07326253D01*
X04374651Y07324613D01*
X04375744Y07323192D01*
X04375854Y07323083D01*
X043764Y07322646D01*
X04377056Y07322099D01*
X04378039Y07321443D01*
X04379242Y07320788D01*
X04380772Y07320241D01*
X04382412Y07319804D01*
X0438416Y07319695D01*
X04384707D01*
X04385363Y07319804D01*
X04386128Y07319913D01*
X04387002Y07320132D01*
X04387986Y0732046D01*
X0438897Y07320897D01*
X04389844Y07321553D01*
X04389953Y07321662D01*
X04390281Y07321881D01*
X04390718Y07322318D01*
X04391155Y07322974D01*
X04391811Y07323848D01*
X04392358Y07324832D01*
X04392904Y07326143D01*
X04393451Y07327564D01*
X04407878Y0732516D01*
Y0732505D01*
X04407769Y07324832D01*
X04407551Y07324395D01*
X04407332Y07323848D01*
X04407004Y07323192D01*
X04406676Y07322427D01*
X04405692Y07320678D01*
X0440449Y07318711D01*
X0440296Y07316634D01*
X04401102Y07314776D01*
X04399025Y07313027D01*
X04398916D01*
X04398806Y07312809D01*
X04398369Y07312699D01*
X04397932Y07312372D01*
X04397386Y07312044D01*
X0439662Y07311716D01*
X04395855Y07311388D01*
X04394872Y07310951D01*
X04392686Y07310185D01*
X04390172Y0730953D01*
X04387221Y07309092D01*
X04384051Y07308874D01*
X04383395D01*
X04382739Y07308983D01*
X04381756D01*
X04380553Y07309202D01*
X04379132Y0730942D01*
X04377602Y07309639D01*
X04376072Y07310076D01*
X04374323Y07310513D01*
X04372574Y07311169D01*
X04370826Y07311934D01*
X04369077Y07312809D01*
X04367328Y07313902D01*
X04365689Y07315104D01*
X04364268Y07316525D01*
X04362847Y07318164D01*
X04362738Y07318274D01*
X04362628Y07318492D01*
X0436241Y0731893D01*
X04361972Y07319476D01*
X04361645Y07320241D01*
X04361207Y07321115D01*
X04360661Y07322099D01*
X04360224Y07323301D01*
X04359677Y07324613D01*
X0435924Y07326034D01*
X04358693Y07327564D01*
X04358365Y07329313D01*
X04358038Y07331062D01*
X0435771Y0733292D01*
X043576Y07334997D01*
X04357491Y07337073D01*
Y07337183D01*
Y0733762D01*
Y07338385D01*
X043576Y07339369D01*
X0435771Y07340462D01*
X04357819Y07341773D01*
X04358038Y07343194D01*
X04358365Y07344834D01*
X0435924Y07348222D01*
X04359786Y07349971D01*
X04360442Y07351829D01*
X04361317Y07353578D01*
X043623Y07355217D01*
X04363393Y07356857D01*
X04364596Y07358387D01*
X04364705Y07358496D01*
X04364923Y07358715D01*
X04365361Y07359152D01*
X04365907Y07359589D01*
X04366563Y07360136D01*
X04367437Y07360791D01*
X04368421Y07361556D01*
X04369514Y07362322D01*
X04370716Y07362977D01*
X04372137Y07363743D01*
X04373558Y07364398D01*
X04375198Y07364945D01*
X04376837Y07365382D01*
X04378695Y07365819D01*
X04380553Y07366038D01*
X04382521Y07366147D01*
X04383723D01*
X04384597Y07366038D01*
D02*
G37*
G36*
X03543971D02*
X03544955Y07365928D01*
X03546157Y0736571D01*
X03547469Y07365491D01*
X0354889Y07365163D01*
X0355042Y07364726D01*
X0355195Y0736418D01*
X0355359Y07363524D01*
X03555229Y0736265D01*
X03556759Y07361775D01*
X03558289Y07360682D01*
X0355982Y0735937D01*
X03561131Y0735795D01*
X03561241Y0735784D01*
X03561459Y07357622D01*
X03561787Y07357075D01*
X03562224Y07356419D01*
X03562771Y07355545D01*
X03563317Y07354561D01*
X03563973Y0735325D01*
X03564629Y07351829D01*
X03565285Y07350189D01*
X03565941Y07348331D01*
X03566487Y07346364D01*
X03567034Y07344069D01*
X03567471Y07341664D01*
X03567799Y07339041D01*
X03568017Y07336308D01*
Y07333248D01*
X0353173D01*
Y07333139D01*
Y0733292D01*
Y07332592D01*
X03531839Y07332155D01*
X03531948Y07331062D01*
X03532167Y07329532D01*
X03532604Y07328001D01*
X0353326Y07326253D01*
X03534025Y07324613D01*
X03535118Y07323192D01*
X03535227Y07323083D01*
X03535774Y07322646D01*
X0353643Y07322099D01*
X03537413Y07321443D01*
X03538615Y07320788D01*
X03540146Y07320241D01*
X03541785Y07319804D01*
X03543534Y07319695D01*
X03544081D01*
X03544736Y07319804D01*
X03545501Y07319913D01*
X03546376Y07320132D01*
X0354736Y0732046D01*
X03548343Y07320897D01*
X03549218Y07321553D01*
X03549327Y07321662D01*
X03549655Y07321881D01*
X03550092Y07322318D01*
X03550529Y07322974D01*
X03551185Y07323848D01*
X03551731Y07324832D01*
X03552278Y07326143D01*
X03552825Y07327564D01*
X03567252Y0732516D01*
Y0732505D01*
X03567143Y07324832D01*
X03566924Y07324395D01*
X03566706Y07323848D01*
X03566378Y07323192D01*
X0356605Y07322427D01*
X03565066Y07320678D01*
X03563864Y07318711D01*
X03562334Y07316634D01*
X03560476Y07314776D01*
X03558399Y07313027D01*
X03558289D01*
X0355818Y07312809D01*
X03557743Y07312699D01*
X03557306Y07312372D01*
X03556759Y07312044D01*
X03555994Y07311716D01*
X03555229Y07311388D01*
X03554245Y07310951D01*
X03552059Y07310185D01*
X03549546Y0730953D01*
X03546594Y07309092D01*
X03543425Y07308874D01*
X03542769D01*
X03542113Y07308983D01*
X03541129D01*
X03539927Y07309202D01*
X03538506Y0730942D01*
X03536976Y07309639D01*
X03535446Y07310076D01*
X03533697Y07310513D01*
X03531948Y07311169D01*
X03530199Y07311934D01*
X03528451Y07312809D01*
X03526702Y07313902D01*
X03525062Y07315104D01*
X03523641Y07316525D01*
X0352222Y07318164D01*
X03522111Y07318274D01*
X03522002Y07318492D01*
X03521783Y0731893D01*
X03521346Y07319476D01*
X03521018Y07320241D01*
X03520581Y07321115D01*
X03520035Y07322099D01*
X03519597Y07323301D01*
X03519051Y07324613D01*
X03518614Y07326034D01*
X03518067Y07327564D01*
X03517739Y07329313D01*
X03517411Y07331062D01*
X03517083Y0733292D01*
X03516974Y07334997D01*
X03516865Y07337073D01*
Y07337183D01*
Y0733762D01*
Y07338385D01*
X03516974Y07339369D01*
X03517083Y07340462D01*
X03517193Y07341773D01*
X03517411Y07343194D01*
X03517739Y07344834D01*
X03518614Y07348222D01*
X0351916Y07349971D01*
X03519816Y07351829D01*
X0352069Y07353578D01*
X03521674Y07355217D01*
X03522767Y07356857D01*
X03523969Y07358387D01*
X03524079Y07358496D01*
X03524297Y07358715D01*
X03524734Y07359152D01*
X03525281Y07359589D01*
X03525937Y07360136D01*
X03526811Y07360791D01*
X03527795Y07361556D01*
X03528888Y07362322D01*
X0353009Y07362977D01*
X03531511Y07363743D01*
X03532932Y07364398D01*
X03534571Y07364945D01*
X03536211Y07365382D01*
X03538069Y07365819D01*
X03539927Y07366038D01*
X03541894Y07366147D01*
X03543097D01*
X03543971Y07366038D01*
D02*
G37*
%LPC*%
G36*
X04274314Y07336308D02*
X04274204D01*
X04273767Y0733609D01*
X04273111Y0733598D01*
X04272128Y07335652D01*
X04270926Y07335324D01*
X04269286Y07334887D01*
X04267537Y0733445D01*
X04265351Y07334013D01*
X04265133D01*
X04264805Y07333904D01*
X04264368Y07333794D01*
X04263384Y07333576D01*
X04262072Y07333248D01*
X04260761Y0733292D01*
X04259449Y07332483D01*
X04258356Y07331936D01*
X04257482Y07331499D01*
X04257372Y0733139D01*
X04257044Y07331171D01*
X04256607Y07330734D01*
X0425617Y07330187D01*
X04255623Y07329422D01*
X04255186Y07328548D01*
X04254858Y07327564D01*
X04254749Y07326471D01*
Y07326362D01*
Y07325925D01*
X04254858Y07325378D01*
X04255077Y07324722D01*
X04255296Y07323848D01*
X04255623Y07322974D01*
X0425617Y07322099D01*
X04256935Y07321225D01*
X04257044Y07321115D01*
X04257372Y07320897D01*
X0425781Y07320569D01*
X04258575Y07320132D01*
X0425934Y07319695D01*
X04260323Y07319367D01*
X04261526Y07319148D01*
X04262728Y07319039D01*
X04263384D01*
X04264149Y07319148D01*
X04265133Y07319367D01*
X04266335Y07319695D01*
X04267537Y07320132D01*
X04268958Y07320678D01*
X0427027Y07321553D01*
X04270379Y07321662D01*
X04270707Y07321881D01*
X04271144Y07322318D01*
X04271691Y07322864D01*
X04272237Y07323629D01*
X04272784Y07324395D01*
X0427333Y07325378D01*
X04273658Y07326362D01*
Y07326471D01*
X04273767Y0732669D01*
X04273877Y07327236D01*
X04273986Y07327892D01*
X04274095Y07328876D01*
X04274204Y07330078D01*
X04274314Y07331608D01*
Y07333357D01*
Y07336308D01*
D02*
G37*
G36*
X03945102D02*
X03944993D01*
X03944556Y0733609D01*
X039439Y0733598D01*
X03942916Y07335652D01*
X03941714Y07335324D01*
X03940074Y07334887D01*
X03938326Y0733445D01*
X0393614Y07334013D01*
X03935921D01*
X03935593Y07333904D01*
X03935156Y07333794D01*
X03934172Y07333576D01*
X03932861Y07333248D01*
X03931549Y0733292D01*
X03930237Y07332483D01*
X03929144Y07331936D01*
X0392827Y07331499D01*
X03928161Y0733139D01*
X03927833Y07331171D01*
X03927396Y07330734D01*
X03926958Y07330187D01*
X03926412Y07329422D01*
X03925975Y07328548D01*
X03925647Y07327564D01*
X03925537Y07326471D01*
Y07326362D01*
Y07325925D01*
X03925647Y07325378D01*
X03925865Y07324722D01*
X03926084Y07323848D01*
X03926412Y07322974D01*
X03926958Y07322099D01*
X03927724Y07321225D01*
X03927833Y07321115D01*
X03928161Y07320897D01*
X03928598Y07320569D01*
X03929363Y07320132D01*
X03930128Y07319695D01*
X03931112Y07319367D01*
X03932314Y07319148D01*
X03933516Y07319039D01*
X03934172D01*
X03934937Y07319148D01*
X03935921Y07319367D01*
X03937123Y07319695D01*
X03938326Y07320132D01*
X03939747Y07320678D01*
X03941058Y07321553D01*
X03941167Y07321662D01*
X03941495Y07321881D01*
X03941932Y07322318D01*
X03942479Y07322864D01*
X03943026Y07323629D01*
X03943572Y07324395D01*
X03944119Y07325378D01*
X03944446Y07326362D01*
Y07326471D01*
X03944556Y0732669D01*
X03944665Y07327236D01*
X03944774Y07327892D01*
X03944884Y07328876D01*
X03944993Y07330078D01*
X03945102Y07331608D01*
Y07333357D01*
Y07336308D01*
D02*
G37*
G36*
X03733497D02*
X03733388D01*
X03732951Y0733609D01*
X03732295Y0733598D01*
X03731311Y07335652D01*
X03730109Y07335324D01*
X0372847Y07334887D01*
X03726721Y0733445D01*
X03724535Y07334013D01*
X03724316D01*
X03723988Y07333904D01*
X03723551Y07333794D01*
X03722567Y07333576D01*
X03721256Y07333248D01*
X03719944Y0733292D01*
X03718633Y07332483D01*
X0371754Y07331936D01*
X03716665Y07331499D01*
X03716556Y0733139D01*
X03716228Y07331171D01*
X03715791Y07330734D01*
X03715354Y07330187D01*
X03714807Y07329422D01*
X0371437Y07328548D01*
X03714042Y07327564D01*
X03713933Y07326471D01*
Y07326362D01*
Y07325925D01*
X03714042Y07325378D01*
X03714261Y07324722D01*
X03714479Y07323848D01*
X03714807Y07322974D01*
X03715354Y07322099D01*
X03716119Y07321225D01*
X03716228Y07321115D01*
X03716556Y07320897D01*
X03716993Y07320569D01*
X03717758Y07320132D01*
X03718523Y07319695D01*
X03719507Y07319367D01*
X03720709Y07319148D01*
X03721912Y07319039D01*
X03722567D01*
X03723332Y07319148D01*
X03724316Y07319367D01*
X03725519Y07319695D01*
X03726721Y07320132D01*
X03728142Y07320678D01*
X03729453Y07321553D01*
X03729563Y07321662D01*
X0372989Y07321881D01*
X03730328Y07322318D01*
X03730874Y07322864D01*
X03731421Y07323629D01*
X03731967Y07324395D01*
X03732514Y07325378D01*
X03732842Y07326362D01*
Y07326471D01*
X03732951Y0732669D01*
X0373306Y07327236D01*
X03733169Y07327892D01*
X03733279Y07328876D01*
X03733388Y07330078D01*
X03733497Y07331608D01*
Y07333357D01*
Y07336308D01*
D02*
G37*
G36*
X04383395Y07354998D02*
X0438263D01*
X04381756Y0735478D01*
X04380663Y07354561D01*
X0437946Y07354124D01*
X04378149Y07353578D01*
X04376837Y07352703D01*
X04375635Y07351501D01*
X04375526Y07351392D01*
X04375198Y07350845D01*
X04374651Y0735008D01*
X04374105Y07348987D01*
X04373449Y07347675D01*
X04373012Y07346036D01*
X04372684Y07344178D01*
X04372574Y07342101D01*
X04394216D01*
Y0734221D01*
Y07342429D01*
Y07342648D01*
X04394107Y07343085D01*
X04393997Y07344287D01*
X04393779Y07345599D01*
X04393342Y07347129D01*
X04392795Y07348768D01*
X04391921Y07350299D01*
X04390937Y0735161D01*
X04390828Y0735172D01*
X0439039Y07352157D01*
X04389735Y07352703D01*
X0438886Y07353359D01*
X04387767Y07353905D01*
X04386456Y07354452D01*
X04385035Y07354889D01*
X04383395Y07354998D01*
D02*
G37*
G36*
X03542769D02*
X03542004D01*
X03541129Y0735478D01*
X03540036Y07354561D01*
X03538834Y07354124D01*
X03537523Y07353578D01*
X03536211Y07352703D01*
X03535009Y07351501D01*
X03534899Y07351392D01*
X03534571Y07350845D01*
X03534025Y0735008D01*
X03533478Y07348987D01*
X03532823Y07347675D01*
X03532385Y07346036D01*
X03532057Y07344178D01*
X03531948Y07342101D01*
X0355359D01*
Y0734221D01*
Y07342429D01*
Y07342648D01*
X0355348Y07343085D01*
X03553371Y07344287D01*
X03553152Y07345599D01*
X03552715Y07347129D01*
X03552169Y07348768D01*
X03551294Y07350299D01*
X03550311Y0735161D01*
X03550201Y0735172D01*
X03549764Y07352157D01*
X03549108Y07352703D01*
X03548234Y07353359D01*
X03547141Y07353905D01*
X03545829Y07354452D01*
X03544408Y07354889D01*
X03542769Y07354998D01*
D02*
G37*
%LPD*%
D29*
X08562985Y06747594D02*
X08562992Y-00196592D01*
X06850387Y06747594D02*
X06850394Y-00196592D01*
X05137788Y06747594D02*
X05137795Y-00196592D01*
X0342519Y06747594D02*
X03425197Y-00196592D01*
X-00197516Y06551223D02*
X08759885Y06551224D01*
X-00197514Y04913417D02*
X08759878Y04913418D01*
X-00197513Y03275612D02*
X08759872Y03275612D01*
X0476618Y07307779D02*
Y07347779D01*
Y07307779D02*
X0478618Y07327779D01*
X0476618Y07347779D02*
X0478618Y07327779D01*
X05222922Y07170482D02*
Y07488174D01*
X03331011Y07170482D02*
X05222922D01*
X03331011Y07488174D02*
X05222922D01*
X03331011Y07170482D02*
Y07488174D01*
X0450118Y07327779D02*
X0478618D01*
X01712591Y06747594D02*
X01712598Y-00196592D01*
X-00000007Y06747579D02*
X0Y-00196852D01*
X-00197511Y01637806D02*
X08759865Y01637807D01*
X-00197781Y0D02*
X08759858D01*
D94*
X04772606Y07328199D02*
D03*
M02*
