M48
;Layer_Color=9474304
;FILE_FORMAT=2:5
INCH,LZ
;TYPE=PLATED
T01F00S00C0.01968
T02F00S00C0.03000
T03F00S00C0.03150
T04F00S00C0.03543
T05F00S00C0.03937
T06F00S00C0.04724
T07F00S00C0.08071
T08F00S00C0.17717
%
T01
X000506Y0005438
X0004899Y0011516
X0011621Y0005317
X0019051Y0008076
X0036688Y0009617
X0048215Y0010738
X0048083Y0003862
X0055303Y00043
X0060723Y0004221
X01433Y0016233
X0146764
Y0020078
X01433
X0152106Y001079
Y0007862
X0155034
Y001079
X0176159Y0011516
X017632Y0005438
X018288Y0005317
X0190311Y0008076
X0207947Y0009617
X0219475Y0010738
X0219343Y0003862
X0226562Y00043
X0231982Y0004221
X0314559Y0016233
X0318023
Y0020078
X0314559
X0323365Y001079
Y0007862
X0326294
Y001079
X0347418Y0011516
X0347579Y0005438
X0354139Y0005317
X036157Y0008076
X0379206Y0009617
X0390734Y0010738
X0390602Y0003862
X0397822Y00043
X0403241Y0004221
X0485819Y0016233
X0489283
Y0020078
X0485819
X0494625Y001079
Y0007862
X0497553
Y001079
X0518678Y0011516
X0518839Y0005438
X0525399Y0005317
X053283Y0008076
X0550466Y0009617
X0561994Y0010738
X0561862Y0003862
X0569081Y00043
X0574501Y0004221
X0657078Y0016233
X0660542
Y0020078
X0657078
X0665884Y001079
Y0007862
X0668813
Y001079
X0689937Y0011516
X0690098Y0005438
X0696658Y0005317
X0704089Y0008076
X0721725Y0009617
X0733253Y0010738
X0733121Y0003862
X0740341Y00043
X074576Y0004221
X0828337Y0016233
X0831802
Y0020078
X0828337
X0837144Y001079
Y0007862
X0840072
Y001079
X0831802Y0024314
X0828337
X0826728Y0037415
X0835197Y0044831
X0826904Y0057023
X0822425Y0056968
X0818724Y0056897
X0829909Y0067141
X0851753Y0063541
Y0053733
X0847694Y0100675
X0843871
X0840164
X0833008Y0096363
X0837144Y0171642
X0840072
Y0174571
X0837144
X0784762Y0148256
Y0143594
Y0139112
X0774509Y0143104
X0771532Y0146186
X0767493Y0148111
X0769922Y0135691
X0769308Y0119063
Y0116135
X0766379
Y0119063
X0767474Y0110378
X0760108Y0111035
Y0113963
X0757179
Y0111035
X0776479Y0110378
X0785484
X0794488
X0803493
X0812498
X0810915Y0077037
X0803584Y007642
X079455Y0077369
X0783791Y0067257
X0782223Y0061572
X07719Y0062287
X07685Y0058887
X0763573Y0065047
X0757197Y0064438
X0746718Y005967
X0742123Y0063084
X0740623Y0075564
X0726664Y0075956
X0729694Y0081336
X0736031Y0085968
X0744876Y0098077
X074108Y0128062
X0737992Y0130458
X073404Y0130274
X0737854Y0134916
X0736368Y0144724
X0732707Y0153947
X0740955
X0740341Y0168081
X074576Y0168001
X0733121Y0167643
X0733253Y0174519
X0721725Y0173398
X0704089Y0171857
X0696658Y0169098
X0690098Y0169219
X0689937Y0175296
X0668813Y0174571
Y0171642
X0665884
Y0174571
X0689606Y012336
X0699771Y0123189
X0709675Y0123213
X0717856Y0123319
X0718103Y0128369
X0714083Y0108621
X0707336Y0105326
Y0101771
X0701684
X0701649Y0105219
X070172Y0098146
X07Y0094204
X070928Y0095221
X0712452Y0089219
X0714818Y0081494
X0710964Y0068544
X0715417Y0064758
X0706375Y0064292
X0692905Y005921
X0692857Y0055343
X0697497Y0050365
X0701533Y0050474
X0680494Y0053733
Y0063541
X0658649Y0067141
X0663937Y0044831
X0660542Y0024314
X0657078
X0661749Y0096363
X0668904Y0100675
X0672612
X0676435
X072714Y005776
X0733121Y0048059
X0728079Y0031453
X0740301Y002909
X0738453Y0022785
X0749886Y0037415
X0755038Y0042935
X0756445Y004883
X0767381Y0033998
X0766499Y002497
X0778333Y0033591
X079246Y0056595
X077119Y0071944
X0755607Y0139494
X0613503Y0139112
Y0143594
Y0148256
X0600273Y0146186
X0596233Y0148111
X060325Y0143104
X0598663Y0135691
X0598048Y0119063
Y0116135
X059512
Y0119063
X0596214Y0110378
X0588848Y0111035
Y0113963
X058592
Y0111035
X0605219Y0110378
X0614224
X0623229
X0632234
X0641238
X0639656Y0077037
X0632325Y007642
X0623291Y0077369
X0612532Y0067257
X0610963Y0061572
X0600641Y0062287
X059724Y0058887
X0592314Y0065047
X0585938Y0064438
X0575459Y005967
X0570864Y0063084
X0569364Y0075564
X0555404Y0075956
X0558435Y0081336
X0564772Y0085968
X0573617Y0098077
X056982Y0128062
X0566733Y0130458
X056278Y0130274
X0566595Y0134916
X0565109Y0144724
X0561447Y0153947
X0569696
X0569081Y0168081
X0574501Y0168001
X0561862Y0167643
X0561994Y0174519
X0550466Y0173398
X053283Y0171857
X0525399Y0169098
X0518839Y0169219
X0518678Y0175296
X0518347Y012336
X0528511Y0123189
X0538416Y0123213
X0546597Y0123319
X0546843Y0128369
X0542824Y0108621
X0536076Y0105326
Y0101771
X0530425
X0530389Y0105219
X053046Y0098146
X0528741Y0094204
X0538021Y0095221
X0541192Y0089219
X0543558Y0081494
X0539705Y0068544
X0544158Y0064758
X0535115Y0064292
X0521646Y005921
X0521598Y0055343
X0526238Y0050365
X0530274Y0050474
X0509235Y0053733
Y0063541
X0505175Y0100675
X0501353
X055588Y005776
X0561862Y0048059
X0556819Y0031453
X0569042Y002909
X0567194Y0022785
X0578627Y0037415
X0583779Y0042935
X0585185Y004883
X0596122Y0033998
X0595239Y002497
X0607073Y0033591
X0621201Y0056595
X0647465Y0056897
X0651166Y0056968
X0655644Y0057023
X0655468Y0037415
X059993Y0071944
X0584347Y0139494
X0497553Y0171642
X0494625
Y0174571
X0497553
X0497645Y0100675
X0490489Y0096363
X048739Y0067141
X0484385Y0057023
X0479907Y0056968
X0476205Y0056897
X0449941Y0056595
X0439704Y0061572
X0441273Y0067257
X0429382Y0062287
X0425981Y0058887
X0421054Y0065047
X0414678Y0064438
X0404199Y005967
X0399604Y0063084
X0398104Y0075564
X0384145Y0075956
X0387176Y0081336
X0393513Y0085968
X0402358Y0098077
X0414661Y0111035
Y0113963
X0417589
Y0111035
X0424955Y0110378
X0423861Y0116135
X0426789
Y0119063
X0423861
X043396Y0110378
X0442965
X0451969
X0460974
X0469979
X0468396Y0077037
X0461065Y007642
X0452032Y0077369
X0428671Y0071944
X0413926Y004883
X0412519Y0042935
X0407368Y0037415
X0397783Y002909
X0395934Y0022785
X038556Y0031453
X0390602Y0048059
X0384621Y005776
X0372898Y0064758
X0368445Y0068544
X0363856Y0064292
X0350387Y005921
X0350338Y0055343
X0354979Y0050365
X0359014Y0050474
X0372299Y0081494
X0369933Y0089219
X0366761Y0095221
X0364817Y0101771
Y0105326
X035913Y0105219
X0359166Y0101771
X0359201Y0098146
X0357482Y0094204
X0371565Y0108621
X0375337Y0123319
X0375584Y0128369
X0367157Y0123213
X0357252Y0123189
X0347087Y012336
X0347579Y0169219
X0347418Y0175296
X0354139Y0169098
X036157Y0171857
X0379206Y0173398
X0390734Y0174519
X0390602Y0167643
X0397822Y0168081
X0403241Y0168001
X0398436Y0153947
X0390188
X0393849Y0144724
X0395335Y0134916
X0395473Y0130458
X0391521Y0130274
X0398561Y0128062
X0413088Y0139494
X0427403Y0135691
X0431991Y0143104
X0429013Y0146186
X0424974Y0148111
X0442243Y0148256
Y0143594
Y0139112
X0435814Y0033591
X0424862Y0033998
X042398Y002497
X0485819Y0024314
X0489283
X0484209Y0037415
X0492678Y0044831
X0337975Y0053733
Y0063541
X0316131Y0067141
X0313125Y0057023
X0308647Y0056968
X0304946Y0056897
X0278682Y0056595
X0268445Y0061572
X0270013Y0067257
X0258122Y0062287
X0254721Y0058887
X0249795Y0065047
X0243419Y0064438
X023294Y005967
X0228345Y0063084
X0226845Y0075564
X0212886Y0075956
X0215916Y0081336
X0222253Y0085968
X0231098Y0098077
X0243401Y0111035
Y0113963
X024633
Y0111035
X0253696Y0110378
X0252601Y0116135
X025553
Y0119063
X0252601
X0262701Y0110378
X0271705
X028071
X0289715
X029872
X031923Y0096363
X0326385Y0100675
X0330093
X0333916
X0297137Y0077037
X0289806Y007642
X0280772Y0077369
X0257412Y0071944
X0242666Y004883
X024126Y0042935
X0236108Y0037415
X0226523Y002909
X0224675Y0022785
X0214301Y0031453
X0219343Y0048059
X0213362Y005776
X0201639Y0064758
X0197186Y0068544
X0192596Y0064292
X020104Y0081494
X0198673Y0089219
X0195502Y0095221
X0193558Y0101771
Y0105326
X0200305Y0108621
X0204078Y0123319
X0204325Y0128369
X0195897Y0123213
X0220262Y0130274
X0224214Y0130458
X0224076Y0134916
X0227302Y0128062
X022259Y0144724
X0218929Y0153947
X0227177
X0226562Y0168081
X0231982Y0168001
X0219343Y0167643
X0219475Y0174519
X0207947Y0173398
X0190311Y0171857
X0241828Y0139494
X0256144Y0135691
X0260731Y0143104
X0257754Y0146186
X0253715Y0148111
X0270984Y0148256
Y0143594
Y0139112
X0323365Y0171642
X0326294
Y0174571
X0323365
X0321418Y0044831
X0312949Y0037415
X0314559Y0024314
X0318023
X0264554Y0033591
X0253603Y0033998
X025272Y002497
X0187755Y0050474
X0183719Y0050365
X0179079Y0055343
X0179127Y005921
X0166716Y0063541
Y0053733
X0150159Y0044831
X014169Y0037415
X01433Y0024314
X0146764
X0141866Y0057023
X0137388Y0056968
X0133687Y0056897
X0144871Y0067141
X0125877Y0077037
X0118547Y007642
X0109513Y0077369
X0098754Y0067257
X0097185Y0061572
X0086863Y0062287
X0083462Y0058887
X0078535Y0065047
X007216Y0064438
X0061681Y005967
X0057085Y0063084
X0055585Y0075564
X0041626Y0075956
X0044657Y0081336
X0050994Y0085968
X0059839Y0098077
X0072142Y0111035
Y0113963
X007507
Y0111035
X0082436Y0110378
X0081342Y0116135
X008427
Y0119063
X0081342
X0091441Y0110378
X0100446
X0109451
X0118456
X012746
X014797Y0096363
X0155126Y0100675
X0158834
X0162656
X0187906Y0101771
X0187871Y0105219
X0187942Y0098146
X0186222Y0094204
X0185992Y0123189
X0175828Y012336
X017632Y0169219
X0176159Y0175296
X018288Y0169098
X0155034Y0171642
X0152106
Y0174571
X0155034
X0099725Y0148256
Y0143594
Y0139112
X0089472Y0143104
X0086495Y0146186
X0082455Y0148111
X0084885Y0135691
X0070569Y0139494
X0052816Y0134916
X0052954Y0130458
X0049002Y0130274
X0056042Y0128062
X0051331Y0144724
X0047669Y0153947
X0055917
X0055303Y0168081
X0060723Y0168001
X0048083Y0167643
X0048215Y0174519
X0036688Y0173398
X0033065Y0128369
X0032818Y0123319
X0042102Y005776
X0048083Y0048059
X0043041Y0031453
X0055264Y002909
X0053415Y0022785
X0064849Y0037415
X007Y0042935
X0071407Y004883
X0082344Y0033998
X0081461Y002497
X0093295Y0033591
X0107423Y0056595
X0086152Y0071944
X003038Y0064758
X0025927Y0068544
X0021337Y0064292
X0007868Y005921
X0007819Y0055343
X001246Y0050365
X0016495Y0050474
X002978Y0081494
X0027414Y0089219
X0024242Y0095221
X0022298Y0101771
Y0105326
X0016611Y0105219
X0016647Y0101771
X0016682Y0098146
X0014963Y0094204
X0029046Y0108621
X0024638Y0123213
X0014733Y0123189
X0004569Y012336
X000506Y0169219
X0004899Y0175296
X0011621Y0169098
X0019051Y0171857
X0016495Y0214255
X001246Y0214145
X0007819Y0219124
X0007868Y0222991
X0021337Y0228072
X0025927Y0232325
X003038Y0228539
X002978Y0245275
X0027414Y0253
X0024242Y0259001
X0022298Y0265552
Y0269106
X0016611Y0269
X0016647Y0265552
X0016682Y0261927
X0014963Y0257985
X0029046Y0272402
X0024638Y0286994
X0014733Y028697
X0004569Y0287141
X000506Y0332999
X0011621Y0332879
X0048083Y0331423
X0055303Y0331861
X0060723Y0331782
X0055917Y0317728
X0047669
X0051331Y0308505
X0052816Y0298696
X0052954Y0294239
X0049002Y0294055
X0056042Y0291843
X0033065Y029215
X0032818Y02871
X0072142Y0277744
X007507
Y0274815
X0072142
X0082436Y0274159
X0081342Y0279915
X008427
Y0282844
X0081342
X0091441Y0274159
X0100446
X0109451
X0118456
X012746
X014797Y0260144
X0155126Y0264456
X0158834
X0162656
X0187906Y0265552
X0187871Y0269
X0187942Y0261927
X0186222Y0257985
X0185992Y028697
X0175828Y0287141
X017632Y0332999
X018288Y0332879
X0099725Y0312037
Y0307374
Y0302893
X0089472Y0306885
X0086495Y0309967
X0082455Y0311892
X0084885Y0299471
X0070569Y0303275
X0059839Y0261857
X0050994Y0249748
X0044657Y0245116
X0041626Y0239737
X0055585Y0239345
X0057085Y0226864
X0061681Y0223451
X007216Y0228219
X0078535Y0228827
X0083462Y0222667
X0086863Y0226068
X0086152Y0235725
X0098754Y0231038
X0097185Y0225353
X0107423Y0220375
X0109513Y024115
X0118547Y0240201
X0125877Y0240818
X0133687Y0220678
X0137388Y0220749
X0141866Y0220803
X0144871Y0230922
X0166716Y0227322
Y0217514
X0179079Y0219124
X0179127Y0222991
X0183719Y0214145
X0187755Y0214255
X0150159Y0208611
X014169Y0201196
X01433Y0188095
X0146764
Y0183859
X01433
Y0180014
X0146764
X0093295Y0197372
X0082344Y0197779
X0081461Y018875
X0064849Y0201196
X007Y0206716
X0071407Y021261
X0048083Y0211839
X0042102Y0221541
X0043041Y0195234
X0055264Y019287
X0053415Y0186565
X0214301Y0195234
X0226523Y019287
X0224675Y0186565
X0236108Y0201196
X024126Y0206716
X0242666Y021261
X0243419Y0228219
X0249795Y0228827
X0254721Y0222667
X0258122Y0226068
X0257412Y0235725
X0270013Y0231038
X0268445Y0225353
X0278682Y0220375
X0280772Y024115
X0289806Y0240201
X0297137Y0240818
X0304946Y0220678
X0308647Y0220749
X0313125Y0220803
X0316131Y0230922
X0337975Y0227322
Y0217514
X0321418Y0208611
X0312949Y0201196
X0314559Y0188095
X0318023
Y0183859
X0314559
Y0180014
X0318023
X0264554Y0197372
X0253603Y0197779
X025272Y018875
X023294Y0223451
X0228345Y0226864
X0226845Y0239345
X0212886Y0239737
X0215916Y0245116
X0222253Y0249748
X0231098Y0261857
X0243401Y0274815
Y0277744
X024633
Y0274815
X0253696Y0274159
X0252601Y0279915
X025553
Y0282844
X0252601
X0262701Y0274159
X0271705
X028071
X0289715
X029872
X031923Y0260144
X0326385Y0264456
X0330093
X0333916
X0270984Y0302893
Y0307374
Y0312037
X0257754Y0309967
X0253715Y0311892
X0260731Y0306885
X0256144Y0299471
X0241828Y0303275
X0224076Y0298696
X0224214Y0294239
X0220262Y0294055
X0227302Y0291843
X022259Y0308505
X0218929Y0317728
X0227177
X0226562Y0331861
X0231982Y0331782
X0219343Y0331423
X0204325Y029215
X0204078Y02871
X0195897Y0286994
X0200305Y0272402
X0193558Y0269106
Y0265552
X0195502Y0259001
X0198673Y0253
X020104Y0245275
X0197186Y0232325
X0201639Y0228539
X0192596Y0228072
X0213362Y0221541
X0219343Y0211839
X0354979Y0214145
X0359014Y0214255
X0350338Y0219124
X0350387Y0222991
X0363856Y0228072
X0368445Y0232325
X0372898Y0228539
X0372299Y0245275
X0369933Y0253
X0366761Y0259001
X0364817Y0265552
Y0269106
X035913Y0269
X0359166Y0265552
X0359201Y0261927
X0357482Y0257985
X0371565Y0272402
X0375337Y02871
X0375584Y029215
X0367157Y0286994
X0357252Y028697
X0347087Y0287141
X0347579Y0332999
X0354139Y0332879
X0390602Y0331423
X0397822Y0331861
X0403241Y0331782
X0398436Y0317728
X0390188
X0393849Y0308505
X0395335Y0298696
X0395473Y0294239
X0391521Y0294055
X0398561Y0291843
X0413088Y0303275
X0427403Y0299471
X0431991Y0306885
X0429013Y0309967
X0424974Y0311892
X0442243Y0312037
Y0307374
Y0302893
X0442965Y0274159
X0451969
X0460974
X0469979
X0490489Y0260144
X0497645Y0264456
X048739Y0230922
X0484385Y0220803
X0479907Y0220749
X0476205Y0220678
X0449941Y0220375
X0439704Y0225353
X0441273Y0231038
X0429382Y0226068
X0425981Y0222667
X0421054Y0228827
X0414678Y0228219
X0404199Y0223451
X0399604Y0226864
X0398104Y0239345
X0384145Y0239737
X0387176Y0245116
X0393513Y0249748
X0402358Y0261857
X0414661Y0274815
Y0277744
X0417589
Y0274815
X0424955Y0274159
X0423861Y0279915
X0426789
Y0282844
X0423861
X043396Y0274159
X0428671Y0235725
X0452032Y024115
X0461065Y0240201
X0468396Y0240818
X0484209Y0201196
X0485819Y0188095
X0489283
Y0183859
X0485819
Y0180014
X0489283
X0492678Y0208611
X0435814Y0197372
X0424862Y0197779
X042398Y018875
X0407368Y0201196
X0412519Y0206716
X0413926Y021261
X0390602Y0211839
X0384621Y0221541
X038556Y0195234
X0397783Y019287
X0395934Y0186565
X0509235Y0217514
Y0227322
X0521646Y0222991
X0521598Y0219124
X0526238Y0214145
X0530274Y0214255
X0535115Y0228072
X0539705Y0232325
X0544158Y0228539
X0543558Y0245275
X0541192Y0253
X0538021Y0259001
X0536076Y0265552
Y0269106
X0530389Y0269
X0530425Y0265552
X053046Y0261927
X0528741Y0257985
X0542824Y0272402
X0546597Y02871
X0546843Y029215
X0538416Y0286994
X0528511Y028697
X0518347Y0287141
X0505175Y0264456
X0501353
X0573617Y0261857
X0564772Y0249748
X0558435Y0245116
X0555404Y0239737
X0569364Y0239345
X0570864Y0226864
X0575459Y0223451
X0585938Y0228219
X0592314Y0228827
X059724Y0222667
X0600641Y0226068
X059993Y0235725
X0612532Y0231038
X0610963Y0225353
X0621201Y0220375
X0623291Y024115
X0632325Y0240201
X0639656Y0240818
X0647465Y0220678
X0651166Y0220749
X0655644Y0220803
X0655468Y0201196
X0607073Y0197372
X0596122Y0197779
X0595239Y018875
X0578627Y0201196
X0583779Y0206716
X0585185Y021261
X0561862Y0211839
X055588Y0221541
X0556819Y0195234
X0569042Y019287
X0567194Y0186565
X058592Y0274815
Y0277744
X0588848
Y0274815
X0596214Y0274159
X059512Y0279915
X0598048
Y0282844
X059512
X0605219Y0274159
X0614224
X0623229
X0632234
X0641238
X0613503Y0302893
Y0307374
Y0312037
X0600273Y0309967
X0596233Y0311892
X060325Y0306885
X0598663Y0299471
X0584347Y0303275
X0566595Y0298696
X0566733Y0294239
X056278Y0294055
X056982Y0291843
X0565109Y0308505
X0561447Y0317728
X0569696
X0569081Y0331861
X0574501Y0331782
X0561862Y0331423
X0525399Y0332879
X0518839Y0332999
X0690098
X0696658Y0332879
X0733121Y0331423
X0740341Y0331861
X074576Y0331782
X0740955Y0317728
X0732707
X0736368Y0308505
X0737854Y0298696
X0737992Y0294239
X073404Y0294055
X074108Y0291843
X0718103Y029215
X0717856Y02871
X0709675Y0286994
X0699771Y028697
X0689606Y0287141
X0701649Y0269
X0701684Y0265552
X070172Y0261927
X07Y0257985
X070928Y0259001
X0707336Y0265552
Y0269106
X0714083Y0272402
X0712452Y0253
X0714818Y0245275
X0729694Y0245116
X0726664Y0239737
X0740623Y0239345
X0742123Y0226864
X0746718Y0223451
X0757197Y0228219
X0763573Y0228827
X07685Y0222667
X07719Y0226068
X077119Y0235725
X0783791Y0231038
X0782223Y0225353
X079246Y0220375
X079455Y024115
X0803584Y0240201
X0810915Y0240818
X0812498Y0274159
X0803493
X0794488
X0785484
X0776479
X0767474
X0766379Y0279915
X0769308
Y0282844
X0766379
X0760108Y0277744
X0757179
Y0274815
X0760108
X0744876Y0261857
X0736031Y0249748
X072714Y0221541
X0733121Y0211839
X0728079Y0195234
X0740301Y019287
X0738453Y0186565
X0749886Y0201196
X0755038Y0206716
X0756445Y021261
X0767381Y0197779
X0766499Y018875
X0778333Y0197372
X0701533Y0214255
X0697497Y0214145
X0692857Y0219124
X0692905Y0222991
X0680494Y0227322
Y0217514
X0663937Y0208611
X0660542Y0188095
X0657078
Y0183859
X0660542
Y0180014
X0657078
X0658649Y0230922
X0661749Y0260144
X0668904Y0264456
X0672612
X0676435
X0706375Y0228072
X0710964Y0232325
X0715417Y0228539
X0755607Y0303275
X0769922Y0299471
X0774509Y0306885
X0771532Y0309967
X0767493Y0311892
X0784762Y0312037
Y0307374
Y0302893
X0833008Y0260144
X0840164Y0264456
X0843871
X0847694
X0851753Y0227322
Y0217514
X0835197Y0208611
X0826728Y0201196
X0828337Y0188095
X0831802
Y0183859
X0828337
Y0180014
X0831802
X0826904Y0220803
X0822425Y0220749
X0818724Y0220678
X0829909Y0230922
X0837144Y0335423
X0840072
Y0338352
X0837144
X0831802Y0343795
X0828337
Y0347639
X0831802
Y0351876
X0828337
X0826728Y0364977
X0835197Y0372392
X0826904Y0384584
X0822425Y0384529
X0818724Y0384459
X0829909Y0394703
X0851753Y0391103
Y0381295
X0847694Y0428236
X0843871
X0840164
X0833008Y0423924
X0812498Y0437939
X0803493
X0794488
X0785484
X0776479
X0767474
X0766379Y0443696
X0769308
Y0446624
X0766379
X0760108Y0441524
X0757179
Y0438596
X0760108
X0744876Y0425638
X0736031Y0413529
X0729694Y0408897
X0726664Y0403517
X0740623Y0403126
X0742123Y0390645
X0746718Y0387231
X0757197Y0392
X0763573Y0392608
X07685Y0386448
X07719Y0389849
X077119Y0399505
X0783791Y0394819
X0782223Y0389134
X079246Y0384156
X079455Y0404931
X0803584Y0403981
X0810915Y0404599
X0778333Y0361153
X0767381Y0361559
X0766499Y0352531
X0749886Y0364977
X0755038Y0370496
X0756445Y0376391
X0733121Y037562
X072714Y0385321
X0715417Y039232
X0710964Y0396105
X0706375Y0391853
X0692905Y0386772
X0692857Y0382905
X0697497Y0377926
X0701533Y0378035
X0680494Y0381295
Y0391103
X0658649Y0394703
X0663937Y0372392
X0660542Y0351876
X0657078
Y0347639
X0660542
Y0343795
X0657078
X0665884Y0338352
Y0335423
X0668813
Y0338352
X0689937Y0339077
X0704089Y0335638
X0721725Y0337179
X0733253Y0338299
X0738453Y0350346
X0740301Y0356651
X0728079Y0359014
X0714818Y0409056
X0712452Y041678
X070928Y0422782
X0707336Y0429333
Y0432887
X0701649Y043278
X0701684Y0429333
X070172Y0425707
X07Y0421766
X0714083Y0436182
X0717856Y0450881
X0718103Y045593
X0709675Y0450774
X0699771Y045075
X0689606Y0450921
X0676435Y0428236
X0672612
X0668904
X0661749Y0423924
X073404Y0457836
X0737992Y0458019
X0737854Y0462477
X074108Y0455623
X0736368Y0472286
X0732707Y0481508
X0740955
X0755607Y0467055
X0769922Y0463252
X0774509Y0470666
X0771532Y0473747
X0767493Y0475672
X0784762Y0475817
Y0471155
Y0466673
X0613503
Y0471155
Y0475817
X0600273Y0473747
X0596233Y0475672
X060325Y0470666
X0598663Y0463252
X0598048Y0446624
Y0443696
X059512
Y0446624
X0596214Y0437939
X0588848Y0438596
Y0441524
X058592
Y0438596
X0605219Y0437939
X0614224
X0623229
X0632234
X0641238
X0639656Y0404599
X0632325Y0403981
X0623291Y0404931
X0612532Y0394819
X0610963Y0389134
X0600641Y0389849
X059724Y0386448
X0592314Y0392608
X0585938Y0392
X0575459Y0387231
X0570864Y0390645
X0569364Y0403126
X0555404Y0403517
X0558435Y0408897
X0564772Y0413529
X0573617Y0425638
X056982Y0455623
X0566733Y0458019
X056278Y0457836
X0566595Y0462477
X0565109Y0472286
X0561447Y0481508
X0569696
X0584347Y0467055
X0546843Y045593
X0546597Y0450881
X0538416Y0450774
X0528511Y045075
X0518347Y0450921
X0530389Y043278
X0530425Y0429333
X053046Y0425707
X0528741Y0421766
X0538021Y0422782
X0536076Y0429333
Y0432887
X0542824Y0436182
X0541192Y041678
X0543558Y0409056
X0539705Y0396105
X0544158Y039232
X0535115Y0391853
X0521646Y0386772
X0521598Y0382905
X0526238Y0377926
X0530274Y0378035
X0509235Y0381295
Y0391103
X0505175Y0428236
X0501353
X055588Y0385321
X0561862Y037562
X0556819Y0359014
X0569042Y0356651
X0567194Y0350346
X0561994Y0338299
X0550466Y0337179
X053283Y0335638
X0518678Y0339077
X0578627Y0364977
X0583779Y0370496
X0585185Y0376391
X0596122Y0361559
X0595239Y0352531
X0607073Y0361153
X0621201Y0384156
X0647465Y0384459
X0651166Y0384529
X0655644Y0384584
X0655468Y0364977
X059993Y0399505
X048739Y0394703
X0484385Y0384584
X0479907Y0384529
X0476205Y0384459
X0449941Y0384156
X0439704Y0389134
X0441273Y0394819
X0429382Y0389849
X0425981Y0386448
X0421054Y0392608
X0414678Y0392
X0404199Y0387231
X0399604Y0390645
X0398104Y0403126
X0384145Y0403517
X0387176Y0408897
X0393513Y0413529
X0402358Y0425638
X0414661Y0438596
Y0441524
X0417589
Y0438596
X0424955Y0437939
X0423861Y0443696
X0426789
Y0446624
X0423861
X043396Y0437939
X0442965
X0451969
X0460974
X0469979
X0490489Y0423924
X0497645Y0428236
X0468396Y0404599
X0461065Y0403981
X0452032Y0404931
X0428671Y0399505
X0413926Y0376391
X0412519Y0370496
X0407368Y0364977
X0397783Y0356651
X0395934Y0350346
X0390734Y0338299
X0379206Y0337179
X036157Y0335638
X0347418Y0339077
X0354979Y0377926
X0359014Y0378035
X0350338Y0382905
X0350387Y0386772
X0363856Y0391853
X0368445Y0396105
X0372898Y039232
X0372299Y0409056
X0369933Y041678
X0366761Y0422782
X0364817Y0429333
Y0432887
X035913Y043278
X0359166Y0429333
X0359201Y0425707
X0357482Y0421766
X0371565Y0436182
X0375337Y0450881
X0375584Y045593
X0367157Y0450774
X0357252Y045075
X0347087Y0450921
X0391521Y0457836
X0395473Y0458019
X0395335Y0462477
X0398561Y0455623
X0393849Y0472286
X0390188Y0481508
X0398436
X0413088Y0467055
X0427403Y0463252
X0431991Y0470666
X0429013Y0473747
X0424974Y0475672
X0442243Y0475817
Y0471155
Y0466673
X0435814Y0361153
X0424862Y0361559
X042398Y0352531
X038556Y0359014
X0390602Y037562
X0384621Y0385321
X0484209Y0364977
X0485819Y0351876
X0489283
Y0347639
X0485819
Y0343795
X0489283
X0494625Y0338352
Y0335423
X0497553
Y0338352
X0492678Y0372392
X0337975Y0381295
Y0391103
X0316131Y0394703
X0313125Y0384584
X0308647Y0384529
X0304946Y0384459
X0278682Y0384156
X0268445Y0389134
X0270013Y0394819
X0258122Y0389849
X0254721Y0386448
X0249795Y0392608
X0243419Y0392
X023294Y0387231
X0228345Y0390645
X0226845Y0403126
X0212886Y0403517
X0215916Y0408897
X0222253Y0413529
X0231098Y0425638
X0243401Y0438596
Y0441524
X024633
Y0438596
X0253696Y0437939
X0252601Y0443696
X025553
Y0446624
X0252601
X0262701Y0437939
X0271705
X028071
X0289715
X029872
X031923Y0423924
X0326385Y0428236
X0330093
X0333916
X0297137Y0404599
X0289806Y0403981
X0280772Y0404931
X0257412Y0399505
X0242666Y0376391
X024126Y0370496
X0236108Y0364977
X0226523Y0356651
X0224675Y0350346
X0219475Y0338299
X0207947Y0337179
X0190311Y0335638
X0214301Y0359014
X0219343Y037562
X0213362Y0385321
X0201639Y039232
X0197186Y0396105
X0192596Y0391853
X020104Y0409056
X0198673Y041678
X0195502Y0422782
X0193558Y0429333
Y0432887
X0200305Y0436182
X0204078Y0450881
X0204325Y045593
X0195897Y0450774
X0220262Y0457836
X0224214Y0458019
X0224076Y0462477
X0227302Y0455623
X022259Y0472286
X0218929Y0481508
X0227177
X0241828Y0467055
X0256144Y0463252
X0260731Y0470666
X0257754Y0473747
X0253715Y0475672
X0270984Y0475817
Y0471155
Y0466673
X0264554Y0361153
X0253603Y0361559
X025272Y0352531
X0314559Y0351876
X0318023
Y0347639
X0314559
Y0343795
X0318023
X0323365Y0338352
Y0335423
X0326294
Y0338352
X0321418Y0372392
X0312949Y0364977
X0187755Y0378035
X0183719Y0377926
X0179079Y0382905
X0179127Y0386772
X0166716Y0391103
Y0381295
X0150159Y0372392
X014169Y0364977
X01433Y0351876
X0146764
Y0347639
X01433
Y0343795
X0146764
X0152106Y0338352
Y0335423
X0155034
Y0338352
X0176159Y0339077
X0141866Y0384584
X0137388Y0384529
X0133687Y0384459
X0144871Y0394703
X0125877Y0404599
X0118547Y0403981
X0109513Y0404931
X0098754Y0394819
X0097185Y0389134
X0086863Y0389849
X0083462Y0386448
X0078535Y0392608
X007216Y0392
X0061681Y0387231
X0057085Y0390645
X0055585Y0403126
X0041626Y0403517
X0044657Y0408897
X0050994Y0413529
X0059839Y0425638
X0072142Y0438596
Y0441524
X007507
Y0438596
X0082436Y0437939
X0081342Y0443696
X008427
Y0446624
X0081342
X0091441Y0437939
X0100446
X0109451
X0118456
X012746
X014797Y0423924
X0155126Y0428236
X0158834
X0162656
X0187906Y0429333
X0187871Y043278
X0187942Y0425707
X0186222Y0421766
X0185992Y045075
X0175828Y0450921
X0099725Y0466673
Y0471155
Y0475817
X0086495Y0473747
X0082455Y0475672
X0089472Y0470666
X0084885Y0463252
X0070569Y0467055
X0052816Y0462477
X0052954Y0458019
X0049002Y0457836
X0056042Y0455623
X0051331Y0472286
X0047669Y0481508
X0055917
X0033065Y045593
X0032818Y0450881
X0042102Y0385321
X0048083Y037562
X0043041Y0359014
X0055264Y0356651
X0053415Y0350346
X0048215Y0338299
X0036688Y0337179
X0064849Y0364977
X007Y0370496
X0071407Y0376391
X0082344Y0361559
X0081461Y0352531
X0093295Y0361153
X0107423Y0384156
X0086152Y0399505
X003038Y039232
X0025927Y0396105
X0021337Y0391853
X0007868Y0386772
X0007819Y0382905
X001246Y0377926
X0016495Y0378035
X002978Y0409056
X0027414Y041678
X0024242Y0422782
X0022298Y0429333
Y0432887
X0016611Y043278
X0016647Y0429333
X0016682Y0425707
X0014963Y0421766
X0029046Y0436182
X0024638Y0450774
X0014733Y045075
X0004569Y0450921
X0004899Y0339077
X0019051Y0335638
Y0499418
X0011621Y0496659
X000506Y049678
X0004899Y0502857
X001246Y0541707
X0016495Y0541816
X0007819Y0546685
X0007868Y0550552
X0021337Y0555633
X0025927Y0559886
X003038Y05561
X002978Y0572836
X0027414Y0580561
X0024242Y0586563
X0022298Y0593113
Y0596668
X0016611Y0596561
X0016647Y0593113
X0016682Y0589488
X0014963Y0585546
X0029046Y0599963
X0024638Y0614555
X0014733Y0614531
X0004569Y0614702
X0032818Y0614661
X0033065Y0619711
X0049002Y0621616
X0052954Y06218
X0052816Y0626258
X0056042Y0619404
X0051331Y0636066
X0047669Y0645289
X0055917
X0070569Y0630836
X0084885Y0627033
X0089472Y0634446
X0086495Y0637528
X0082455Y0639453
X0099725Y0639598
Y0634936
Y0630454
X0100446Y060172
X0109451
X0118456
X012746
X014797Y0587705
X0155126Y0592017
X0158834
X0162656
X0187906Y0593113
X0187871Y0596561
X0187942Y0589488
X0186222Y0585546
X0185992Y0614531
X0175828Y0614702
X0179127Y0550552
X0179079Y0546685
X0183719Y0541707
X0187755Y0541816
X0166716Y0545075
Y0554883
X0144871Y0558483
X0141866Y0548364
X0137388Y054831
X0133687Y0548239
X0107423Y0547937
X0097185Y0552914
X0098754Y0558599
X0086863Y0553629
X0083462Y0550229
X0078535Y0556388
X007216Y055578
X0061681Y0551012
X0057085Y0554426
X0055585Y0566906
X0041626Y0567298
X0044657Y0572677
X0050994Y057731
X0059839Y0589419
X0072142Y0602377
Y0605305
X007507
Y0602377
X0082436Y060172
X0081342Y0607477
X008427
Y0610405
X0081342
X0091441Y060172
X0086152Y0563286
X0109513Y0568711
X0118547Y0567762
X0125877Y0568379
X014169Y0528757
X01433Y0515656
X0146764
Y051142
X01433
Y0507575
X0146764
X0152106Y0502132
Y0499204
X0155034
Y0502132
X0176159Y0502857
X017632Y049678
X018288Y0496659
X0150159Y0536172
X0093295Y0524933
X0082344Y052534
X0081461Y0516312
X0064849Y0528757
X007Y0534277
X0071407Y0540172
X0048083Y0539401
X0042102Y0549102
X0043041Y0522795
X0055264Y0520432
X0053415Y0514127
X0048215Y050208
X0048083Y0495204
X0055303Y0495642
X0060723Y0495563
X0036688Y0500959
X0190311Y0499418
X0207947Y0500959
X0219475Y050208
X0219343Y0495204
X0226562Y0495642
X0231982Y0495563
X0224675Y0514127
X0226523Y0520432
X0214301Y0522795
X0219343Y0539401
X0213362Y0549102
X0212886Y0567298
X0215916Y0572677
X0222253Y057731
X0226845Y0566906
X0228345Y0554426
X023294Y0551012
X0243419Y055578
X0249795Y0556388
X0254721Y0550229
X0258122Y0553629
X0257412Y0563286
X0270013Y0558599
X0268445Y0552914
X0278682Y0547937
X0280772Y0568711
X0289806Y0567762
X0297137Y0568379
X0304946Y0548239
X0308647Y054831
X0313125Y0548364
X0316131Y0558483
X0337975Y0554883
Y0545075
X0321418Y0536172
X0312949Y0528757
X0314559Y0515656
X0318023
Y051142
X0314559
Y0507575
X0318023
X0323365Y0502132
Y0499204
X0326294
Y0502132
X0264554Y0524933
X0253603Y052534
X025272Y0516312
X0236108Y0528757
X024126Y0534277
X0242666Y0540172
X0201639Y05561
X0197186Y0559886
X0192596Y0555633
X020104Y0572836
X0198673Y0580561
X0195502Y0586563
X0193558Y0593113
Y0596668
X0200305Y0599963
X0204078Y0614661
X0204325Y0619711
X0195897Y0614555
X0220262Y0621616
X0224214Y06218
X0224076Y0626258
X0227302Y0619404
X022259Y0636066
X0218929Y0645289
X0227177
X0241828Y0630836
X0256144Y0627033
X0260731Y0634446
X0257754Y0637528
X0253715Y0639453
X0270984Y0639598
Y0634936
Y0630454
X0271705Y060172
X028071
X0289715
X029872
X031923Y0587705
X0326385Y0592017
X0330093
X0333916
X0262701Y060172
X0253696
X0252601Y0607477
X025553
Y0610405
X0252601
X024633Y0605305
X0243401
Y0602377
X024633
X0231098Y0589419
X0359201Y0589488
X0359166Y0593113
X035913Y0596561
X0364817Y0596668
Y0593113
X0366761Y0586563
X0369933Y0580561
X0372299Y0572836
X0387176Y0572677
X0384145Y0567298
X0398104Y0566906
X0399604Y0554426
X0404199Y0551012
X0414678Y055578
X0421054Y0556388
X0425981Y0550229
X0429382Y0553629
X0428671Y0563286
X0441273Y0558599
X0439704Y0552914
X0449941Y0547937
X0452032Y0568711
X0461065Y0567762
X0468396Y0568379
X0476205Y0548239
X0479907Y054831
X0484385Y0548364
X048739Y0558483
X0492678Y0536172
X0484209Y0528757
X0485819Y0515656
X0489283
Y051142
X0485819
Y0507575
X0489283
X0494625Y0502132
Y0499204
X0497553
Y0502132
X0435814Y0524933
X0424862Y052534
X042398Y0516312
X0407368Y0528757
X0412519Y0534277
X0413926Y0540172
X0390602Y0539401
X0384621Y0549102
X0372898Y05561
X0368445Y0559886
X0363856Y0555633
X0350387Y0550552
X0350338Y0546685
X0354979Y0541707
X0359014Y0541816
X036157Y0499418
X0354139Y0496659
X0347579Y049678
X0347418Y0502857
X0379206Y0500959
X0390734Y050208
X0390602Y0495204
X0397822Y0495642
X0403241Y0495563
X0395934Y0514127
X0397783Y0520432
X038556Y0522795
X0393513Y057731
X0402358Y0589419
X0414661Y0602377
Y0605305
X0417589
Y0602377
X0424955Y060172
X0423861Y0607477
X0426789
Y0610405
X0423861
X043396Y060172
X0442965
X0451969
X0460974
X0469979
X0490489Y0587705
X0497645Y0592017
X0442243Y0630454
Y0634936
Y0639598
X0429013Y0637528
X0424974Y0639453
X0431991Y0634446
X0427403Y0627033
X0413088Y0630836
X0395335Y0626258
X0395473Y06218
X0391521Y0621616
X0398561Y0619404
X0393849Y0636066
X0390188Y0645289
X0398436
X0375584Y0619711
X0375337Y0614661
X0367157Y0614555
X0357252Y0614531
X0347087Y0614702
X0371565Y0599963
X0357482Y0585546
X0501353Y0592017
X0505175
X0530425Y0593113
X0530389Y0596561
X0536076Y0596668
Y0593113
X0538021Y0586563
X0541192Y0580561
X0543558Y0572836
X0558435Y0572677
X0555404Y0567298
X0569364Y0566906
X0570864Y0554426
X0575459Y0551012
X0585938Y055578
X0592314Y0556388
X059724Y0550229
X0600641Y0553629
X059993Y0563286
X0612532Y0558599
X0610963Y0552914
X0621201Y0547937
X0623291Y0568711
X0632325Y0567762
X0639656Y0568379
X0647465Y0548239
X0651166Y054831
X0655644Y0548364
X0655468Y0528757
X0607073Y0524933
X0596122Y052534
X0595239Y0516312
X0578627Y0528757
X0583779Y0534277
X0585185Y0540172
X0561862Y0539401
X055588Y0549102
X0544158Y05561
X0539705Y0559886
X0535115Y0555633
X0521646Y0550552
X0521598Y0546685
X0526238Y0541707
X0530274Y0541816
X0509235Y0545075
Y0554883
X0528741Y0585546
X053046Y0589488
X0542824Y0599963
X0546597Y0614661
X0546843Y0619711
X0538416Y0614555
X0528511Y0614531
X0518347Y0614702
X056278Y0621616
X0566733Y06218
X0566595Y0626258
X056982Y0619404
X0565109Y0636066
X0561447Y0645289
X0569696
X0584347Y0630836
X0598663Y0627033
X060325Y0634446
X0600273Y0637528
X0596233Y0639453
X0613503Y0639598
Y0634936
Y0630454
X0614224Y060172
X0623229
X0632234
X0641238
X0605219
X0596214
X059512Y0607477
X0598048
Y0610405
X059512
X0588848Y0605305
X058592
Y0602377
X0588848
X0573617Y0589419
X0564772Y057731
X0569042Y0520432
X0567194Y0514127
X0561994Y050208
X0561862Y0495204
X0569081Y0495642
X0574501Y0495563
X0550466Y0500959
X053283Y0499418
X0525399Y0496659
X0518839Y049678
X0518678Y0502857
X0556819Y0522795
X0657078Y0515656
X0660542
Y051142
X0657078
Y0507575
X0660542
X0665884Y0502132
Y0499204
X0668813
Y0502132
X0689937Y0502857
X0690098Y049678
X0696658Y0496659
X0704089Y0499418
X0721725Y0500959
X0733253Y050208
X0733121Y0495204
X0740341Y0495642
X074576Y0495563
X0738453Y0514127
X0740301Y0520432
X0728079Y0522795
X0733121Y0539401
X072714Y0549102
X0726664Y0567298
X0729694Y0572677
X0736031Y057731
X0740623Y0566906
X0742123Y0554426
X0746718Y0551012
X0757197Y055578
X0763573Y0556388
X07685Y0550229
X07719Y0553629
X077119Y0563286
X0783791Y0558599
X0782223Y0552914
X079246Y0547937
X079455Y0568711
X0803584Y0567762
X0810915Y0568379
X0812498Y060172
X0803493
X0794488
X0785484
X0776479
X0767474
X0766379Y0607477
X0769308
Y0610405
X0766379
X0760108Y0605305
X0757179
Y0602377
X0760108
X0744876Y0589419
X074108Y0619404
X0737992Y06218
X073404Y0621616
X0737854Y0626258
X0736368Y0636066
X0732707Y0645289
X0740955
X0755607Y0630836
X0769922Y0627033
X0774509Y0634446
X0771532Y0637528
X0767493Y0639453
X0784762Y0639598
Y0634936
Y0630454
X0718103Y0619711
X0717856Y0614661
X0709675Y0614555
X0699771Y0614531
X0689606Y0614702
X0701649Y0596561
X0701684Y0593113
X070172Y0589488
X07Y0585546
X070928Y0586563
X0707336Y0593113
Y0596668
X0714083Y0599963
X0712452Y0580561
X0714818Y0572836
X0710964Y0559886
X0715417Y05561
X0706375Y0555633
X0692905Y0550552
X0692857Y0546685
X0697497Y0541707
X0701533Y0541816
X0680494Y0545075
Y0554883
X0658649Y0558483
X0663937Y0536172
X0661749Y0587705
X0668904Y0592017
X0672612
X0676435
X0756445Y0540172
X0755038Y0534277
X0749886Y0528757
X0767381Y052534
X0766499Y0516312
X0778333Y0524933
X0826728Y0528757
X0828337Y0515656
X0831802
Y051142
X0828337
Y0507575
X0831802
X0837144Y0502132
Y0499204
X0840072
Y0502132
X0835197Y0536172
X0826904Y0548364
X0822425Y054831
X0818724Y0548239
X0829909Y0558483
X0851753Y0554883
Y0545075
X0847694Y0592017
X0843871
X0840164
X0833008Y0587705
T02
X0760668Y009568
X0770668
X0780667
X0609408
X0599408
X0589408
X0438149
X0428149
X0418149
X0266889
X0256889
X0246889
X009563
X008563
X007563
Y0259461
X008563
X009563
X0246889
X0256889
X0266889
X0418149
X0428149
X0438149
X0589408
X0599408
X0609408
X0760668
X0770668
X0780667
Y0423241
X0770668
X0760668
X0609408
X0599408
X0589408
X0438149
X0428149
X0418149
X0266889
X0256889
X0246889
X009563
X008563
X007563
Y0587022
X008563
X009563
X0246889
X0256889
X0266889
X0418149
X0428149
X0438149
X0589408
X0599408
X0609408
X0760668
X0770668
X0780667
T03
X0091286Y0009946
X0104131
X0119879
X0262545
X027539
X0291138
X0433805
X044665
X0462398
X0605064
X0617909
X0633657
X0776323
X0789169
X0804917
X0820243Y008779
Y0095664
X0804917Y0048923
Y0035931
Y0022939
X0789169
X0776323
X0789169Y0035931
Y0048923
Y0173727
X0776323
X0804917
X0633657
X0617909
X0605064
X0648984Y0095664
Y008779
X0633657Y0048923
Y0035931
Y0022939
X0617909
X0605064
X0617909Y0035931
Y0048923
X0462398
Y0035931
Y0022939
X044665
X0433805
X044665Y0035931
Y0048923
X0477725Y008779
Y0095664
X0462398Y0173727
X044665
X0433805
X0291138
X027539
X0262545
X0306465Y0095664
Y008779
X0291138Y0048923
Y0035931
Y0022939
X027539
X0262545
X027539Y0035931
Y0048923
X0119879
Y0035931
Y0022939
X0104131
X0091286
X0104131Y0035931
Y0048923
X0135206Y008779
Y0095664
X0119879Y0173727
X0104131
X0091286
Y0186719
X0104131
Y0199711
Y0212703
X0119879
Y0199711
Y0186719
X0135206Y0251571
Y0259445
X0306465
Y0251571
X0291138Y0212703
Y0199711
Y0186719
X027539
X0262545
X027539Y0199711
Y0212703
X044665
Y0199711
Y0186719
X0433805
X0462398
Y0199711
Y0212703
X0477725Y0251571
Y0259445
X0648984
Y0251571
X0633657Y0212703
Y0199711
Y0186719
X0617909
X0605064
X0617909Y0199711
Y0212703
X0789169
Y0199711
Y0186719
X0776323
X0804917
Y0199711
Y0212703
X0820243Y0251571
Y0259445
Y0415351
Y0423225
X0804917Y0376484
Y0363492
Y03505
Y0337508
X0789169
X0776323
Y03505
X0789169
Y0363492
Y0376484
X0633657
Y0363492
Y03505
Y0337508
X0617909
X0605064
Y03505
X0617909
Y0363492
Y0376484
X0648984Y0415351
Y0423225
X0477725
Y0415351
X0462398Y0376484
Y0363492
Y03505
Y0337508
X044665
X0433805
Y03505
X044665
Y0363492
Y0376484
X0291138
Y0363492
Y03505
Y0337508
X027539
X0262545
Y03505
X027539
Y0363492
Y0376484
X0306465Y0415351
Y0423225
X0135206
Y0415351
X0119879Y0376484
Y0363492
Y03505
Y0337508
X0104131
X0091286
Y03505
X0104131
Y0363492
Y0376484
Y0501288
X0091286
Y0514281
X0104131
Y0527273
Y0540265
X0119879
Y0527273
Y0514281
Y0501288
X0135206Y0579132
Y0587006
X0306465
Y0579132
X0291138Y0540265
Y0527273
Y0514281
Y0501288
X027539
X0262545
Y0514281
X027539
Y0527273
Y0540265
X044665
Y0527273
Y0514281
X0433805
Y0501288
X044665
X0462398
Y0514281
Y0527273
Y0540265
X0477725Y0579132
Y0587006
X0648984
Y0579132
X0633657Y0540265
Y0527273
Y0514281
Y0501288
X0617909
X0605064
Y0514281
X0617909
Y0527273
Y0540265
X0789169
Y0527273
Y0514281
X0776323
Y0501288
X0789169
X0804917
Y0514281
Y0527273
Y0540265
X0820243Y0579132
Y0587006
T04
X0021337Y0018836
X0192596
X0363856
X0535115
X0706375
X0819846Y0113461
X0829846
X0839846
X0849845
X074229Y0100856
X0734416
X0726542
X0718668
X0719846Y0113461
X0709846
X0699846
X0689846
X0678585
X0668587
X0658587
X0696122Y0029089
X0716628
X0648587Y0113461
X0571031Y0100856
X0563157
X0555283
X0547409
X0548587Y0113461
X0538587
X0528587
X0518587
X0507326
X0524862Y0029089
X0545368
X0497327Y0113461
X0487327
X0477327
X0399771Y0100856
X0391897
X0384023
X0376149
X0377327Y0113461
X0367327
X0357327
X0347327
X0353603Y0029089
X0374109
X0336067Y0113461
X0326068
X0316068
X0306068
X0228512Y0100856
X0220638
X0212764
X020489
X0206068Y0113461
X0196068
X0202849Y0029089
X0182343
X0186068Y0113461
X0176068
X0164807
X0154809
X0144809
X0134809
X0057253Y0100856
X0049379
X0041505
X0033631
X0034809Y0113461
X0024809
X0014809
X0004809
X0011084Y0029089
X003159
Y019287
X0021337Y0182617
X0011084Y019287
X0014809Y0277242
X0024809
X0004809
X0034809
X0033631Y0264637
X0041505
X0049379
X0057253
X0134809Y0277242
X0144809
X0154809
X0164807
X0176068
X0186068
X0182343Y019287
X0202849
X0192596Y0182617
X020489Y0264637
X0212764
X0220638
X0228512
X0206068Y0277242
X0196068
X0306068
X0316068
X0326068
X0336067
X0347327
X0357327
X0367327
X0377327
X0376149Y0264637
X0384023
X0391897
X0399771
X0477327Y0277242
X0487327
X0497327
X0374109Y019287
X0363856Y0182617
X0353603Y019287
X0524862
X0545368
X0535115Y0182617
X0547409Y0264637
X0555283
X0563157
X0571031
X0548587Y0277242
X0538587
X0528587
X0518587
X0507326
X0648587
X0658587
X0668587
X0678585
X0689846
X0699846
X0709846
X0719846
X0718668Y0264637
X0726542
X0734416
X074229
X0716628Y019287
X0706375Y0182617
X0696122Y019287
X0819846Y0277242
X0829846
X0839846
X0849845
Y0441023
X0839846
X0829846
X0819846
X074229Y0428418
X0734416
X0726542
X0718668
X0719846Y0441023
X0709846
X0699846
X0689846
X0678585
X0668587
X0658587
X0696122Y035665
X0716628
X0706375Y0346397
X0648587Y0441023
X0571031Y0428418
X0563157
X0555283
X0547409
X0548587Y0441023
X0538587
X0528587
X0518587
X0507326
X0524862Y035665
X0545368
X0535115Y0346397
X0497327Y0441023
X0487327
X0477327
X0399771Y0428418
X0391897
X0384023
X0376149
X0377327Y0441023
X0367327
X0357327
X0347327
X0353603Y035665
X0374109
X0363856Y0346397
X0336067Y0441023
X0326068
X0316068
X0306068
X0228512Y0428418
X0220638
X0212764
X020489
X0206068Y0441023
X0196068
X0202849Y035665
X0192596Y0346397
X0182343Y035665
X0186068Y0441023
X0176068
X0164807
X0154809
X0144809
X0134809
X0057253Y0428418
X0049379
X0041505
X0033631
X0034809Y0441023
X0024809
X0014809
X0004809
X0011084Y035665
X003159
X0021337Y0346397
Y0510178
X003159Y0520431
X0011084
X0014809Y0604803
X0024809
X0004809
X0034809
X0033631Y0592198
X0041505
X0049379
X0057253
X0134809Y0604803
X0144809
X0154809
X0164807
X0176068
X0186068
X0182343Y0520431
X0202849
X0192596Y0510178
X020489Y0592198
X0212764
X0220638
X0228512
X0206068Y0604803
X0196068
X0306068
X0316068
X0326068
X0336067
X0347327
X0357327
X0367327
X0377327
X0376149Y0592198
X0384023
X0391897
X0399771
X0477327Y0604803
X0487327
X0497327
X0374109Y0520431
X0363856Y0510178
X0353603Y0520431
X0524862
X0545368
X0535115Y0510178
X0547409Y0592198
X0555283
X0563157
X0571031
X0548587Y0604803
X0538587
X0528587
X0518587
X0507326
X0648587
X0658587
X0668587
X0678585
X0689846
X0699846
X0709846
X0719846
X0718668Y0592198
X0726542
X0734416
X074229
X0716628Y0520431
X0706375Y0510178
X0696122Y0520431
X0819846Y0604803
X0829846
X0839846
X0849845
T05
X0693211Y0131929
X0710927
X0723573Y0135866
Y0153583
X0710927Y015752
X0693211
X0749164Y0153583
X0761809Y015752
X0779526
Y013193
X0761809
X0749164Y0135866
X0608266Y013193
X059055
X0577904Y0135866
Y0153583
X059055Y015752
X0608266
X0552314Y0153583
X0539668Y015752
X0521951
Y0131929
X0539668
X0552314Y0135866
X0437007Y013193
X041929
X0406645Y0135866
Y0153583
X041929Y015752
X0437007
X0381054Y0153583
X0368409Y015752
X0350692
Y0131929
X0368409
X0381054Y0135866
X0265748Y013193
X0248031
X0235385Y0135866
Y0153583
X0248031Y015752
X0265748
X0209795Y0153583
X0197149Y015752
Y0131929
X0209795Y0135866
X0179433Y0131929
Y015752
X0094488Y015752
X0076772
X0064126Y0153583
Y0135866
X0076772Y013193
X0094488
X0038535Y0135866
Y0153583
X002589Y015752
X0008173
Y0131929
X002589
Y029571
X0008173
Y03213
X002589
X0038535Y0317363
Y0299647
X0064126
X0076772Y029571
X0094488
Y0321301
X0076772
X0064126Y0317363
X0179433Y03213
Y029571
X0197149
X0209795Y0299647
Y0317363
X0197149Y03213
X0235385Y0317363
X0248031Y0321301
X0265748
Y029571
X0248031
X0235385Y0299647
X0350692Y029571
X0368409
X0381054Y0299647
Y0317363
X0368409Y03213
X0350692
X0406645Y0317363
X041929Y0321301
X0437007
Y029571
X041929
X0406645Y0299647
X0521951Y029571
X0539668
X0552314Y0299647
Y0317363
X0539668Y03213
X0521951
X0577904Y0317363
X059055Y0321301
X0608266
Y029571
X059055
X0577904Y0299647
X0693211Y029571
X0710927
X0723573Y0299647
Y0317363
X0710927Y03213
X0693211
X0749164Y0317363
X0761809Y0321301
X0779526
Y029571
X0761809
X0749164Y0299647
Y0463427
X0761809Y0459491
X0779526
Y0485081
X0761809
X0749164Y0481144
X0723573
X0710927Y0485081
X0693211
Y045949
X0710927
X0723573Y0463427
X0608266Y0459491
X059055
X0577904Y0463427
Y0481144
X059055Y0485081
X0608266
X0552314Y0481144
X0539668Y0485081
X0521951
Y045949
X0539668
X0552314Y0463427
X0437007Y0459491
X041929
X0406645Y0463427
Y0481144
X041929Y0485081
X0437007
X0381054Y0481144
X0368409Y0485081
X0350692
Y045949
X0368409
X0381054Y0463427
X0265748Y0459491
X0248031
X0235385Y0463427
Y0481144
X0248031Y0485081
X0265748
X0209795Y0481144
X0197149Y0485081
Y045949
X0209795Y0463427
X0179433Y045949
Y0485081
X0094488Y0485081
X0076772
X0064126Y0481144
Y0463427
X0076772Y0459491
X0094488
X0038535Y0463427
Y0481144
X002589Y0485081
X0008173
Y045949
X002589
Y0623271
X0008173
X0038535Y0627208
Y0644925
X0064126
Y0627208
X0076772Y0623271
X0094488
X0179433Y0623271
X0197149
X0209795Y0627208
Y0644925
X0235385
Y0627208
X0248031Y0623271
X0265748
X0350692Y0623271
X0368409
X0381054Y0627208
Y0644925
X0406645
Y0627208
X041929Y0623271
X0437007
X0521951Y0623271
X0539668
X0552314Y0627208
Y0644925
X0577904
Y0627208
X059055Y0623271
X0608266
X0693211Y0623271
X0710927
X0723573Y0627208
Y0644925
X0749164
Y0627208
X0761809Y0623271
X0779526
Y0648862
X0761809
X0710927Y0648862
X0693211
X0608266Y0648862
X059055
X0539668Y0648862
X0521951
X0437007Y0648862
X041929
X0368409Y0648862
X0350692
X0265748Y0648862
X0248031
X0197149Y0648862
X0179433
X0094488Y0648862
X0076772
X002589Y0648862
X0008173
T06
X0691236Y0102228
X0519976
X0348717
X0177457
X0006198
Y0266008
X0177457
X0348717
X0519976
X0691236
Y0429789
X0519976
X0348717
X0177457
X0006198
Y059357
X0177457
X0348717
X0519976
X0691236
T07
X0019666Y-0010186
X-0009848Y0019685
X0866127Y0017408
X0841412Y-0010187
X-000993Y0524378
X0866127Y0524078
X0640088Y0664936
X0210718Y0664936
T08
X0843502Y0081968
X0697833
X0672243
X0526574
X0500983
X0355314
X0329724
X0184055
X0158465
X0012795
Y0245749
X0158465
X0184055
X0329724
X0355314
X0500983
X0526574
X0672243
X0697833
X0843502
Y040953
X0697833
X0672243
X0526574
X0500983
X0355314
X0329724
X0184055
X0158465
X0012795
Y057331
X0158465
X0184055
X0329724
X0355314
X0500983
X0526574
X0672243
X0697833
X0843502
M30
