G04*
G04 #@! TF.GenerationSoftware,Altium Limited,Altium Designer,23.8.1 (32)*
G04*
G04 Layer_Color=16711935*
%FSTAX26Y26*%
%MOIN*%
G70*
G04*
G04 #@! TF.SameCoordinates,353E1745-25BD-4490-98DE-B48524D5EC12*
G04*
G04*
G04 #@! TF.FilePolarity,Positive*
G04*
G01*
G75*
%ADD29C,0.010000*%
%ADD95R,0.012842X0.017305*%
D29*
X08562992Y-00197027D02*
G03*
X08759858Y0I00000005J00196861D01*
G01*
X08759849Y06552094D02*
G03*
X08561863Y06747916I-00196858J-00001036D01*
G01*
X-00003317Y0674789D02*
G03*
X-00196861Y06551634I00003316J-00196833D01*
G01*
X04203986Y07026026D02*
G03*
X04186Y07017474I-0000696J-00008552D01*
G01*
X0415837Y07007311D02*
G03*
X0414337Y07027311I-000175J000025D01*
G01*
X0411837Y07007311D02*
G03*
X04156878Y06988803I000225J-000025D01*
G01*
X0414337Y0702731D02*
G03*
X0411837Y07007311I-000025J-000225D01*
G01*
X03787858Y07015131D02*
G03*
X03787858Y07015131I-0003J0D01*
G01*
X03816Y069935D02*
G03*
X03851Y07001429I00015J00015D01*
G01*
X04871Y070235D02*
G03*
X04851Y070035I0J-0002D01*
G01*
X04886Y070085D02*
G03*
X04871Y070235I-00015J0D01*
G01*
X05031Y070085D02*
G03*
X05016Y070235I-00015J0D01*
G01*
D02*
G03*
X04996Y070035I0J-0002D01*
G01*
X05016Y069635D02*
G03*
X05031Y069785I0J00015D01*
G01*
X04996Y069835D02*
G03*
X05016Y069635I0002J0D01*
G01*
X04871D02*
G03*
X04886Y069785I0J00015D01*
G01*
X04851Y069835D02*
G03*
X04871Y069635I0002J0D01*
G01*
X04036Y070185D02*
G03*
X04026Y070285I-0001J0D01*
G01*
X04021Y070035D02*
G03*
X04036Y070185I0J00015D01*
G01*
X04017674Y069835D02*
G03*
X040335Y06999326I0J00015826D01*
G01*
X04016Y070285D02*
G03*
X04006Y070185I0J-0001D01*
G01*
X04011Y070035D02*
G03*
X04001Y069935I0J-0001D01*
G01*
X03606Y070085D02*
G03*
X03591Y070285I-000175J000025D01*
G01*
X03566Y070085D02*
G03*
X03604508Y06989992I000225J-000025D01*
G01*
X03591Y070285D02*
G03*
X03566Y070085I-000025J-000225D01*
G01*
X03546D02*
G03*
X03531Y070285I-000175J000025D01*
G01*
X03506Y070085D02*
G03*
X03544508Y06989992I000225J-000025D01*
G01*
X03531Y070285D02*
G03*
X03506Y070085I-000025J-000225D01*
G01*
X03631Y070035D02*
G03*
X03631Y07013164I00020168J00004832D01*
G01*
X04077465Y06969965D02*
G03*
X04081Y069785I-00008536J00008536D01*
G01*
X03881Y069885D02*
G03*
X03896Y069835I0001J00005D01*
G01*
X04061858Y069635D02*
G03*
X04077465Y06969965I0J00022071D01*
G01*
X04036Y069835D02*
G03*
X04041Y069785I00005J0D01*
G01*
X04001Y069935D02*
G03*
X04011Y069835I0001J0D01*
G01*
X-00197781Y-00000001D02*
G03*
X00003623Y-00196852I00199128J00002276D01*
G01*
X-00003317Y06747532D02*
X08561863Y06747701D01*
X-00197781Y-00000002D02*
X-00197048Y06551223D01*
X08759858Y0D02*
X08759885Y06552094D01*
X04186Y069835D02*
Y070285D01*
X0411837Y07007311D02*
X0415837D01*
X04081Y069785D02*
X04101Y070285D01*
X04061D02*
X04081Y069785D01*
X04496Y06995807D02*
X04761D01*
X03331Y071535D02*
X05222911D01*
X03691Y070085D02*
X03711D01*
X03946Y069835D02*
Y070485D01*
X03851Y069835D02*
Y070285D01*
X03816Y069935D02*
Y070285D01*
X03881Y069885D02*
Y070435D01*
X03871Y070285D02*
X03891D01*
X04761Y06975822D02*
Y07015807D01*
Y06975822D02*
X04781Y06995807D01*
X04851Y069835D02*
Y070035D01*
X04761Y06995807D02*
Y07015807D01*
X04781Y06995807D01*
X05222911Y06835807D02*
Y071535D01*
X04926Y070285D02*
X04966Y069635D01*
X04926D02*
Y070285D01*
X04996Y069835D02*
Y070035D01*
X04966Y069635D02*
Y070285D01*
X04036Y069835D02*
Y070185D01*
X04011Y069835D02*
X04017674D01*
X04016Y070285D02*
X04026D01*
X04011Y070035D02*
X04021D01*
X03631Y069635D02*
Y070285D01*
X03506Y070085D02*
X03546D01*
X034585Y0702634D02*
X03486Y069835D01*
X034585Y0702634D02*
X03481Y070485D01*
X03436Y07004179D02*
X03481Y070485D01*
X03436Y069835D02*
Y070485D01*
Y069835D02*
Y07004179D01*
X03331Y06835807D02*
Y071535D01*
X03566Y070085D02*
X03606D01*
X03331Y06835807D02*
X05222911D01*
X03946Y069835D02*
X03981D01*
X00003624Y-00196852D02*
X08562992D01*
D95*
X04767421Y06997155D02*
D03*
M02*
