G04*
G04 #@! TF.GenerationSoftware,Altium Limited,Altium Designer,23.8.1 (32)*
G04*
G04 Layer_Color=128*
%FSTAX26Y26*%
%MOIN*%
G70*
G04*
G04 #@! TF.SameCoordinates,353E1745-25BD-4490-98DE-B48524D5EC12*
G04*
G04*
G04 #@! TF.FilePolarity,Positive*
G04*
G01*
G75*
%ADD11C,0.042047*%
G36*
X07649513Y06101034D02*
X07639314D01*
X07649513Y06118414D01*
Y06101034D01*
D02*
G37*
G36*
X05936919D02*
X0592672D01*
X05936919Y06118414D01*
Y06101034D01*
D02*
G37*
G36*
X04224325D02*
X04214126D01*
X04224325Y06118414D01*
Y06101034D01*
D02*
G37*
G36*
X02511731D02*
X02501532D01*
X02511731Y06118414D01*
Y06101034D01*
D02*
G37*
G36*
X00799137D02*
X00788938D01*
X00799137Y06118414D01*
Y06101034D01*
D02*
G37*
G36*
X07649513Y06061127D02*
X07633128Y0608905D01*
X07649513D01*
X07649513Y06061127D01*
D02*
G37*
G36*
X05936919D02*
X05920534Y0608905D01*
X05936919D01*
X05936919Y06061127D01*
D02*
G37*
G36*
X04224325D02*
X0420794Y0608905D01*
X04224325D01*
X04224325Y06061127D01*
D02*
G37*
G36*
X02511731D02*
X02495346Y0608905D01*
X02511731D01*
X02511731Y06061127D01*
D02*
G37*
G36*
X00799137D02*
X00782752Y0608905D01*
X00799137D01*
X00799137Y06061127D01*
D02*
G37*
G36*
X07649513Y04463227D02*
X07639314D01*
X07649513Y04480608D01*
Y04463227D01*
D02*
G37*
G36*
X05936919D02*
X0592672D01*
X05936919Y04480608D01*
Y04463227D01*
D02*
G37*
G36*
X04224325D02*
X04214126D01*
X04224325Y04480608D01*
Y04463227D01*
D02*
G37*
G36*
X02511731D02*
X02501532D01*
X02511731Y04480608D01*
Y04463227D01*
D02*
G37*
G36*
X00799137D02*
X00788938D01*
X00799137Y04480608D01*
Y04463227D01*
D02*
G37*
G36*
X07649513Y04423321D02*
X07633128Y04451244D01*
X07649513D01*
X07649513Y04423321D01*
D02*
G37*
G36*
X05936919D02*
X05920534Y04451244D01*
X05936919D01*
X05936919Y04423321D01*
D02*
G37*
G36*
X04224325D02*
X0420794Y04451244D01*
X04224325D01*
X04224325Y04423321D01*
D02*
G37*
G36*
X02511731D02*
X02495346Y04451244D01*
X02511731D01*
X02511731Y04423321D01*
D02*
G37*
G36*
X00799137D02*
X00782752Y04451244D01*
X00799137D01*
X00799137Y04423321D01*
D02*
G37*
G36*
X07649513Y02825421D02*
X07639314D01*
X07649513Y02842801D01*
Y02825421D01*
D02*
G37*
G36*
X05936919D02*
X0592672D01*
X05936919Y02842801D01*
Y02825421D01*
D02*
G37*
G36*
X04224325D02*
X04214126D01*
X04224325Y02842801D01*
Y02825421D01*
D02*
G37*
G36*
X02511731D02*
X02501532D01*
X02511731Y02842801D01*
Y02825421D01*
D02*
G37*
G36*
X00799137D02*
X00788938D01*
X00799137Y02842801D01*
Y02825421D01*
D02*
G37*
G36*
X07649513Y02785515D02*
X07633128Y02813437D01*
X07649513D01*
X07649513Y02785515D01*
D02*
G37*
G36*
X05936919D02*
X05920534Y02813437D01*
X05936919D01*
X05936919Y02785515D01*
D02*
G37*
G36*
X04224325D02*
X0420794Y02813437D01*
X04224325D01*
X04224325Y02785515D01*
D02*
G37*
G36*
X02511731D02*
X02495346Y02813437D01*
X02511731D01*
X02511731Y02785515D01*
D02*
G37*
G36*
X00799137D02*
X00782752Y02813437D01*
X00799137D01*
X00799137Y02785515D01*
D02*
G37*
G36*
X07649513Y01187614D02*
X07639314D01*
X07649513Y01204995D01*
Y01187614D01*
D02*
G37*
G36*
X05936919D02*
X0592672D01*
X05936919Y01204995D01*
Y01187614D01*
D02*
G37*
G36*
X04224325D02*
X04214126D01*
X04224325Y01204995D01*
Y01187614D01*
D02*
G37*
G36*
X02511731D02*
X02501532D01*
X02511731Y01204995D01*
Y01187614D01*
D02*
G37*
G36*
X00799137D02*
X00788938D01*
X00799137Y01204995D01*
Y01187614D01*
D02*
G37*
G36*
X07649513Y01147708D02*
X07633128Y01175631D01*
X07649513D01*
X07649513Y01147708D01*
D02*
G37*
G36*
X05936919D02*
X05920534Y01175631D01*
X05936919D01*
X05936919Y01147708D01*
D02*
G37*
G36*
X04224325D02*
X0420794Y01175631D01*
X04224325D01*
X04224325Y01147708D01*
D02*
G37*
G36*
X02511731D02*
X02495346Y01175631D01*
X02511731D01*
X02511731Y01147708D01*
D02*
G37*
G36*
X00799137D02*
X00782752Y01175631D01*
X00799137D01*
X00799137Y01147708D01*
D02*
G37*
D11*
X-00098483Y003937D02*
D03*
X08661266Y00370928D02*
D03*
X06204031Y0664936D02*
D03*
X02304031D02*
D03*
X08661266Y05043928D02*
D03*
X00393512Y-00101861D02*
D03*
X-00099298Y05046928D02*
D03*
X08217266Y-00101867D02*
D03*
M02*
